<svg width="40" height="40" viewBox="0 0 40 40" fill="none" xmlns="http://www.w3.org/2000/svg">
<path d="M37.0968 0H2.90323C1.30258 0 0 1.30226 0 2.90323V15.1613C0 16.7623 1.30258 18.0645 2.90323 18.0645H23.871C24.0421 18.0645 24.2062 17.9965 24.3272 17.8756C24.4482 17.7546 24.5161 17.5905 24.5161 17.4194C24.5161 17.2482 24.4482 17.0841 24.3272 16.9632C24.2062 16.8422 24.0421 16.7742 23.871 16.7742H6.12903V12.9032C6.12903 12.1916 6.70774 11.6129 7.41935 11.6129H23.5484C23.7195 11.6129 23.8836 11.5449 24.0046 11.4239C24.1256 11.3029 24.1935 11.1388 24.1935 10.9677C24.1935 10.7966 24.1256 10.6325 24.0046 10.5115C23.8836 10.3906 23.7195 10.3226 23.5484 10.3226H7.41935C5.99645 10.3226 4.83871 11.4803 4.83871 12.9032V16.7742H2.90323C2.01387 16.7742 1.29032 16.0506 1.29032 15.1613V2.90323C1.29032 2.01387 2.01387 1.29032 2.90323 1.29032H37.0968C37.9861 1.29032 38.7097 2.01387 38.7097 2.90323V7.74193C38.7097 7.91304 38.7776 8.07714 38.8986 8.19813C39.0196 8.31912 39.1837 8.3871 39.3548 8.3871C39.5259 8.3871 39.69 8.31912 39.811 8.19813C39.932 8.07714 40 7.91304 40 7.74193V2.90323C40 1.30226 38.6974 0 37.0968 0Z" fill="#0E121D"/>
<path d="M8.06449 13.5483C7.89338 13.5483 7.72928 13.6163 7.60829 13.7373C7.4873 13.8583 7.41933 14.0224 7.41933 14.1935C7.41933 14.3646 7.4873 14.5287 7.60829 14.6497C7.72928 14.7707 7.89338 14.8386 8.06449 14.8386H23.2258C23.3969 14.8386 23.561 14.7707 23.682 14.6497C23.803 14.5287 23.8709 14.3646 23.8709 14.1935C23.8709 14.0224 23.803 13.8583 23.682 13.7373C23.561 13.6163 23.3969 13.5483 23.2258 13.5483H8.06449ZM6.12901 2.58057C5.41739 2.58057 4.83868 3.15928 4.83868 3.87089V5.48379C4.83868 6.1954 5.41739 6.77411 6.12901 6.77411H11.9355C12.6471 6.77411 13.2258 6.1954 13.2258 5.48379V3.87089C13.2258 3.15928 12.6471 2.58057 11.9355 2.58057H6.12901ZM6.12901 5.48379V3.87089H11.9355L11.9361 5.48379H6.12901ZM35.1613 4.51605C35.1613 3.9825 34.7271 3.54831 34.1935 3.54831C33.66 3.54831 33.2258 3.9825 33.2258 4.51605C33.2258 5.0496 33.66 5.48379 34.1935 5.48379C34.7271 5.48379 35.1613 5.0496 35.1613 4.51605ZM30.9677 5.48379C31.5013 5.48379 31.9355 5.0496 31.9355 4.51605C31.9355 3.9825 31.5013 3.54831 30.9677 3.54831C30.4342 3.54831 30 3.9825 30 4.51605C30 5.0496 30.4342 5.48379 30.9677 5.48379ZM28.7097 4.51605C28.7097 3.9825 28.2755 3.54831 27.7419 3.54831C27.2084 3.54831 26.7742 3.9825 26.7742 4.51605C26.7742 5.0496 27.2084 5.48379 27.7419 5.48379C28.2755 5.48379 28.7097 5.0496 28.7097 4.51605Z" fill="#0E121D"/>
<path d="M40 13.871C40 10.8555 38.1974 8.16322 35.4074 7.01225C35.3094 6.9718 35.2029 6.95613 35.0974 6.96663C34.9919 6.97713 34.8906 7.01347 34.8025 7.07244C34.7144 7.13141 34.6421 7.21119 34.5922 7.30473C34.5422 7.39827 34.5161 7.50267 34.5161 7.6087V13.5484H30.6452V7.60838C30.6452 7.50235 30.6191 7.39794 30.5691 7.30441C30.5192 7.21087 30.4469 7.13109 30.3588 7.07212C30.2707 7.01315 30.1694 6.9768 30.0639 6.9663C29.9584 6.95581 29.8519 6.97148 29.7539 7.01193C28.3934 7.56943 27.23 8.51966 26.412 9.74134C25.594 10.963 25.1586 12.4007 25.1613 13.871C25.1585 15.2667 25.5508 16.6348 26.2929 17.817C27.035 18.9991 28.0966 19.9471 29.3548 20.5513V22.2581H25.0639C24.3961 22.2563 23.7346 22.3869 23.1177 22.6424C22.5007 22.898 21.9406 23.2733 21.4697 23.7468C21.2306 23.9871 20.9462 24.1777 20.6329 24.3074C20.3197 24.4371 19.9839 24.5035 19.6448 24.5026H18.0645V23.5484C18.0645 22.8368 17.4858 22.2581 16.7742 22.2581H0.645161C0.474054 22.2581 0.309955 22.326 0.188963 22.447C0.0679723 22.568 0 22.7321 0 22.9032C0 23.0743 0.0679723 23.2384 0.188963 23.3594C0.309955 23.4804 0.474054 23.5484 0.645161 23.5484H16.7742V35.1613H0.645161C0.474054 35.1613 0.309955 35.2293 0.188963 35.3502C0.0679723 35.4712 0 35.6353 0 35.8064C0 35.9776 0.0679723 36.1417 0.188963 36.2626C0.309955 36.3836 0.474054 36.4516 0.645161 36.4516H16.7742C17.4858 36.4516 18.0645 35.8729 18.0645 35.1613V34.1935H19.6316C20.321 34.1935 20.969 34.4619 21.47 34.9629C21.9408 35.4363 22.5009 35.8117 23.1178 36.0672C23.7347 36.3228 24.3962 36.4534 25.0639 36.4516H29.3548V36.6858C29.3548 38.431 30.6781 39.8839 32.3671 39.9929C32.4397 39.9977 32.5119 40 32.5839 40C33.4064 40 34.1816 39.6945 34.7864 39.1277C35.1078 38.8255 35.364 38.4609 35.5394 38.0561C35.7148 37.6513 35.8057 37.215 35.8064 36.7739V36.4513H36.4516C37.519 36.4513 38.3871 35.5832 38.3871 34.5158V26.129C38.3871 25.2764 37.8326 24.5526 37.0655 24.2948C37.0839 24.1558 37.0968 24.0152 37.0968 23.871V23.5484C37.0968 22.8368 36.5181 22.2581 35.8064 22.2581V20.5513C37.0647 19.9471 38.1262 18.9991 38.8683 17.8169C39.6104 16.6348 40.0027 15.2667 40 13.871ZM25.0639 35.1613C24.051 35.1613 23.0984 34.7668 22.3687 34.0371C22.0101 33.6765 21.5836 33.3906 21.1137 33.196C20.6439 33.0013 20.1402 32.9018 19.6316 32.9032H18.0645V25.7929H19.6448C20.679 25.7929 21.651 25.39 22.3819 24.659C22.7334 24.3058 23.1514 24.0258 23.6117 23.8352C24.072 23.6445 24.5656 23.5471 25.0639 23.5484H35.8064V23.871C35.8064 24.9384 34.9384 25.8064 33.871 25.8064H30C29.8289 25.8064 29.6648 25.8744 29.5438 25.9954C29.4228 26.1164 29.3548 26.2805 29.3548 26.4516C29.3548 28.2303 27.9077 29.6774 26.129 29.6774C25.4046 29.6801 24.7008 29.4363 24.1332 28.9861C24.0667 28.9337 23.9905 28.8948 23.9089 28.8718C23.8274 28.8488 23.7421 28.8421 23.658 28.852C23.5738 28.8619 23.4925 28.8884 23.4185 28.9298C23.3446 28.9711 23.2796 29.0267 23.2271 29.0932C23.1746 29.1597 23.1358 29.236 23.1128 29.3175C23.0898 29.399 23.083 29.4843 23.093 29.5685C23.1029 29.6526 23.1293 29.734 23.1707 29.8079C23.2121 29.8818 23.2677 29.9469 23.3342 29.9993C24.129 30.6298 25.1145 30.9713 26.129 30.9677C27.3923 30.9677 28.5345 30.4448 29.3548 29.6061V35.1613H25.0639ZM34.5161 36.7742C34.5172 37.0392 34.4633 37.3015 34.3579 37.5446C34.2526 37.7877 34.098 38.0064 33.9039 38.1868C33.7106 38.3689 33.4817 38.509 33.2316 38.5983C32.9815 38.6876 32.7156 38.7241 32.4506 38.7055C31.4384 38.64 30.6452 37.7529 30.6452 36.6858V27.0968H31.6129V34.5161C31.6129 35.5835 32.481 36.4516 33.5484 36.4516H34.5161V36.7742ZM37.0968 26.129V34.5161C37.0968 34.8719 36.8074 35.1613 36.4516 35.1613H33.5484C33.1926 35.1613 32.9032 34.8719 32.9032 34.5161V27.0968H33.871C35.0487 27.0968 36.0777 26.4603 36.641 25.5155C36.7725 25.5556 36.8877 25.6369 36.9698 25.7473C37.0518 25.8577 37.0963 25.9915 37.0968 26.129ZM34.9152 19.5368C34.7971 19.5855 34.6961 19.6682 34.6251 19.7744C34.554 19.8806 34.5161 20.0055 34.5161 20.1332V22.2581H30.6452V20.1335C30.6452 20.0058 30.6073 19.8809 30.5362 19.7747C30.4652 19.6685 30.3642 19.5858 30.2461 19.5371C29.1222 19.0766 28.161 18.2917 27.4851 17.2825C26.8093 16.2733 26.4495 15.0856 26.4516 13.871C26.4516 11.7177 27.5645 9.76419 29.3548 8.65967V13.5484C29.3548 14.26 29.9335 14.8387 30.6452 14.8387H34.5161C35.2277 14.8387 35.8064 14.26 35.8064 13.5484V8.65935C37.5968 9.76386 38.7097 11.7174 38.7097 13.8706C38.7119 15.0853 38.3521 16.273 37.6763 17.2822C37.0004 18.2914 36.0391 19.0763 34.9152 19.5368Z" fill="#0E121D"/>
</svg>
