<svg width="42" height="40" viewBox="0 0 42 40" fill="none" xmlns="http://www.w3.org/2000/svg">
<path d="M41.3848 38.7598H39.7863V12.5759C39.7863 11.7519 39.1211 11.0816 38.3033 11.0816H33.0531C32.7133 11.0816 32.4379 11.3592 32.4379 11.7016C32.4379 12.044 32.7133 12.3215 33.0531 12.3215H38.3033C38.4426 12.3215 38.5558 12.4356 38.5558 12.5759V38.7598H30.7954V35.6654H35.4887C36.1159 35.6654 36.6263 35.1511 36.6263 34.519V33.0526C36.6263 32.4206 36.116 31.9063 35.4887 31.9063H30.7954V30.0874H35.4887C36.1159 30.0874 36.6263 29.5732 36.6263 28.9411V27.4747C36.6263 26.8426 36.116 26.3283 35.4887 26.3283H30.7954V24.5095H35.4887C36.1159 24.5095 36.6263 23.9952 36.6263 23.3631V21.8968C36.6263 21.2647 36.116 20.7505 35.4887 20.7505H30.7954V18.9316H35.4887C36.1159 18.9316 36.6263 18.4174 36.6263 17.7853V16.3189C36.6263 15.6868 36.116 15.1725 35.4887 15.1725H30.7954V6.87528C30.7954 6.27012 30.437 5.72877 29.8828 5.49625L17.0597 0.110981C16.619 -0.0741791 16.1187 -0.0255746 15.7216 0.241254C15.3243 0.508083 15.0872 0.954782 15.0872 1.4362V4.34123H11.8218V1.8009C11.8218 1.45852 11.5463 1.18094 11.2065 1.18094C10.8668 1.18094 10.5913 1.45852 10.5913 1.8009V4.34131H6.89989C6.08221 4.34131 5.41693 5.01161 5.41693 5.83565V7.77967H3.34277C2.525 7.77967 1.85965 8.44971 1.85965 9.27335V34.737H1.48312C0.665355 34.737 0 35.4075 0 36.2315V38.5055C0 39.3295 0.665355 40 1.48312 40L41.3848 39.9998C41.7245 39.9998 42 39.7222 42 39.3798C42 39.0374 41.7245 38.7598 41.3848 38.7598ZM35.3958 33.1463V34.4255H30.7954V33.1463H35.3958ZM35.3958 27.5683V28.8475H30.7954V27.5683H35.3958ZM35.3958 21.9904V23.2696H30.7954V21.9904H35.3958ZM35.3958 16.4125V17.6918H30.7954V16.4125H35.3958ZM16.3177 1.4362C16.3177 1.34469 16.3718 1.29468 16.404 1.27294C16.4364 1.25137 16.5028 1.22021 16.5863 1.25542L23.8353 4.29981V32.2304C23.8353 32.5728 24.1108 32.8503 24.4506 32.8503C24.7903 32.8503 25.0658 32.5728 25.0658 32.2304V4.81653L29.4097 6.64085C29.504 6.68044 29.565 6.77245 29.565 6.87528L29.5647 38.76H25.0658V35.1375C25.0658 34.7951 24.7903 34.5175 24.4506 34.5175C24.1108 34.5175 23.8353 34.7951 23.8353 35.1375V38.76H20.813V18.5916C20.813 17.6678 20.0671 16.9162 19.1503 16.9162H16.3177V1.4362ZM19.1503 18.1561C19.3886 18.1561 19.5825 18.3514 19.5825 18.5916V38.7598H11.8218V18.5916C11.8218 18.3515 12.0156 18.1561 12.254 18.1561H19.1503ZM10.5913 18.5916V22.9644H3.09012V18.1561H10.6503C10.613 18.2953 10.5913 18.4408 10.5913 18.5916ZM3.09012 24.2043H10.5913V29.0135H3.09012V24.2043ZM6.64748 5.83557C6.64748 5.69529 6.76077 5.58114 6.89998 5.58114H15.0869V7.77934H6.64748V5.83557ZM3.34277 9.0195H15.0872V11.1983H7.47034C7.13057 11.1983 6.85511 11.4759 6.85511 11.8183C6.85511 12.1607 7.13057 12.4383 7.47034 12.4383H15.0872V16.9162H3.09012V12.4383H4.60507C4.94484 12.4383 5.2203 12.1607 5.2203 11.8183C5.2203 11.4759 4.94484 11.1983 4.60507 11.1983H3.09012V9.27326C3.09012 9.1334 3.20348 9.0195 3.34277 9.0195ZM3.09012 30.2535H10.5913V34.737H3.09012V30.2535ZM1.48312 38.76C1.34384 38.76 1.23047 38.6459 1.23047 38.5054V36.2314C1.23047 36.0911 1.34384 35.9768 1.48312 35.9768H10.5913V38.76H1.48312Z" fill="#0E121D"/>
<path d="M14.2767 22.2384C14.6165 22.2384 14.8919 21.9608 14.8919 21.6184V20.2928C14.8919 19.9504 14.6165 19.6729 14.2767 19.6729C13.9369 19.6729 13.6615 19.9504 13.6615 20.2928V21.6184C13.6615 21.9608 13.9368 22.2384 14.2767 22.2384Z" fill="#0E121D"/>
<path d="M17.1048 22.2384C17.4446 22.2384 17.7201 21.9608 17.7201 21.6184V20.2928C17.7201 19.9504 17.4446 19.6729 17.1048 19.6729C16.7651 19.6729 16.4896 19.9504 16.4896 20.2928V21.6184C16.4896 21.9608 16.7651 22.2384 17.1048 22.2384Z" fill="#0E121D"/>
<path d="M14.2767 26.87C14.6165 26.87 14.8919 26.5924 14.8919 26.25V24.9244C14.8919 24.582 14.6165 24.3044 14.2767 24.3044C13.9369 24.3044 13.6615 24.582 13.6615 24.9244V26.25C13.6615 26.5924 13.9368 26.87 14.2767 26.87Z" fill="#0E121D"/>
<path d="M17.1048 26.87C17.4446 26.87 17.7201 26.5924 17.7201 26.25V24.9244C17.7201 24.582 17.4446 24.3044 17.1048 24.3044C16.7651 24.3044 16.4896 24.582 16.4896 24.9244V26.25C16.4896 26.5924 16.7651 26.87 17.1048 26.87Z" fill="#0E121D"/>
<path d="M14.2767 31.5018C14.6165 31.5018 14.8919 31.2242 14.8919 30.8819V29.5562C14.8919 29.2139 14.6165 28.9363 14.2767 28.9363C13.9369 28.9363 13.6615 29.2139 13.6615 29.5562V30.8819C13.6615 31.2242 13.9368 31.5018 14.2767 31.5018Z" fill="#0E121D"/>
<path d="M17.1048 31.5018C17.4446 31.5018 17.7201 31.2242 17.7201 30.8819V29.5562C17.7201 29.2139 17.4446 28.9363 17.1048 28.9363C16.7651 28.9363 16.4896 29.2139 16.4896 29.5562V30.8819C16.4896 31.2242 16.7651 31.5018 17.1048 31.5018Z" fill="#0E121D"/>
<path d="M14.2767 36.1337C14.6165 36.1337 14.8919 35.8561 14.8919 35.5137V34.1881C14.8919 33.8457 14.6165 33.5681 14.2767 33.5681C13.9369 33.5681 13.6615 33.8457 13.6615 34.1881V35.5137C13.6615 35.8561 13.9368 36.1337 14.2767 36.1337Z" fill="#0E121D"/>
<path d="M17.1048 36.1337C17.4446 36.1337 17.7201 35.8561 17.7201 35.5137V34.1881C17.7201 33.8457 17.4446 33.5681 17.1048 33.5681C16.7651 33.5681 16.4896 33.8457 16.4896 34.1881V35.5137C16.4896 35.8561 16.7651 36.1337 17.1048 36.1337Z" fill="#0E121D"/>
</svg>
