<svg width="42" height="40" viewBox="0 0 42 40" fill="none" xmlns="http://www.w3.org/2000/svg">
<path d="M33.8708 6.0001H6.70643C6.53928 5.19 6.07223 4.46992 5.39595 3.97964C4.71966 3.48937 3.8824 3.26389 3.04669 3.34696C2.21097 3.43004 1.43644 3.81575 0.873445 4.42921C0.310449 5.04268 -0.000842452 5.84013 1.71242e-06 6.66677V29.3334C0.000898403 30.2172 0.358039 31.0646 0.993046 31.6895C1.62805 32.3144 2.48905 32.6659 3.38709 32.6668H33.8708C34.0505 32.6668 34.2228 32.5965 34.3498 32.4715C34.4769 32.3465 34.5483 32.1769 34.5483 32.0001V6.66677C34.5483 6.48996 34.4769 6.32039 34.3498 6.19536C34.2228 6.07034 34.0505 6.0001 33.8708 6.0001ZM1.35484 6.66677C1.35484 6.13634 1.56895 5.62763 1.95007 5.25256C2.33119 4.87748 2.8481 4.66677 3.38709 4.66677C3.92607 4.66677 4.44298 4.87748 4.8241 5.25256C5.20522 5.62763 5.41934 6.13634 5.41934 6.66677V26.0018C4.83349 25.568 4.12022 25.3334 3.38709 25.3334C2.65395 25.3334 1.94068 25.568 1.35484 26.0018V6.66677ZM33.1934 31.3334H3.38709C2.84832 31.3327 2.33183 31.1218 1.95086 30.7469C1.56989 30.372 1.35555 29.8637 1.35484 29.3334V28.6668C1.35484 28.1363 1.56895 27.6276 1.95007 27.2526C2.33119 26.8775 2.8481 26.6668 3.38709 26.6668C3.92607 26.6668 4.44298 26.8775 4.8241 27.2526C5.20522 27.6276 5.41934 28.1363 5.41934 28.6668C5.41934 28.8436 5.49071 29.0131 5.61775 29.1382C5.74479 29.2632 5.91709 29.3334 6.09675 29.3334C6.27641 29.3334 6.44872 29.2632 6.57576 29.1382C6.7028 29.0131 6.77417 28.8436 6.77417 28.6668V7.33344H33.1934V31.3334Z" fill="#0E121D"/>
<path d="M41.3226 18.6667H37.2581C37.0784 18.6667 36.9061 18.737 36.7791 18.862C36.652 18.987 36.5806 19.1566 36.5806 19.3334V34.6667H18.2904C18.1107 34.6667 17.9384 34.737 17.8114 34.862C17.6843 34.987 17.613 35.1566 17.613 35.3334V39.3334C17.613 39.5102 17.6843 39.6798 17.8114 39.8048C17.9384 39.9298 18.1107 40.0001 18.2904 40.0001H41.3226C41.5022 40.0001 41.6745 39.9298 41.8016 39.8048C41.9286 39.6798 42 39.5102 42 39.3334V19.3334C42 19.1566 41.9286 18.987 41.8016 18.862C41.6745 18.737 41.5022 18.6667 41.3226 18.6667ZM40.6451 38.6667H18.9678V36.0001H20.3226V36.6667C20.3226 36.8436 20.394 37.0131 20.5211 37.1382C20.6481 37.2632 20.8204 37.3334 21.0001 37.3334C21.1797 37.3334 21.352 37.2632 21.4791 37.1382C21.6061 37.0131 21.6775 36.8436 21.6775 36.6667V36.0001H22.3549V36.6667C22.3549 36.8436 22.4263 37.0131 22.5533 37.1382C22.6803 37.2632 22.8526 37.3334 23.0323 37.3334C23.212 37.3334 23.3843 37.2632 23.5113 37.1382C23.6384 37.0131 23.7097 36.8436 23.7097 36.6667V36.0001H24.3871V36.6667C24.3871 36.8436 24.4585 37.0131 24.5856 37.1382C24.7126 37.2632 24.8849 37.3334 25.0646 37.3334C25.2442 37.3334 25.4165 37.2632 25.5436 37.1382C25.6706 37.0131 25.742 36.8436 25.742 36.6667V36.0001H26.4194V36.6667C26.4194 36.8436 26.4908 37.0131 26.6178 37.1382C26.7448 37.2632 26.9171 37.3334 27.0968 37.3334C27.2765 37.3334 27.4488 37.2632 27.5758 37.1382C27.7029 37.0131 27.7742 36.8436 27.7742 36.6667V36.0001H28.4516V36.6667C28.4516 36.8436 28.523 37.0131 28.6501 37.1382C28.7771 37.2632 28.9494 37.3334 29.1291 37.3334C29.3087 37.3334 29.481 37.2632 29.6081 37.1382C29.7351 37.0131 29.8065 36.8436 29.8065 36.6667V36.0001H30.4839V36.6667C30.4839 36.8436 30.5553 37.0131 30.6823 37.1382C30.8093 37.2632 30.9816 37.3334 31.1613 37.3334C31.341 37.3334 31.5133 37.2632 31.6403 37.1382C31.7674 37.0131 31.8387 36.8436 31.8387 36.6667V36.0001H32.5161V36.6667C32.5161 36.8436 32.5875 37.0131 32.7146 37.1382C32.8416 37.2632 33.0139 37.3334 33.1936 37.3334C33.3732 37.3334 33.5455 37.2632 33.6726 37.1382C33.7996 37.0131 33.871 36.8436 33.871 36.6667V36.0001H34.5484V36.6667C34.5484 36.8436 34.6198 37.0131 34.7468 37.1382C34.8738 37.2632 35.0462 37.3334 35.2258 37.3334C35.4055 37.3334 35.5778 37.2632 35.7048 37.1382C35.8319 37.0131 35.9032 36.8436 35.9032 36.6667V36.0001H40.6451V38.6667ZM40.6451 34.6667H37.9355V20.0001H40.6451V34.6667Z" fill="#0E121D"/>
<path d="M39.2902 38.0001C39.6643 38.0001 39.9676 37.7016 39.9676 37.3334C39.9676 36.9652 39.6643 36.6667 39.2902 36.6667C38.9161 36.6667 38.6128 36.9652 38.6128 37.3334C38.6128 37.7016 38.9161 38.0001 39.2902 38.0001Z" fill="#0E121D"/>
<path d="M8.59236 2.6325L12.6569 3.96583C12.726 3.98843 12.7983 3.99997 12.8711 4H32.8549C33.3039 3.99949 33.7343 3.82374 34.0518 3.51128C34.3693 3.19883 34.5479 2.77521 34.5484 2.33333V1.66667C34.5479 1.22479 34.3693 0.801166 34.0518 0.488716C33.7343 0.176265 33.3039 0.000507278 32.8549 0H12.8711C12.7983 3.03939e-05 12.726 0.0115661 12.6569 0.0341667L8.59236 1.3675C8.45745 1.41173 8.3401 1.49661 8.25694 1.61014C8.17378 1.72366 8.12903 1.86005 8.12903 2C8.12903 2.13995 8.17378 2.27634 8.25694 2.38986C8.3401 2.50339 8.45745 2.58827 8.59236 2.6325ZM31.8388 1.33333H32.8549C32.9447 1.33333 33.0309 1.36845 33.0944 1.43096C33.1579 1.49348 33.1936 1.57826 33.1936 1.66667V2.33333C33.1936 2.42174 33.1579 2.50652 33.0944 2.56904C33.0309 2.63155 32.9447 2.66667 32.8549 2.66667H31.8388V1.33333ZM29.8065 1.33333H30.4839V2.66667H29.8065V1.33333ZM14.9033 1.33333H28.4517V2.66667H14.9033V1.33333ZM12.9812 1.33333H13.5485V2.66667H12.9812L10.9489 2L12.9812 1.33333Z" fill="#0E121D"/>
<path d="M8.80645 30.0001H25.0644C25.2441 30.0001 25.4164 29.9298 25.5435 29.8048C25.6705 29.6798 25.7419 29.5102 25.7419 29.3334V21.3334C25.7419 21.1566 25.6705 20.987 25.5435 20.862C25.4164 20.737 25.2441 20.6667 25.0644 20.6667H17.6129V13.3334C17.6129 13.1566 17.5415 12.987 17.4145 12.862C17.2874 12.737 17.1151 12.6667 16.9354 12.6667H8.80645C8.62678 12.6667 8.45448 12.737 8.32744 12.862C8.2004 12.987 8.12903 13.1566 8.12903 13.3334V29.3334C8.12903 29.5102 8.2004 29.6798 8.32744 29.8048C8.45448 29.9298 8.62678 30.0001 8.80645 30.0001ZM9.48386 22.0001H11.5161C11.6958 22.0001 11.8681 21.9298 11.9951 21.8048C12.1222 21.6798 12.1935 21.5102 12.1935 21.3334C12.1935 21.1566 12.1222 20.987 11.9951 20.862C11.8681 20.737 11.6958 20.6667 11.5161 20.6667H9.48386V14.0001H16.258V20.6667H14.2258C14.0461 20.6667 13.8738 20.737 13.7468 20.862C13.6197 20.987 13.5484 21.1566 13.5484 21.3334C13.5484 21.5102 13.6197 21.6798 13.7468 21.8048C13.8738 21.9298 14.0461 22.0001 14.2258 22.0001H16.258V24.0001C16.258 24.1769 16.3294 24.3465 16.4564 24.4715C16.5835 24.5965 16.7558 24.6667 16.9354 24.6667C17.1151 24.6667 17.2874 24.5965 17.4145 24.4715C17.5415 24.3465 17.6129 24.1769 17.6129 24.0001V22.0001H24.387V28.6667H17.6129V26.6667C17.6129 26.4899 17.5415 26.3204 17.4145 26.1953C17.2874 26.0703 17.1151 26.0001 16.9354 26.0001C16.7558 26.0001 16.5835 26.0703 16.4564 26.1953C16.3294 26.3204 16.258 26.4899 16.258 26.6667V28.6667H9.48386V22.0001Z" fill="#0E121D"/>
<path d="M19.6449 10.0001H31.161C31.3407 10.0001 31.513 9.92984 31.64 9.80482C31.7671 9.6798 31.8384 9.51023 31.8384 9.33341C31.8384 9.1566 31.7671 8.98703 31.64 8.86201C31.513 8.73699 31.3407 8.66675 31.161 8.66675H19.6449C19.4653 8.66675 19.293 8.73699 19.1659 8.86201C19.0389 8.98703 18.9675 9.1566 18.9675 9.33341C18.9675 9.51023 19.0389 9.6798 19.1659 9.80482C19.293 9.92984 19.4653 10.0001 19.6449 10.0001Z" fill="#0E121D"/>
<path d="M19.6449 12.0001H31.161C31.3407 12.0001 31.513 11.9298 31.64 11.8048C31.7671 11.6798 31.8384 11.5102 31.8384 11.3334C31.8384 11.1566 31.7671 10.987 31.64 10.862C31.513 10.737 31.3407 10.6667 31.161 10.6667H19.6449C19.4653 10.6667 19.293 10.737 19.1659 10.862C19.0389 10.987 18.9675 11.1566 18.9675 11.3334C18.9675 11.5102 19.0389 11.6798 19.1659 11.8048C19.293 11.9298 19.4653 12.0001 19.6449 12.0001Z" fill="#0E121D"/>
<path d="M19.6449 14.0001H25.7417C25.9214 14.0001 26.0937 13.9298 26.2207 13.8048C26.3477 13.6798 26.4191 13.5102 26.4191 13.3334C26.4191 13.1566 26.3477 12.987 26.2207 12.862C26.0937 12.737 25.9214 12.6667 25.7417 12.6667H19.6449C19.4653 12.6667 19.293 12.737 19.1659 12.862C19.0389 12.987 18.9675 13.1566 18.9675 13.3334C18.9675 13.5102 19.0389 13.6798 19.1659 13.8048C19.293 13.9298 19.4653 14.0001 19.6449 14.0001Z" fill="#0E121D"/>
<path d="M19.6449 16.6666H31.161C31.3407 16.6666 31.513 16.5963 31.64 16.4713C31.7671 16.3463 31.8384 16.1767 31.8384 15.9999C31.8384 15.8231 31.7671 15.6535 31.64 15.5285C31.513 15.4035 31.3407 15.3333 31.161 15.3333H19.6449C19.4653 15.3333 19.293 15.4035 19.1659 15.5285C19.0389 15.6535 18.9675 15.8231 18.9675 15.9999C18.9675 16.1767 19.0389 16.3463 19.1659 16.4713C19.293 16.5963 19.4653 16.6666 19.6449 16.6666Z" fill="#0E121D"/>
<path d="M19.6449 18.6666H25.7417C25.9214 18.6666 26.0937 18.5963 26.2207 18.4713C26.3477 18.3463 26.4191 18.1767 26.4191 17.9999C26.4191 17.8231 26.3477 17.6535 26.2207 17.5285C26.0937 17.4035 25.9214 17.3333 25.7417 17.3333H19.6449C19.4653 17.3333 19.293 17.4035 19.1659 17.5285C19.0389 17.6535 18.9675 17.8231 18.9675 17.9999C18.9675 18.1767 19.0389 18.3463 19.1659 18.4713C19.293 18.5963 19.4653 18.6666 19.6449 18.6666Z" fill="#0E121D"/>
</svg>
