<svg width="50" height="50" viewBox="0 0 50 50" fill="none" xmlns="http://www.w3.org/2000/svg">
<g clip-path="url(#clip0_7943_94)">
<path d="M46.6242 26.3332C47.0583 19.3653 44.1056 12.6156 38.6938 8.20496C33.2821 3.79431 26.0755 2.26402 19.3384 4.09491C18.9065 4.22618 18.6576 4.67743 18.7771 5.11273C18.8965 5.54803 19.3408 5.8091 19.7792 5.70158C25.9927 4.01473 32.6384 5.4247 37.6316 9.48925C42.6249 13.5538 45.3542 19.775 44.9634 26.2016C44.8848 27.4584 44.6895 28.7051 44.38 29.9257L43.34 26.8516C43.1925 26.4144 42.7185 26.1795 42.2813 26.327C41.844 26.4745 41.6092 26.9485 41.7567 27.3857L43.6834 33.0774C43.7726 33.3413 43.9878 33.5431 44.2569 33.6152C44.5259 33.6874 44.8132 33.6204 45.0225 33.4366L49.5359 29.4699C49.7745 29.2777 49.8884 28.9701 49.8325 28.6688C49.7765 28.3676 49.5598 28.1213 49.2681 28.0276C48.9764 27.9338 48.6568 28.0077 48.4359 28.2199L45.9817 30.3774C46.3243 29.0529 46.5395 27.6987 46.6242 26.3332Z" fill="#FF5E14"/>
<path d="M40.8334 24.9998C40.8334 16.2553 33.7445 9.1665 25 9.1665C16.2555 9.1665 9.16669 16.2553 9.16669 24.9998C9.16669 33.7443 16.2555 40.8332 25 40.8332C33.7405 40.8235 40.8237 33.7404 40.8334 24.9998ZM10.8759 25.8332H15.8567C15.9066 27.9685 16.2226 30.0894 16.7975 32.1465C15.7316 32.5129 14.704 32.9823 13.7292 33.5482C12.031 31.3181 11.0374 28.6316 10.8759 25.8332ZM13.7292 16.4515C14.7039 17.0175 15.7315 17.487 16.7975 17.8532C16.2226 19.9103 15.9066 22.0311 15.8567 24.1665H10.8759C11.0374 21.3681 12.031 18.6816 13.7292 16.4515ZM39.1242 24.1665H34.1434C34.0934 22.0311 33.7774 19.9103 33.2026 17.8532C34.2685 17.487 35.2962 17.0175 36.2709 16.4515C37.9691 18.6816 38.9626 21.3681 39.1242 24.1665ZM32.4767 24.1665H25.8334V19.1407C27.7754 19.0922 29.7058 18.8259 31.5884 18.3465C32.1238 20.2423 32.4222 22.1973 32.4767 24.1665ZM25.8334 17.4748V10.9315C27.9517 11.3982 29.8334 13.614 31.0492 16.7648C29.3412 17.1888 27.5925 17.4268 25.8334 17.4748ZM24.1667 10.9315V17.4748C22.4077 17.4276 20.6589 17.1904 18.9509 16.7673C20.1709 13.614 22.0484 11.3982 24.1667 10.9315ZM24.1667 19.1407V24.1665H17.5234C17.5779 22.1973 17.8762 20.2423 18.4117 18.3465C20.2942 18.8259 22.2247 19.0922 24.1667 19.1407ZM17.5234 25.8332H24.1667V30.859C22.2247 30.9074 20.2942 31.1738 18.4117 31.6532C17.8762 29.7573 17.5779 27.8024 17.5234 25.8332ZM24.1667 32.5248V39.0682C22.0484 38.6015 20.1667 36.3857 18.9509 33.2348C20.6588 32.8109 22.4076 32.5729 24.1667 32.5248ZM25.8334 39.0682V32.5248C27.5924 32.572 29.3412 32.8092 31.0492 33.2323C29.8334 36.3857 27.9517 38.6015 25.8334 39.0682ZM25.8334 30.859V25.8332H32.4767C32.4222 27.8024 32.1238 29.7573 31.5884 31.6532C29.7058 31.1738 27.7754 30.9074 25.8334 30.859ZM34.1434 25.8332H39.1242C38.9626 28.6316 37.9691 31.3181 36.2709 33.5482C35.2961 32.9823 34.2684 32.5129 33.2026 32.1465C33.7774 30.0894 34.0934 27.9685 34.1434 25.8332ZM35.175 15.1665C34.3777 15.6042 33.5447 15.9735 32.685 16.2707C32.1039 14.6465 31.2412 13.1373 30.1367 11.8123C32.0378 12.5551 33.7563 13.6992 35.175 15.1665ZM19.8634 11.8115C18.7588 13.1365 17.8962 14.6457 17.315 16.2698C16.4554 15.973 15.6224 15.6039 14.825 15.1665C16.2437 13.6989 17.9622 12.5545 19.8634 11.8115ZM14.825 34.8332C15.6224 34.3955 16.4553 34.0261 17.315 33.729C17.8962 35.3532 18.7588 36.8623 19.8634 38.1873C17.9623 37.4446 16.2438 36.3005 14.825 34.8332ZM30.1367 38.1873C31.2412 36.8623 32.1039 35.3532 32.685 33.729C33.5447 34.0261 34.3777 34.3955 35.175 34.8332C33.7564 36.3008 32.0378 37.4443 30.1367 38.1873Z" fill="#FF5E14"/>
<path d="M1.66672 13.3333H11.6667C12.5872 13.3333 13.3334 12.5871 13.3334 11.6667C13.3297 9.42577 12.2033 7.33584 10.3334 6.10083C10.6564 5.50696 10.8281 4.84267 10.8334 4.16667C10.8334 1.86548 8.96791 0 6.66672 0C4.36553 0 2.50005 1.86548 2.50005 4.16667C2.50498 4.84668 2.67819 5.51489 3.00422 6.11167C1.11628 7.32545 -0.0176946 9.42228 5.27014e-05 11.6667C5.27014e-05 12.1087 0.175647 12.5326 0.488208 12.8452C0.800769 13.1577 1.22469 13.3333 1.66672 13.3333ZM6.66672 1.66667C8.04743 1.66667 9.16672 2.78595 9.16672 4.16667C9.16672 5.54738 8.04743 6.66667 6.66672 6.66667C5.28601 6.66667 4.16672 5.54738 4.16672 4.16667C4.16672 2.78595 5.28601 1.66667 6.66672 1.66667ZM3.13089 8.13083C3.41764 7.85171 3.73752 7.60879 4.08339 7.4075C5.58721 8.64462 7.75623 8.64462 9.26005 7.4075C10.7495 8.31103 11.6612 9.92463 11.6667 11.6667H1.66672C1.66296 10.3398 2.19019 9.0666 3.13089 8.13083Z" fill="#FF5E14"/>
<path d="M47 42.7673C47.323 42.1735 47.4947 41.5092 47.5 40.8332C47.5 38.532 45.6345 36.6665 43.3333 36.6665C41.0322 36.6665 39.1667 38.532 39.1667 40.8332C39.1703 41.5128 39.3421 42.181 39.6667 42.7782C37.7803 43.9929 36.648 46.0896 36.6667 48.3332C36.6667 49.2536 37.4129 49.9998 38.3333 49.9998H48.3333C49.2538 49.9998 50 49.2536 50 48.3332C49.9963 46.0923 48.8699 44.0023 47 42.7673ZM43.3333 38.3332C44.714 38.3332 45.8333 39.4525 45.8333 40.8332C45.8333 42.2139 44.714 43.3332 43.3333 43.3332C41.9526 43.3332 40.8333 42.2139 40.8333 40.8332C40.8333 39.4525 41.9526 38.3332 43.3333 38.3332ZM38.3333 48.3332C38.3296 47.0063 38.8568 45.7331 39.7975 44.7973C40.0835 44.5184 40.4025 44.2755 40.7475 44.074C42.2523 45.3099 44.4213 45.3082 45.9242 44.0698C47.4158 44.9735 48.3288 46.5892 48.3333 48.3332H38.3333Z" fill="#FF5E14"/>
<path d="M19.3925 45.9283C23.0844 46.9206 26.9739 46.9126 30.6617 45.905C31.0936 45.7737 31.3424 45.3224 31.223 44.8871C31.1035 44.4518 30.6592 44.1908 30.2208 44.2983C24.0004 45.9873 17.3471 44.572 12.3526 40.4975C7.35806 36.423 4.63554 30.1896 5.04084 23.7566C5.11713 22.515 5.31105 21.2833 5.62001 20.0783L6.66001 23.1525C6.80751 23.5897 7.28153 23.8245 7.71876 23.677C8.15598 23.5295 8.39085 23.0555 8.24334 22.6183L6.31667 16.9266C6.2274 16.6628 6.01221 16.461 5.74317 16.3888C5.47413 16.3167 5.18683 16.3837 4.97751 16.5675L0.460008 20.5341C0.22139 20.7263 0.107485 21.034 0.163399 21.3352C0.219314 21.6364 0.436029 21.8827 0.727723 21.9765C1.01942 22.0702 1.33904 21.9964 1.56001 21.7841L4.01417 19.6266C3.67629 20.9351 3.46367 22.2728 3.37917 23.6216C2.74288 33.9163 9.43505 43.2386 19.3925 45.9283Z" fill="#FF5E14"/>
</g>
<defs>
<clipPath id="clip0_7943_94">
<rect width="50" height="50" fill="white"/>
</clipPath>
</defs>
</svg>
