<svg width="50" height="50" viewBox="0 0 50 50" fill="none" xmlns="http://www.w3.org/2000/svg">
<g clip-path="url(#clip0_7943_76)">
<path d="M32.4694 36.1777L31.7618 32.053C31.6849 31.6043 31.2589 31.3028 30.8102 31.3801C30.3615 31.457 30.0602 31.8831 30.1373 32.3317L30.5625 34.8105L25.3834 32.0878C25.1432 31.9616 24.8564 31.9616 24.6164 32.0878L19.4374 34.8106L20.4265 29.0436C20.4724 28.7762 20.3837 28.5034 20.1895 28.3141L15.9996 24.2299L21.7898 23.3885C22.2404 23.323 22.5524 22.9049 22.487 22.4543C22.4216 22.0037 22.0019 21.6917 21.5529 21.7572L14.11 22.8388C13.7996 22.8838 13.5416 23.1013 13.4446 23.3996C13.3477 23.698 13.4286 24.0256 13.6531 24.2445L18.7286 29.1919L17.5306 36.1778C17.4775 36.4869 17.6046 36.7995 17.8584 36.9839C18.1121 37.1682 18.4485 37.1926 18.7263 37.0467L24.9999 33.7483L31.2736 37.0467C31.3944 37.11 31.5261 37.1412 31.6571 37.1412C31.8281 37.1412 31.9981 37.0881 32.1416 36.9837C32.3954 36.7993 32.5225 36.4868 32.4694 36.1777Z" fill="#FF5E14"/>
<path d="M36.5552 23.3994C36.4583 23.1011 36.2003 22.8836 35.8897 22.8386L28.8756 21.8193L25.7388 15.4634C25.5999 15.182 25.3134 15.0039 24.9996 15.0039C24.6858 15.0039 24.3994 15.182 24.2604 15.4634L22.3958 19.2415C22.1948 19.6495 22.3624 20.1438 22.7705 20.3451C23.1789 20.5469 23.6729 20.379 23.8743 19.9708L24.9998 17.6902L27.5892 22.9372C27.7094 23.1804 27.9413 23.3491 28.2098 23.3881L34.0001 24.2295L29.81 28.3137C29.4841 28.6313 29.4775 29.1532 29.7951 29.4791C29.9567 29.6448 30.1709 29.728 30.3854 29.728C30.5928 29.728 30.8004 29.6502 30.9606 29.494L36.3465 24.2442C36.5713 24.0253 36.652 23.6979 36.5552 23.3994Z" fill="#FF5E14"/>
<path d="M21.5421 43.4395C18.7669 42.8112 16.1834 41.4476 14.0567 39.5186C13.7906 39.2246 13.4817 38.9146 13.1321 38.6139C12.7916 38.2543 12.4653 37.879 12.1555 37.4884C10.7073 35.6628 9.64854 33.551 9.03067 31.305C8.97774 31.0514 8.91261 30.7858 8.83302 30.5137C8.54698 29.2475 8.39845 27.9457 8.39845 26.6335C8.39845 22.4599 9.87296 18.4345 12.5503 15.2988C12.5875 15.2552 12.6194 15.2088 12.646 15.1604C12.6483 15.1598 12.6504 15.1594 12.6526 15.1586C13.6603 14.8337 16.1283 13.8369 17.2832 11.6053C18.4348 9.37967 17.8506 6.74911 17.546 5.72127C17.4624 5.43934 17.2641 5.19832 17.0016 5.05995C16.741 4.92245 16.4325 4.89491 16.1551 4.98416C15.1475 5.30907 12.6794 6.30575 11.5245 8.53748C10.4126 10.6864 10.919 13.2125 11.2293 14.3092C10.3341 15.3696 9.56329 16.5209 8.92618 17.7403C8.83507 17.0722 8.6504 16.3916 8.32589 15.7422C7.93185 14.9533 6.67189 13.0038 3.4923 11.9424C3.21251 11.8488 2.89972 11.8734 2.6339 12.0097C2.36564 12.1469 2.16095 12.3889 2.07228 12.6736C1.73429 13.7563 1.0753 16.5295 2.2547 18.89C2.64874 19.6788 3.9087 21.6282 7.08849 22.6898C7.11017 22.6971 7.13204 22.7029 7.15401 22.7088C6.8879 23.9902 6.7503 25.3049 6.7503 26.6334C6.7503 26.781 6.75235 26.9287 6.75577 27.0761C5.98644 26.4183 4.16876 25.2436 1.08097 25.3384C0.786339 25.3474 0.50128 25.4787 0.298741 25.6983C0.0946396 25.9199 -0.0137588 26.2179 0.00147555 26.5156C0.0587021 27.6483 0.399425 30.4783 2.32198 32.2854C2.94191 32.8679 4.69044 34.1847 7.82042 34.1847C7.93556 34.1847 8.05274 34.183 8.17149 34.1794C8.21036 34.1782 8.24923 34.1745 8.28761 34.1691C8.69376 35.1242 9.17667 36.0456 9.73341 36.922C8.74718 36.7646 6.56427 36.7052 3.96358 38.4318C3.71798 38.5948 3.54483 38.8565 3.48849 39.15C3.43175 39.4458 3.49669 39.7561 3.66671 40.0015C4.31251 40.934 6.09405 43.1592 8.68009 43.681C8.94317 43.7342 9.33976 43.79 9.84337 43.79C10.9953 43.7899 12.7062 43.4971 14.6492 42.2069C14.6728 42.1913 14.695 42.1739 14.7173 42.1566C16.6632 43.531 18.8592 44.5223 21.1779 45.0472C21.2393 45.0611 21.3004 45.0677 21.3607 45.0677C21.7371 45.0677 22.0772 44.808 22.1638 44.4254C22.2646 43.9814 21.986 43.5401 21.5421 43.4395ZM12.9885 9.2951C13.7037 7.91278 15.2077 7.12245 16.1105 6.75467C16.3244 7.72362 16.5406 9.4534 15.8192 10.8476C15.104 12.23 13.6 13.0203 12.6973 13.3881C12.4833 12.4191 12.2671 10.6894 12.9885 9.2951ZM7.08351 20.9291C6.13243 20.5375 4.4878 19.6719 3.72921 18.1534C2.9629 16.6196 3.24874 14.7239 3.49737 13.7032C4.44835 14.0948 6.09298 14.9603 6.85157 16.4789V16.479C7.61769 18.0126 7.33185 19.9086 7.08351 20.9291ZM3.45089 31.0843C2.20157 29.9099 1.81427 28.0325 1.69444 26.9887C2.72237 27.0273 4.56476 27.2709 5.80157 28.4333C6.5547 29.141 6.99308 30.1036 7.25001 30.9859C7.3002 31.2019 7.3547 31.4169 7.41222 31.6309C7.48272 31.9652 7.52862 32.2723 7.55802 32.5289C6.53009 32.4902 4.68761 32.2466 3.45089 31.0843ZM9.00665 42.0653C7.32618 41.7262 6.00724 40.3347 5.35509 39.511C6.24894 39.002 7.94278 38.2375 9.60665 38.5735C10.5414 38.7622 11.3639 39.2767 12.0225 39.8378C12.2942 40.1209 12.5742 40.3948 12.8622 40.6592C13.0125 40.8265 13.1459 40.9858 13.2584 41.1277C12.3646 41.6368 10.6711 42.401 9.00665 42.0653Z" fill="#FF5E14"/>
<path d="M49.701 25.6979C49.4984 25.4783 49.2135 25.3472 48.9191 25.3382C45.8316 25.2435 44.0135 26.4184 43.2441 27.076C43.2476 26.9286 43.2496 26.781 43.2496 26.6332C43.2496 25.3046 43.1119 23.99 42.8459 22.7086C42.8679 22.7027 42.8897 22.6969 42.9113 22.6896C46.0914 21.6279 47.3513 19.6786 47.7453 18.8898C48.9243 16.5297 48.2656 13.7564 47.9276 12.6733C47.8388 12.3884 47.6338 12.1465 47.3659 12.0094C47.1002 11.8735 46.7875 11.8489 46.5078 11.9422C43.3281 13.0036 42.0681 14.953 41.6739 15.742C41.3494 16.3914 41.1646 17.0719 41.0736 17.74C40.4366 16.5207 39.6658 15.3693 38.7707 14.3089C39.0811 13.2123 39.5875 10.6862 38.4755 8.53718C37.3206 6.30534 34.8525 5.30866 33.845 4.98386C33.5678 4.89431 33.2591 4.92194 32.9982 5.05964C32.7358 5.19812 32.5375 5.43933 32.4542 5.72097C32.1495 6.7487 31.5653 9.37917 32.7169 11.6049C33.8718 13.8366 36.3398 14.8332 37.3474 15.1582C37.3495 15.1589 37.3518 15.1592 37.354 15.16C37.3806 15.2084 37.4125 15.2549 37.4497 15.2985C40.127 18.4342 41.6016 22.4595 41.6016 26.6332C41.6016 27.9455 41.4531 29.2475 41.167 30.5137C41.0874 30.7856 41.0224 31.0509 40.9695 31.3042C40.3517 33.5505 39.2929 35.6624 37.8445 37.4881C37.5348 37.8785 37.2088 38.2536 36.8684 38.613C36.5183 38.9141 36.2089 39.2245 35.9427 39.5189C33.8162 41.4476 31.2329 42.8109 28.458 43.4392C28.0141 43.5398 27.7357 43.9811 27.8362 44.4251C27.9228 44.8077 28.2627 45.0674 28.6393 45.0674C28.6997 45.0674 28.7607 45.0606 28.8221 45.0469C31.1408 44.5219 33.3368 43.5306 35.2827 42.1563C35.3048 42.1737 35.3269 42.1909 35.3505 42.2065C37.2942 43.497 39.0046 43.7898 40.1565 43.7898C40.6599 43.7898 41.0567 43.7339 41.3196 43.6808C43.9062 43.1589 45.6874 40.9338 46.3332 40.0013C46.5032 39.7559 46.5682 39.4457 46.5114 39.1498C46.4551 38.8563 46.2819 38.5946 46.0366 38.4319C43.4359 36.7052 41.2527 36.7646 40.2666 36.9219C40.8233 36.0456 41.3062 35.124 41.7124 34.169C41.7509 34.1744 41.7895 34.178 41.8285 34.1793C41.9476 34.1829 42.0644 34.1846 42.1796 34.1846C45.3095 34.1846 47.0584 32.8677 47.678 32.2853C49.6008 30.4782 49.9415 27.6483 49.9987 26.5154C50.0136 26.2173 49.9052 25.9192 49.701 25.6979ZM37.3026 13.3878C36.3998 13.0201 34.8959 12.2298 34.1808 10.8474C33.4594 9.45329 33.6754 7.7236 33.8895 6.75446C34.7924 7.12214 36.2962 7.91247 37.0114 9.2948C37.7327 10.6889 37.5168 12.4186 37.3026 13.3878ZM40.3933 38.5733C42.0571 38.2377 43.751 39.0017 44.6449 39.5108C43.9931 40.3344 42.674 41.7259 40.9933 42.0651C39.3301 42.4005 37.6355 41.6367 36.7417 41.1276C36.8539 40.9858 36.9872 40.8266 37.1373 40.6594C37.4257 40.3946 37.706 40.1202 37.9783 39.8367C38.6366 39.276 39.4588 38.7619 40.3933 38.5733ZM43.1484 16.4787C43.9071 14.9601 45.5517 14.0946 46.5027 13.703C46.7511 14.7238 47.0369 16.6196 46.2709 18.1532C45.5123 19.6715 43.8678 20.5371 42.9166 20.9289C42.668 19.9084 42.3821 18.0126 43.1484 16.4787ZM46.549 31.0841C45.3122 32.2466 43.4698 32.49 42.4419 32.5287C42.4714 32.272 42.5173 31.9648 42.5879 31.6302C42.6452 31.4168 42.6996 31.2022 42.7498 30.9866C43.0066 30.1042 43.4452 29.1411 44.1986 28.4332C45.4354 27.2707 47.2777 27.0272 48.3058 26.9885C48.1857 28.0321 47.7984 29.9097 46.549 31.0841Z" fill="#FF5E14"/>
</g>
<defs>
<clipPath id="clip0_7943_76">
<rect width="50" height="50" fill="white"/>
</clipPath>
</defs>
</svg>
