<svg width="60" height="60" viewBox="0 0 60 60" fill="none" xmlns="http://www.w3.org/2000/svg">
<path d="M0.566406 16.0001H32.2645V17.1429H0.566406V16.0001Z" fill="#0E121D"/>
<path d="M16.415 13.7143H29.9999V14.8572H16.415V13.7143Z" fill="#0E121D"/>
<path d="M16.415 11.4286H29.9999V12.5714H16.415V11.4286Z" fill="#0E121D"/>
<path d="M7.35849 14.8571C11.4158 14.8571 14.717 11.5246 14.717 7.42857C14.717 3.33257 11.4158 0 7.35849 0C3.30113 0 0 3.33257 0 7.42857C0 11.5246 3.30113 14.8571 7.35849 14.8571ZM7.35849 1.14286C10.7921 1.14286 13.5849 3.96229 13.5849 7.42857C13.5849 10.8949 10.7921 13.7143 7.35849 13.7143C3.92491 13.7143 1.13208 10.8949 1.13208 7.42857C1.13208 3.96229 3.92491 1.14286 7.35849 1.14286Z" fill="#0E121D"/>
<path d="M7.35851 10.2858C8.91851 10.2858 10.1887 9.00347 10.1887 7.42862C10.1887 5.85376 8.91851 4.57147 7.35851 4.57147C5.79851 4.57147 4.52832 5.85376 4.52832 7.42862C4.52832 9.00347 5.79851 10.2858 7.35851 10.2858ZM7.35851 5.71433C8.29474 5.71433 9.05662 6.48347 9.05662 7.42862C9.05662 8.37376 8.29474 9.1429 7.35851 9.1429C6.42228 9.1429 5.6604 8.37376 5.6604 7.42862C5.6604 6.48347 6.42228 5.71433 7.35851 5.71433Z" fill="#0E121D"/>
<path d="M50.9435 0H40.7548V20.5714H31.6982V26.2857H60.0001V20.5714H50.9435V0ZM58.8681 21.7143V25.1429H32.8303V21.7143H41.8869V1.14286H49.8115V21.7143H58.8681Z" fill="#0E121D"/>
<path d="M31.6982 58.2857H33.9624V60H35.0945V58.2857H56.6039V60H57.736V58.2857H60.0001V38.8572H31.6982V58.2857ZM32.8303 40H58.8681V57.1429H32.8303V40Z" fill="#0E121D"/>
<path d="M36.2266 53.7142H55.4718V43.4285H36.2266V53.7142ZM37.3586 44.5714H54.3398V52.5714H37.3586V44.5714Z" fill="#0E121D"/>
<path d="M7.3584 48H9.62255V49.1429H7.3584V48Z" fill="#0E121D"/>
<path d="M18.6797 48H20.9438V49.1429H18.6797V48Z" fill="#0E121D"/>
<path d="M16.8159 37.5475L16.0155 36.7395L14.717 38.0492V28.0001H13.5849V38.0492L12.2875 36.7395L11.4872 37.5475L12.7845 38.8572H0V58.2858H2.26415V60.0001H3.39623V58.2858H24.9057V60.0001H26.0377V58.2858H28.3019V38.8572H15.5174L16.8159 37.5475ZM1.13208 40.0001H13.5849V57.1429H1.13208V40.0001ZM27.1698 57.1429H14.717V40.0001H27.1698V57.1429Z" fill="#0E121D"/>
</svg>
