<svg width="60" height="60" viewBox="0 0 60 60" fill="none" xmlns="http://www.w3.org/2000/svg">
<path d="M16.875 14.5311C16.8744 14.034 16.6767 13.5574 16.3252 13.2059C15.9737 12.8544 15.4971 12.6567 15 12.6561H11.25C10.7529 12.6567 10.2763 12.8544 9.9248 13.2059C9.5733 13.5574 9.37557 14.034 9.375 14.5311V17.3436C9.37557 17.8407 9.5733 18.3173 9.9248 18.6688C10.2763 19.0203 10.7529 19.2181 11.25 19.2186H15C15.4971 19.2181 15.9737 19.0203 16.3252 18.6688C16.6767 18.3173 16.8744 17.8407 16.875 17.3436V14.5311ZM11.25 17.3436V14.5311H15L15.0009 17.3436H11.25Z" fill="#0E121D"/>
<path d="M28.125 14.5311C28.1244 14.034 27.9267 13.5574 27.5752 13.2059C27.2237 12.8544 26.7471 12.6567 26.25 12.6561H22.5C22.0029 12.6567 21.5263 12.8544 21.1748 13.2059C20.8233 13.5574 20.6256 14.034 20.625 14.5311V17.3436C20.6256 17.8407 20.8233 18.3173 21.1748 18.6688C21.5263 19.0203 22.0029 19.2181 22.5 19.2186H26.25C26.7471 19.2181 27.2237 19.0203 27.5752 18.6688C27.9267 18.3173 28.1244 17.8407 28.125 17.3436V14.5311ZM22.5 17.3436V14.5311H26.25L26.2509 17.3436H22.5Z" fill="#0E121D"/>
<path d="M16.875 22.9686C16.8744 22.4715 16.6767 21.9949 16.3252 21.6434C15.9737 21.2919 15.4971 21.0942 15 21.0936H11.25C10.7529 21.0942 10.2763 21.2919 9.9248 21.6434C9.5733 21.9949 9.37557 22.4715 9.375 22.9686V25.7811C9.37557 26.2782 9.5733 26.7548 9.9248 27.1063C10.2763 27.4578 10.7529 27.6556 11.25 27.6561H15C15.4971 27.6556 15.9737 27.4578 16.3252 27.1063C16.6767 26.7548 16.8744 26.2782 16.875 25.7811V22.9686ZM11.25 25.7811V22.9686H15L15.0009 25.7811H11.25Z" fill="#0E121D"/>
<path d="M28.125 22.9686C28.1244 22.4715 27.9267 21.9949 27.5752 21.6434C27.2237 21.2919 26.7471 21.0942 26.25 21.0936H22.5C22.0029 21.0942 21.5263 21.2919 21.1748 21.6434C20.8233 21.9949 20.6256 22.4715 20.625 22.9686V25.7811C20.6256 26.2782 20.8233 26.7548 21.1748 27.1063C21.5263 27.4578 22.0029 27.6556 22.5 27.6561H26.25C26.7471 27.6556 27.2237 27.4578 27.5752 27.1063C27.9267 26.7548 28.1244 26.2782 28.125 25.7811V22.9686ZM22.5 25.7811V22.9686H26.25L26.2509 25.7811H22.5Z" fill="#0E121D"/>
<path d="M15 29.5311H11.25C10.7529 29.5317 10.2763 29.7294 9.9248 30.0809C9.5733 30.4324 9.37557 30.909 9.375 31.4061V34.2186C9.37557 34.7157 9.5733 35.1923 9.9248 35.5438C10.2763 35.8953 10.7529 36.0931 11.25 36.0936H15C15.4971 36.0931 15.9737 35.8953 16.3252 35.5438C16.6767 35.1923 16.8744 34.7157 16.875 34.2186V31.4061C16.8744 30.909 16.6767 30.4324 16.3252 30.0809C15.9737 29.7294 15.4971 29.5317 15 29.5311ZM11.25 34.2186V31.4061H15L15.0009 34.2186H11.25Z" fill="#0E121D"/>
<path d="M26.25 29.5311H22.5C22.0029 29.5317 21.5263 29.7294 21.1748 30.0809C20.8233 30.4324 20.6256 30.909 20.625 31.4061V34.2186C20.6256 34.7157 20.8233 35.1923 21.1748 35.5438C21.5263 35.8953 22.0029 36.0931 22.5 36.0936H26.25C26.7471 36.0931 27.2237 35.8953 27.5752 35.5438C27.9267 35.1923 28.1244 34.7157 28.125 34.2186V31.4061C28.1244 30.909 27.9267 30.4324 27.5752 30.0809C27.2237 29.7294 26.7471 29.5317 26.25 29.5311ZM22.5 34.2186V31.4061H26.25L26.2509 34.2186H22.5Z" fill="#0E121D"/>
<path d="M58.1255 28.5936C58.1255 28.4705 58.1013 28.3486 58.0542 28.2348C58.0071 28.1211 57.938 28.0177 57.8509 27.9306C57.7639 27.8436 57.6605 27.7745 57.5468 27.7274C57.433 27.6803 57.3111 27.6561 57.188 27.6561H30.938C30.6918 27.6638 30.4578 27.7651 30.2836 27.9392C30.1094 28.1134 30.0082 28.3474 30.0005 28.5936V46.5393C29.3229 46.7157 28.7084 47.0787 28.2268 47.5868C27.7451 48.095 27.4156 48.7281 27.2757 49.4141C27.1358 50.1001 27.1911 50.8117 27.4352 51.4679C27.6794 52.1241 28.1027 52.6987 28.657 53.1264C29.2113 53.5541 29.8745 53.8178 30.5711 53.8875C31.2678 53.9573 31.9701 53.8303 32.5982 53.5209C33.2263 53.2116 33.7551 52.7323 34.1245 52.1375C34.4939 51.5427 34.6891 50.8563 34.688 50.1561C34.6833 49.9106 34.5825 49.6766 34.4072 49.5046C34.2318 49.3326 33.996 49.2363 33.7504 49.2363C33.5048 49.2363 33.269 49.3327 33.0937 49.5047C32.9184 49.6767 32.8176 49.9106 32.813 50.1562C32.813 50.527 32.703 50.8895 32.4969 51.1979C32.2909 51.5062 31.9981 51.7465 31.6555 51.8884C31.3128 52.0303 30.9358 52.0674 30.5721 51.9951C30.2084 51.9227 29.8743 51.7442 29.6121 51.4819C29.3499 51.2197 29.1713 50.8856 29.099 50.5219C29.0266 50.1582 29.0638 49.7812 29.2057 49.4386C29.3476 49.096 29.5879 48.8031 29.8963 48.5971C30.2046 48.3911 30.5671 48.2811 30.938 48.2811C31.0611 48.2812 31.183 48.2569 31.2968 48.2098C31.4105 48.1627 31.5139 48.0937 31.601 48.0066C31.688 47.9196 31.7571 47.8162 31.8042 47.7024C31.8513 47.5887 31.8755 47.4668 31.8755 47.3436V35.1561H47.2468C47.2468 35.1561 43.17 53.7716 43.1694 53.9061H40.313C40.0676 53.911 39.8339 54.012 39.6621 54.1873C39.4903 54.3626 39.3941 54.5982 39.3941 54.8437C39.3941 55.0891 39.4903 55.3248 39.6621 55.5C39.8339 55.6753 40.0676 55.7762 40.313 55.7811H57.188C57.3204 55.7779 57.4508 55.747 57.5705 55.6903C57.6903 55.6337 57.7969 55.5526 57.8835 55.4523C57.9701 55.3519 58.0347 55.2346 58.0731 55.1078C58.1116 54.981 58.1231 54.8475 58.1069 54.716C58.0906 54.5845 58.0471 54.4578 57.9789 54.3442C57.9108 54.2305 57.8196 54.1324 57.7113 54.0561C57.6029 53.9798 57.4798 53.9271 57.3499 53.9012C57.2199 53.8754 57.086 53.8771 56.9567 53.9061C56.9561 53.7734 52.879 35.1561 52.879 35.1561H57.188C57.4341 35.1483 57.668 35.047 57.8422 34.8728C58.0163 34.6987 58.1176 34.4648 58.1255 34.2186V28.5936ZM56.2505 31.8416L54.0927 29.5311H56.2505V31.8416ZM48.8395 33.2811L51.9346 29.9674L55.0298 33.2811H48.8395ZM41.4317 29.9678L44.5239 33.2811H38.3421L41.4317 29.9678ZM36.1857 32.8444L33.0948 29.5311H39.2754L36.1857 32.8444ZM43.5891 29.5311H49.7765L46.6814 32.8449L43.5891 29.5311ZM31.8755 30.973L34.0288 33.2811H31.8755V30.973ZM55.0877 53.9061C53.3072 53.9054 46.8709 53.9135 45.0454 53.9061L49.1664 35.1561H50.9596L55.0877 53.9061Z" fill="#0E121D"/>
<path d="M27.6938 46.4061C27.6938 46.283 27.6696 46.1611 27.6225 46.0473C27.5753 45.9336 27.5063 45.8302 27.4192 45.7431C27.3322 45.6561 27.2288 45.587 27.1151 45.5399C27.0013 45.4928 26.8794 45.4686 26.7563 45.4686H23.4375V38.9061C23.4375 38.783 23.4133 38.6611 23.3662 38.5473C23.3191 38.4336 23.25 38.3302 23.163 38.2431C23.0759 38.1561 22.9726 38.087 22.8588 38.0399C22.745 37.9928 22.6231 37.9686 22.5 37.9686H15C14.8769 37.9686 14.755 37.9928 14.6412 38.0399C14.5274 38.087 14.4241 38.1561 14.337 38.2431C14.25 38.3302 14.1809 38.4336 14.1338 38.5473C14.0867 38.6611 14.0625 38.783 14.0625 38.9061V45.4686H5.625V9.84363H31.875V25.7811C31.875 26.0298 31.9738 26.2682 32.1496 26.444C32.3254 26.6199 32.5639 26.7186 32.8125 26.7186C33.0611 26.7186 33.2996 26.6199 33.4754 26.444C33.6512 26.2682 33.75 26.0298 33.75 25.7811V17.3436H42.1875V25.7811C42.1875 26.0298 42.2863 26.2682 42.4621 26.444C42.6379 26.6199 42.8764 26.7186 43.125 26.7186C43.3736 26.7186 43.6121 26.6199 43.7879 26.444C43.9637 26.2682 44.0625 26.0298 44.0625 25.7811V17.3436C44.5596 17.3431 45.0362 17.1453 45.3877 16.7938C45.7392 16.4423 45.9369 15.9657 45.9375 15.4686V13.5936C45.9369 13.0965 45.7392 12.6199 45.3877 12.2684C45.0362 11.9169 44.5596 11.7192 44.0625 11.7186H33.75V9.84363C34.2471 9.84306 34.7237 9.64533 35.0752 9.29383C35.4267 8.94232 35.6244 8.46573 35.625 7.96863V6.09363C35.6244 5.59652 35.4267 5.11994 35.0752 4.76843C34.7237 4.41692 34.2471 4.2192 33.75 4.21863H3.75C3.25289 4.2192 2.77631 4.41692 2.4248 4.76843C2.07329 5.11994 1.87557 5.59652 1.875 6.09363V7.96863C1.87557 8.46573 2.07329 8.94232 2.4248 9.29383C2.77631 9.64533 3.25289 9.84306 3.75 9.84363V45.4686H2.8125C2.56702 45.4734 2.33322 45.5743 2.16132 45.7496C1.98941 45.9249 1.89312 46.1606 1.89313 46.4062C1.89314 46.6517 1.98945 46.8874 2.16136 47.0627C2.33328 47.238 2.56709 47.3389 2.81257 47.3436H26.7563C26.8794 47.3437 27.0013 47.3194 27.1151 47.2723C27.2288 47.2252 27.3322 47.1562 27.4192 47.0691C27.5063 46.9821 27.5753 46.8787 27.6225 46.7649C27.6696 46.6512 27.6938 46.5293 27.6938 46.4061ZM44.0625 13.5936V15.4686H33.75V13.5936H44.0625ZM3.75 6.09363H33.75L33.7509 7.96863H3.75V6.09363ZM15.9375 45.4686V39.8436H21.5625V45.4686H15.9375Z" fill="#0E121D"/>
</svg>
