<svg width="60" height="60" viewBox="0 0 60 60" fill="none" xmlns="http://www.w3.org/2000/svg">
<g clip-path="url(#clip0_7981_11585)">
<path d="M49.6577 59.9999H42.5098C41.7979 59.9999 41.2207 59.4228 41.2207 58.7108V47.9889C41.2207 47.277 41.7979 46.6998 42.5098 46.6998H49.6577C50.3696 46.6998 50.9468 47.277 50.9468 47.9889V58.7108C50.9468 59.4228 50.3696 59.9999 49.6577 59.9999ZM43.7988 57.4218H48.3687V49.278H43.7988V57.4218Z" fill="#0E121D"/>
<path d="M46.084 24.26C45.3721 24.26 44.7949 23.6829 44.7949 22.9709V15.5852C44.7949 14.8733 45.3721 14.2961 46.084 14.2961C46.7959 14.2961 47.373 14.8733 47.373 15.5852V22.9709C47.373 23.683 46.7959 24.26 46.084 24.26Z" fill="#0E121D"/>
<path d="M58.593 34.9821H33.5751C32.3889 34.9807 31.8303 33.4937 32.7361 32.7143L45.2451 21.9922C45.7279 21.5785 46.4401 21.5784 46.9228 21.9922L59.4318 32.7141C60.3319 33.4887 59.7879 34.9791 58.593 34.9821ZM37.0598 32.4039H55.1083L46.084 24.6689L37.0598 32.4039Z" fill="#0E121D"/>
<path d="M8.55701 59.134C7.42545 59.1405 6.8326 57.7418 7.64553 56.9334L17.0986 47.4804L7.76459 38.1465C7.26326 37.6451 7.26092 36.8329 7.75943 36.3286L17.3815 26.5976L7.64529 16.7493C7.14478 16.243 7.14947 15.4268 7.65572 14.9263C8.16197 14.4258 8.97818 14.4305 9.47869 14.9367L20.1109 25.6914C20.6074 26.1936 20.6073 27.0019 20.1108 27.504L10.4939 37.2299L19.8329 46.5689C20.3362 47.0723 20.3362 47.8886 19.8329 48.392L9.46849 58.7565C9.21678 59.0082 8.88689 59.134 8.55701 59.134Z" fill="#0E121D"/>
<path d="M46.9954 14.6733L39.8474 7.52531C39.6056 7.28355 39.2777 7.14773 38.9359 7.14773H20.5682V1.28894C20.5682 0.577026 19.991 -0.00012207 19.2791 -0.00012207H8.55715C7.84523 -0.00012207 7.26809 0.577026 7.26809 1.28894V7.14785H1.40918C0.697266 7.14785 0.120117 7.725 0.120117 8.43691V15.5849C0.120117 16.2968 0.697266 16.8739 1.40918 16.8739H7.26809V57.4216H1.88566C1.17375 57.4216 0.596602 57.9988 0.596602 58.7107C0.596602 59.4226 1.17375 59.9998 1.88566 59.9998C5.87742 59.9998 15.1996 59.9998 19.2791 59.9998H25.9506C26.6625 59.9998 27.2396 59.4226 27.2396 58.7107C27.2396 57.9988 26.6625 57.4216 25.9506 57.4216H20.5682V16.8738H46.0839C47.2219 16.8784 47.8046 15.4762 46.9954 14.6733ZM9.84621 2.578H17.99V7.14785H9.84621V2.578ZM17.99 9.72597V14.2958H9.84621V9.72597H17.99ZM2.69824 14.2957V9.72597H7.26809V14.2958L2.69824 14.2957ZM17.99 57.4216H9.84621V16.8738H17.99V57.4216ZM20.5682 14.2957V9.72597H38.4019L42.9718 14.2958L20.5682 14.2957Z" fill="#0E121D"/>
<path d="M56.8054 59.9999H35.3613C34.6494 59.9999 34.0723 59.4228 34.0723 58.7109V40.8409C34.0723 40.129 34.6494 39.5519 35.3613 39.5519H56.8052C57.5171 39.5519 58.0943 40.129 58.0943 40.8409V58.7109C58.0944 59.4228 57.5173 59.9999 56.8054 59.9999ZM36.6504 57.4218H55.5162V42.13H36.6504V57.4218Z" fill="#0E121D"/>
</g>
<defs>
<clipPath id="clip0_7981_11585">
<rect width="60" height="60" fill="white"/>
</clipPath>
</defs>
</svg>
