<svg width="26" height="30" viewBox="0 0 26 30" fill="none" xmlns="http://www.w3.org/2000/svg">
<path d="M6.44968 23.8026H19.5321V21.9868H6.44968V23.8026ZM6.44968 17.1711H19.5321V15.3947H6.44968V17.1711ZM2.50763 30C1.81452 30 1.22249 29.7763 0.731544 29.3289C0.240593 28.8816 -0.00488281 28.3421 -0.00488281 27.7105V2.28947C-0.00488281 1.65789 0.240593 1.11842 0.731544 0.671053C1.22249 0.223684 1.81452 0 2.50763 0H17.5394L25.9866 7.69737V27.7105C25.9866 28.3421 25.7412 28.8816 25.2502 29.3289C24.7593 29.7763 24.1672 30 23.4741 30H2.50763ZM16.5864 8.48684V1.77632H2.50763C2.36323 1.77632 2.23328 1.82895 2.11776 1.93421C2.00224 2.03947 1.94448 2.15789 1.94448 2.28947V27.7105C1.94448 27.8421 2.00224 27.9605 2.11776 28.0658C2.23328 28.1711 2.36323 28.2237 2.50763 28.2237H23.4741C23.6185 28.2237 23.7485 28.1711 23.864 28.0658C23.9795 27.9605 24.0373 27.8421 24.0373 27.7105V8.48684H16.5864ZM1.94448 1.77632V8.48684V1.77632V8.48684V27.7105C1.94448 27.8421 1.94448 27.9605 1.94448 28.0658C1.94448 28.1711 1.94448 28.2237 1.94448 28.2237C1.94448 28.2237 1.94448 28.1711 1.94448 28.0658C1.94448 27.9605 1.94448 27.8421 1.94448 27.7105V2.28947C1.94448 2.15789 1.94448 2.03947 1.94448 1.93421C1.94448 1.82895 1.94448 1.77632 1.94448 1.77632Z" fill="white"/>
</svg>
