<svg width="28" height="28" viewBox="0 0 28 28" fill="none" xmlns="http://www.w3.org/2000/svg">
<path d="M0.361549 27.6379V22.0862L8.03443 14.4023L0.56241 6.87931C0.37494 6.69157 0.234337 6.48372 0.140602 6.25575C0.0468673 6.02778 0 5.80651 0 5.59195C0 5.37739 0.0468673 5.15613 0.140602 4.92816C0.234337 4.70019 0.37494 4.49234 0.56241 4.3046L4.25825 0.603448C4.44572 0.415709 4.65328 0.268199 4.88092 0.160919C5.10856 0.0536397 5.32951 0 5.54376 0C5.75801 0 5.98565 0.0536397 6.22669 0.160919C6.46772 0.268199 6.66858 0.415709 6.82927 0.603448L14.3816 8.12644L22.0947 0.402299C22.2018 0.295019 22.329 0.221264 22.4763 0.181034C22.6236 0.140805 22.7642 0.12069 22.8981 0.12069C23.0588 0.12069 23.2061 0.140805 23.34 0.181034C23.4739 0.221264 23.6078 0.295019 23.7418 0.402299L27.5983 4.3046C27.7054 4.41188 27.7857 4.53257 27.8393 4.66667C27.8929 4.80077 27.9197 4.94828 27.9197 5.1092C27.9197 5.27012 27.8929 5.41762 27.8393 5.55172C27.7857 5.68582 27.7054 5.80651 27.5983 5.91379L19.8852 13.6379L27.4376 21.2011C27.5983 21.3621 27.7322 21.5632 27.8393 21.8046C27.9464 22.046 28 22.2739 28 22.4885C28 22.7031 27.9464 22.9243 27.8393 23.1523C27.7322 23.3803 27.5983 23.5881 27.4376 23.7759L23.7016 27.4368C23.5409 27.6245 23.3467 27.7653 23.1191 27.8592C22.8914 27.9531 22.6571 28 22.4161 28C22.2018 28 21.9809 27.9531 21.7532 27.8592C21.5256 27.7653 21.3314 27.6245 21.1707 27.4368L13.6184 19.954L5.90531 27.6379H0.361549ZM9.36012 13.1149L13.0961 9.41379L9.84218 6.15517L7.95409 8.08621L6.66858 6.79885L8.55667 4.86782L5.54376 1.85057L1.84792 5.59195L9.36012 13.1149ZM22.3759 26.1897L26.1119 22.4483L23.099 19.431L21.1707 21.3621L19.8852 20.0747L21.8135 18.1437L18.5595 14.9253L14.8637 18.6667L22.3759 26.1897ZM2.20947 25.8276H5.10187L21.5725 9.37356L18.6399 6.43678L2.20947 22.8908V25.8276ZM22.858 8.08621L25.7905 5.14943L22.858 2.21264L19.9254 5.14943L22.858 8.08621Z" fill="white"/>
</svg>
