<svg width="28" height="28" viewBox="0 0 28 28" fill="none" xmlns="http://www.w3.org/2000/svg">
<path d="M13.1526 24.2053H14.7737V22.3632C16.1 22.2649 17.2114 21.8596 18.1079 21.1474C19.0044 20.4351 19.4526 19.4281 19.4526 18.1263C19.4526 16.9228 19.1026 15.9526 18.4026 15.2158C17.7026 14.4789 16.493 13.7667 14.7737 13.0789C13.2509 12.4895 12.207 11.9614 11.6421 11.4947C11.0772 11.0281 10.7947 10.4018 10.7947 9.61579C10.7947 8.82982 11.0956 8.19123 11.6974 7.7C12.2991 7.20877 13.0912 6.96316 14.0737 6.96316C14.8105 6.96316 15.4491 7.12895 15.9895 7.46053C16.5298 7.79211 16.9842 8.27719 17.3526 8.91579L18.7526 8.25263C18.3351 7.46667 17.7947 6.85263 17.1316 6.41053C16.4684 5.96842 15.707 5.69825 14.8474 5.6V3.79474H13.2263V5.6C11.9491 5.77193 10.9605 6.22632 10.2605 6.96316C9.56053 7.7 9.21053 8.58421 9.21053 9.61579C9.21053 10.7456 9.56667 11.6482 10.2789 12.3237C10.9912 12.9991 12.1211 13.6439 13.6684 14.2579C15.2895 14.9456 16.3947 15.5535 16.9842 16.0816C17.5737 16.6096 17.8684 17.2912 17.8684 18.1263C17.8684 19.0351 17.5061 19.7351 16.7816 20.2263C16.057 20.7175 15.2158 20.9632 14.2579 20.9632C13.3246 20.9632 12.4833 20.6991 11.7342 20.1711C10.9851 19.643 10.4386 18.9246 10.0947 18.0158L8.62105 18.5684C9.13684 19.6 9.75702 20.4105 10.4816 21C11.2061 21.5895 12.0965 22.0193 13.1526 22.2895V24.2053ZM14 28C12.0842 28 10.2789 27.6316 8.58421 26.8947C6.88947 26.1579 5.40351 25.1509 4.12632 23.8737C2.84912 22.5965 1.84211 21.1105 1.10526 19.4158C0.368421 17.7211 0 15.9158 0 14C0 12.0596 0.368421 10.2421 1.10526 8.54737C1.84211 6.85263 2.84912 5.37281 4.12632 4.10789C5.40351 2.84298 6.88947 1.84211 8.58421 1.10526C10.2789 0.368421 12.0842 0 14 0C15.9404 0 17.7579 0.368421 19.4526 1.10526C21.1474 1.84211 22.6272 2.84298 23.8921 4.10789C25.157 5.37281 26.1579 6.85263 26.8947 8.54737C27.6316 10.2421 28 12.0596 28 14C28 15.9158 27.6316 17.7211 26.8947 19.4158C26.1579 21.1105 25.157 22.5965 23.8921 23.8737C22.6272 25.1509 21.1474 26.1579 19.4526 26.8947C17.7579 27.6316 15.9404 28 14 28ZM14 26.3421C17.4386 26.3421 20.3553 25.1386 22.75 22.7316C25.1447 20.3246 26.3421 17.414 26.3421 14C26.3421 10.5614 25.1447 7.64474 22.75 5.25C20.3553 2.85526 17.4386 1.65789 14 1.65789C10.586 1.65789 7.67544 2.85526 5.26842 5.25C2.8614 7.64474 1.65789 10.5614 1.65789 14C1.65789 17.414 2.8614 20.3246 5.26842 22.7316C7.67544 25.1386 10.586 26.3421 14 26.3421Z" fill="white"/>
</svg>
