<svg width="16" height="16" viewBox="0 0 16 16" fill="none" xmlns="http://www.w3.org/2000/svg">
<path d="M14.7812 5.25C15.5938 6.125 16 7.125 16 8.25C16 9.375 15.5938 10.375 14.7812 11.25L11.2812 14.7812C10.9271 15.0729 10.5729 15.0729 10.2188 14.7812C9.92708 14.4271 9.92708 14.0729 10.2188 13.7188L13.7188 10.1875C14.2396 9.625 14.5 8.97917 14.5 8.25C14.5 7.52083 14.2396 6.875 13.7188 6.3125L9.71875 2.28125C9.42708 1.92708 9.42708 1.57292 9.71875 1.21875C10.0729 0.927083 10.4167 0.927083 10.75 1.21875L14.7812 5.25ZM4.5 4.46875C4.5 4.76042 4.40625 5 4.21875 5.1875C4.03125 5.375 3.79167 5.46875 3.5 5.46875C3.20833 5.46875 2.96875 5.375 2.78125 5.1875C2.59375 5 2.5 4.76042 2.5 4.46875C2.5 4.19792 2.59375 3.96875 2.78125 3.78125C2.96875 3.59375 3.20833 3.48958 3.5 3.46875C3.79167 3.48958 4.03125 3.59375 4.21875 3.78125C4.40625 3.96875 4.5 4.19792 4.5 4.46875ZM12.8438 6.84375C13.2188 7.23958 13.4062 7.70833 13.4062 8.25C13.4062 8.79167 13.2188 9.26042 12.8438 9.65625L8.65625 13.8438C8.26042 14.2188 7.79167 14.4062 7.25 14.4062C6.70833 14.4062 6.23958 14.2188 5.84375 13.8438L0.59375 8.59375C0.197917 8.19792 0 7.72917 0 7.1875V2.5C0.0208333 2.08333 0.166667 1.72917 0.4375 1.4375C0.729167 1.16667 1.08333 1.02083 1.5 1H6.1875C6.72917 1 7.19792 1.19792 7.59375 1.59375L12.8438 6.84375ZM1.5 2.46875V7.1875C1.5 7.3125 1.55208 7.42708 1.65625 7.53125L6.90625 12.7812C7.13542 12.9688 7.36458 12.9688 7.59375 12.7812L11.7812 8.59375C11.9688 8.36458 11.9688 8.13542 11.7812 7.90625L6.53125 2.65625C6.42708 2.55208 6.3125 2.48958 6.1875 2.46875H1.5Z" fill="#FF5E14"/>
</svg>
