<svg width="30" height="30" viewBox="0 0 30 30" fill="none" xmlns="http://www.w3.org/2000/svg">
<path opacity="0.926" fill-rule="evenodd" clip-rule="evenodd" d="M20.5371 1.08399C22.588 1.07422 24.6388 1.08399 26.6895 1.11328C26.914 1.18164 27.0605 1.32813 27.1289 1.55274C27.168 2.08008 27.168 2.60742 27.1289 3.13477C27.0267 3.42522 26.8216 3.58147 26.5137 3.60352C26.5039 4.65839 26.5137 5.71307 26.543 6.76758C27.2799 7.12143 28.0123 7.48272 28.7402 7.85156C29.2715 8.41406 29.3398 9.0293 28.9453 9.69727C28.7392 9.91313 28.4951 10.0694 28.2129 10.166C28.1445 13.1931 28.1348 16.2205 28.1836 19.248C28.513 19.7329 28.5911 20.2603 28.418 20.8301C28.3435 21.0019 28.2458 21.1581 28.125 21.2988C25.6047 22.8572 22.9972 24.2732 20.3027 25.5469C18.9845 26.2141 17.5978 26.6829 16.1426 26.9531C12.6714 27.7508 9.1558 28.0535 5.5957 27.8613C5.4998 28.3579 5.20683 28.6801 4.7168 28.8281C3.7207 28.8672 2.72461 28.8672 1.72852 28.8281C1.21302 28.7033 0.890755 28.381 0.76172 27.8613C0.722656 25.1855 0.722656 22.5098 0.76172 19.834C0.884462 19.3402 1.18719 19.018 1.66992 18.8672C2.68555 18.8281 3.70118 18.8281 4.7168 18.8672C5.3744 19.1174 5.6869 19.596 5.6543 20.3027C6.0259 20.3125 6.39697 20.3027 6.76758 20.2734C7.13361 19.9562 7.52426 19.673 7.93945 19.4238C8.01756 16.3379 8.01756 13.252 7.93945 10.166C7.21799 9.915 6.89572 9.40717 6.97266 8.64258C7.06869 8.20559 7.31285 7.88332 7.70508 7.67578C10.752 6.23045 13.7988 4.78516 16.8457 3.33984C17.1558 3.25392 17.4684 3.27345 17.7832 3.39844C18.7402 3.85742 19.6973 4.31641 20.6543 4.77539C20.7324 4.38476 20.7324 3.99414 20.6543 3.60352C20.4489 3.54503 20.2829 3.42785 20.1563 3.25195C20.0633 2.68995 20.0438 2.12354 20.0977 1.55274C20.1967 1.34643 20.3432 1.19018 20.5371 1.08399ZM20.8301 1.66992C22.1193 1.66016 23.4084 1.66992 24.6973 1.69922C24.7509 1.72115 24.7998 1.75044 24.8438 1.78711C24.8828 2.1582 24.8828 2.5293 24.8438 2.90039C24.7421 2.94427 24.6347 2.97357 24.5215 2.98828C23.3107 3.01552 22.1095 3.02528 20.918 3.01758C20.8071 3.00135 20.729 2.94276 20.6836 2.8418C20.6445 2.50976 20.6445 2.17774 20.6836 1.8457C20.7245 1.77594 20.7733 1.71735 20.8301 1.66992ZM21.3574 3.60352C22.3144 3.60352 23.2715 3.60352 24.2285 3.60352C24.2383 4.56075 24.2285 5.51778 24.1992 6.47461C23.276 6.01787 22.3482 5.56866 21.416 5.12695C21.3575 4.62064 21.338 4.11283 21.3574 3.60352ZM17.0801 3.89649C17.2424 3.89184 17.3987 3.92114 17.5488 3.98438C20.5566 5.42969 23.5645 6.87498 26.5723 8.32031C26.9629 8.69139 26.9629 9.06252 26.5723 9.43359C26.3466 9.58799 26.1122 9.60756 25.8691 9.49219C22.991 8.1068 20.1101 6.72984 17.2266 5.36133C14.2526 6.79951 11.2643 8.20576 8.26172 9.58008C7.66717 9.44549 7.47188 9.09393 7.67578 8.52539C7.74416 8.45701 7.81248 8.38869 7.88086 8.32031C10.9526 6.84293 14.019 5.36832 17.0801 3.89649ZM17.1387 6.06445C20.0487 7.40713 22.9491 8.7743 25.8398 10.166C25.8789 13.1543 25.8789 16.1426 25.8398 19.1309C25.4916 19.3424 25.1595 19.5768 24.8438 19.834C24.8242 18.3887 24.8047 16.9434 24.7852 15.498C24.6725 15.1335 24.4283 14.9089 24.0527 14.8242C22.3535 14.7851 20.6543 14.7851 18.9551 14.8242C18.5937 14.9512 18.3496 15.1953 18.2227 15.5566C18.1934 16.5916 18.1836 17.6268 18.1934 18.6621C17.7065 18.7083 17.2182 18.7278 16.7285 18.7207C16.7383 17.783 16.7285 16.8455 16.6992 15.9082C16.5268 15.3256 16.146 14.9643 15.5566 14.8242C14.0527 14.7851 12.5488 14.7851 11.0449 14.8242C10.4556 14.9643 10.0747 15.3256 9.90235 15.9082C9.87305 16.8064 9.86326 17.7049 9.87305 18.6035C9.42932 18.6961 9.00938 18.8523 8.61328 19.0723C8.5742 16.1035 8.5742 13.1348 8.61328 10.166C11.4703 8.82047 14.3121 7.4533 17.1387 6.06445ZM17.0801 8.4082C18.3647 8.55024 19.0678 9.26309 19.1895 10.5469C19.0625 11.8066 18.3691 12.5 17.1094 12.627C15.8249 12.5046 15.112 11.8015 14.9707 10.5176C15.1523 9.28131 15.8554 8.57818 17.0801 8.4082ZM11.1035 15.4395C12.6307 15.4117 14.1541 15.441 15.6738 15.5273C15.9127 15.6888 16.0592 15.9134 16.1133 16.2012C16.1426 17.0603 16.1524 17.9197 16.1426 18.7793C15.732 18.789 15.3218 18.7793 14.9121 18.75C13.4954 18.243 12.0501 18.1356 10.5762 18.4277C10.5079 17.6081 10.4981 16.7878 10.5469 15.9668C10.6893 15.7363 10.8748 15.5605 11.1035 15.4395ZM19.0723 15.4395C19.7754 15.4395 20.4785 15.4395 21.1816 15.4395C21.1816 16.1621 21.1816 16.8848 21.1816 17.6074C20.4004 17.6074 19.6191 17.6074 18.8379 17.6074C18.8281 16.9626 18.8379 16.3181 18.8672 15.6738C18.9076 15.5654 18.9759 15.4873 19.0723 15.4395ZM21.8262 15.4395C22.5491 15.4297 23.2717 15.4395 23.9941 15.4688C24.0849 15.5399 24.1532 15.6278 24.1992 15.7324C24.2285 16.3571 24.2383 16.9821 24.2285 17.6074C23.4277 17.6074 22.627 17.6074 21.8262 17.6074C21.8262 16.8848 21.8262 16.1621 21.8262 15.4395ZM18.8379 18.252C19.6191 18.252 20.4004 18.252 21.1816 18.252C21.1816 18.9746 21.1816 19.6973 21.1816 20.4199C20.8496 20.4199 20.5176 20.4199 20.1855 20.4199C20.2692 19.4536 19.8396 18.8677 18.8965 18.6621C18.8394 18.5307 18.8198 18.394 18.8379 18.252ZM21.8262 18.252C22.627 18.252 23.4277 18.252 24.2285 18.252C24.2382 18.8578 24.2285 19.4632 24.1992 20.0684C24.1504 20.2344 24.043 20.3418 23.877 20.3906C23.1936 20.4199 22.51 20.4297 21.8262 20.4199C21.8262 19.6973 21.8262 18.9746 21.8262 18.252ZM11.8652 18.8379C12.8803 18.8307 13.8568 19.0163 14.7949 19.3945C15.9081 19.3893 17.0214 19.36 18.1348 19.3066C18.6581 19.2023 19.0976 19.339 19.4531 19.7168C19.7159 20.3149 19.5499 20.7543 18.9551 21.0352C17.2376 21.2596 15.5189 21.4744 13.7988 21.6797C13.7452 21.7016 13.6963 21.7309 13.6523 21.7676C13.5518 22.0511 13.6397 22.2367 13.916 22.3242C16.416 23.2226 18.916 23.2226 21.416 22.3242C22.1988 22.0208 22.9605 21.6692 23.7012 21.2695C24.7325 20.6481 25.7481 20.0036 26.748 19.3359C27.4164 19.2598 27.807 19.5528 27.9199 20.2148C27.8864 20.4131 27.818 20.5987 27.7148 20.7715C27.3788 21.0519 27.0175 21.296 26.6309 21.5039C24.3303 22.8399 21.967 24.0704 19.541 25.1953C18.3602 25.7387 17.1298 26.1292 15.8496 26.3672C12.4928 27.1143 9.09434 27.417 5.6543 27.2754C5.6543 25.166 5.6543 23.0566 5.6543 20.9473C6.08443 20.957 6.5141 20.9473 6.94336 20.918C8.35699 19.6819 9.99762 18.9886 11.8652 18.8379ZM2.02149 19.4238C2.80298 19.414 3.58423 19.4238 4.36524 19.4531C4.65172 19.4857 4.8568 19.6322 4.98047 19.8926C5.01953 22.5293 5.01953 25.166 4.98047 27.8027C4.89258 27.9687 4.76562 28.0957 4.59961 28.1836C3.74346 28.2773 2.88409 28.2968 2.02149 28.2422C1.735 28.2096 1.52993 28.0631 1.40625 27.8027C1.36719 25.166 1.36719 22.5293 1.40625 19.8926C1.53929 19.6315 1.74437 19.4753 2.02149 19.4238ZM19.9512 21.0059C20.8888 20.9961 21.8263 21.0059 22.7637 21.0352C20.8757 22.0394 18.864 22.4788 16.7285 22.3535C16.7285 22.2168 16.7285 22.0801 16.7285 21.9434C17.5525 21.8637 18.3728 21.7563 19.1895 21.6211C19.5359 21.5266 19.7897 21.3215 19.9512 21.0059ZM16.084 22.002C16.1387 22.0645 16.1583 22.1426 16.1426 22.2363C15.4831 22.1719 15.4636 22.0938 16.084 22.002Z" fill="#FF5E14"/>
<path opacity="0.889" fill-rule="evenodd" clip-rule="evenodd" d="M16.6113 7.82233C18.3745 7.70139 19.439 8.50219 19.8047 10.2247C19.8474 11.8877 19.0564 12.8936 17.4316 13.2422C15.8452 13.3038 14.8393 12.5713 14.4141 11.045C14.2618 9.35379 14.9942 8.27953 16.6113 7.82233ZM17.0801 8.40826C15.8554 8.57824 15.1523 9.28137 14.9707 10.5176C15.112 11.8015 15.8249 12.5047 17.1094 12.627C18.3691 12.5 19.0625 11.8067 19.1895 10.5469C19.0678 9.26315 18.3647 8.55029 17.0801 8.40826Z" fill="#FF5E14"/>
<path opacity="0.91" fill-rule="evenodd" clip-rule="evenodd" d="M3.19288 25.8106C3.9916 25.74 4.29433 26.0916 4.10108 26.8653C3.83369 27.2203 3.49189 27.3082 3.07569 27.129C2.61061 26.6523 2.64967 26.2129 3.19288 25.8106Z" fill="#FF5E14"/>
</svg>
