<svg width="82" height="80" viewBox="0 0 82 80" fill="none" xmlns="http://www.w3.org/2000/svg">
<path d="M66.1291 12.0002H13.0936C12.7672 10.38 11.8554 8.93984 10.535 7.95929C9.21462 6.97874 7.57995 6.52777 5.94832 6.69392C4.31668 6.86007 2.80449 7.63149 1.7053 8.85843C0.606117 10.0854 -0.00164479 11.6803 3.34331e-06 13.3335V58.6669C0.00175403 60.4344 0.699031 62.1291 1.93881 63.379C3.17859 64.6288 4.85959 65.3318 6.61291 65.3335H66.1291C66.4798 65.3335 66.8162 65.1931 67.0643 64.943C67.3123 64.693 67.4516 64.3538 67.4516 64.0002V13.3335C67.4516 12.9799 67.3123 12.6408 67.0643 12.3907C66.8162 12.1407 66.4798 12.0002 66.1291 12.0002ZM2.64517 13.3335C2.64517 12.2727 3.06319 11.2553 3.80729 10.5051C4.55139 9.75497 5.5606 9.33354 6.61291 9.33354C7.66522 9.33354 8.67443 9.75497 9.41853 10.5051C10.1626 11.2553 10.5807 12.2727 10.5807 13.3335V52.0035C9.43685 51.136 8.04428 50.6669 6.61291 50.6669C5.18154 50.6669 3.78897 51.136 2.64517 52.0035V13.3335ZM64.8065 62.6669H6.61291C5.56103 62.6655 4.55263 62.2436 3.80884 61.4937C3.06504 60.7439 2.64656 59.7273 2.64517 58.6669V57.3335C2.64517 56.2727 3.06319 55.2553 3.80729 54.5051C4.55139 53.755 5.5606 53.3335 6.61291 53.3335C7.66522 53.3335 8.67443 53.755 9.41853 54.5051C10.1626 55.2553 10.5807 56.2727 10.5807 57.3335C10.5807 57.6872 10.72 58.0263 10.968 58.2763C11.2161 58.5264 11.5525 58.6669 11.9032 58.6669C12.254 58.6669 12.5904 58.5264 12.8384 58.2763C13.0865 58.0263 13.2258 57.6872 13.2258 57.3335V14.6669H64.8065V62.6669Z" fill="#0E121D"/>
<path d="M80.6774 37.3335H72.7419C72.3912 37.3335 72.0548 37.474 71.8067 37.724C71.5587 37.9741 71.4193 38.3132 71.4193 38.6668V69.3335H35.7097C35.3589 69.3335 35.0225 69.474 34.7745 69.724C34.5264 69.9741 34.3871 70.3132 34.3871 70.6668V78.6668C34.3871 79.0205 34.5264 79.3596 34.7745 79.6096C35.0225 79.8597 35.3589 80.0002 35.7097 80.0002H80.6774C81.0282 80.0002 81.3646 79.8597 81.6126 79.6096C81.8607 79.3596 82 79.0205 82 78.6668V38.6668C82 38.3132 81.8607 37.9741 81.6126 37.724C81.3646 37.474 81.0282 37.3335 80.6774 37.3335ZM79.3548 77.3335H37.0322V72.0002H39.6774V73.3335C39.6774 73.6871 39.8168 74.0263 40.0648 74.2763C40.3128 74.5264 40.6492 74.6668 41 74.6668C41.3508 74.6668 41.6872 74.5264 41.9352 74.2763C42.1832 74.0263 42.3226 73.6871 42.3226 73.3335V72.0002H43.6452V73.3335C43.6452 73.6871 43.7845 74.0263 44.0325 74.2763C44.2806 74.5264 44.617 74.6668 44.9677 74.6668C45.3185 74.6668 45.6549 74.5264 45.9029 74.2763C46.151 74.0263 46.2903 73.6871 46.2903 73.3335V72.0002H47.6129V73.3335C47.6129 73.6871 47.7522 74.0263 48.0003 74.2763C48.2483 74.5264 48.5847 74.6668 48.9355 74.6668C49.2862 74.6668 49.6226 74.5264 49.8707 74.2763C50.1187 74.0263 50.2581 73.6871 50.2581 73.3335V72.0002H51.5806V73.3335C51.5806 73.6871 51.72 74.0263 51.968 74.2763C52.216 74.5264 52.5524 74.6668 52.9032 74.6668C53.254 74.6668 53.5904 74.5264 53.8384 74.2763C54.0865 74.0263 54.2258 73.6871 54.2258 73.3335V72.0002H55.5484V73.3335C55.5484 73.6871 55.6877 74.0263 55.9358 74.2763C56.1838 74.5264 56.5202 74.6668 56.871 74.6668C57.2217 74.6668 57.5581 74.5264 57.8062 74.2763C58.0542 74.0263 58.1935 73.6871 58.1935 73.3335V72.0002H59.5161V73.3335C59.5161 73.6871 59.6555 74.0263 59.9035 74.2763C60.1515 74.5264 60.4879 74.6668 60.8387 74.6668C61.1895 74.6668 61.5259 74.5264 61.7739 74.2763C62.0219 74.0263 62.1613 73.6871 62.1613 73.3335V72.0002H63.4839V73.3335C63.4839 73.6871 63.6232 74.0263 63.8712 74.2763C64.1193 74.5264 64.4557 74.6668 64.8064 74.6668C65.1572 74.6668 65.4936 74.5264 65.7416 74.2763C65.9897 74.0263 66.129 73.6871 66.129 73.3335V72.0002H67.4516V73.3335C67.4516 73.6871 67.5909 74.0263 67.839 74.2763C68.087 74.5264 68.4234 74.6668 68.7742 74.6668C69.125 74.6668 69.4614 74.5264 69.7094 74.2763C69.9574 74.0263 70.0968 73.6871 70.0968 73.3335V72.0002H79.3548V77.3335ZM79.3548 69.3335H74.0645V40.0002H79.3548V69.3335Z" fill="#0E121D"/>
<path d="M76.7097 76.0002C77.4401 76.0002 78.0322 75.4032 78.0322 74.6668C78.0322 73.9304 77.4401 73.3335 76.7097 73.3335C75.9792 73.3335 75.3871 73.9304 75.3871 74.6668C75.3871 75.4032 75.9792 76.0002 76.7097 76.0002Z" fill="#0E121D"/>
<path d="M16.7756 5.265L24.7111 7.93167C24.846 7.97687 24.9872 7.99994 25.1293 8H64.1455C65.0221 7.99899 65.8625 7.64747 66.4824 7.02257C67.1022 6.39767 67.4509 5.55041 67.4519 4.66667V3.33333C67.4509 2.44959 67.1022 1.60233 66.4824 0.977431C65.8625 0.35253 65.0221 0.00101456 64.1455 0H25.1293C24.9872 6.07877e-05 24.846 0.0231322 24.7111 0.0683333L16.7756 2.735C16.5122 2.82345 16.2831 2.99323 16.1207 3.22027C15.9583 3.44731 15.871 3.72011 15.871 4C15.871 4.27989 15.9583 4.55269 16.1207 4.77973C16.2831 5.00677 16.5122 5.17655 16.7756 5.265ZM62.1616 2.66667H64.1455C64.3209 2.66667 64.4891 2.7369 64.6131 2.86193C64.7371 2.98695 64.8068 3.15652 64.8068 3.33333V4.66667C64.8068 4.84348 64.7371 5.01305 64.6131 5.13807C64.4891 5.2631 64.3209 5.33333 64.1455 5.33333H62.1616V2.66667ZM58.1939 2.66667H59.5164V5.33333H58.1939V2.66667ZM29.0971 2.66667H55.5487V5.33333H29.0971V2.66667ZM25.3443 2.66667H26.4519V5.33333H25.3443L21.3765 4L25.3443 2.66667Z" fill="#0E121D"/>
<path d="M17.1936 60.0002H48.9355C49.2863 60.0002 49.6227 59.8597 49.8707 59.6096C50.1187 59.3596 50.2581 59.0205 50.2581 58.6668V42.6668C50.2581 42.3132 50.1187 41.9741 49.8707 41.724C49.6227 41.474 49.2863 41.3335 48.9355 41.3335H34.3871V26.6668C34.3871 26.3132 34.2478 25.9741 33.9997 25.724C33.7517 25.474 33.4153 25.3335 33.0645 25.3335H17.1936C16.8428 25.3335 16.5064 25.474 16.2583 25.724C16.0103 25.9741 15.871 26.3132 15.871 26.6668V58.6668C15.871 59.0205 16.0103 59.3596 16.2583 59.6096C16.5064 59.8597 16.8428 60.0002 17.1936 60.0002ZM18.5161 44.0002H22.4839C22.8346 44.0002 23.1711 43.8597 23.4191 43.6096C23.6671 43.3596 23.8065 43.0205 23.8065 42.6668C23.8065 42.3132 23.6671 41.9741 23.4191 41.724C23.1711 41.474 22.8346 41.3335 22.4839 41.3335H18.5161V28.0002H31.7419V41.3335H27.7742C27.4234 41.3335 27.087 41.474 26.839 41.724C26.591 41.9741 26.4516 42.3132 26.4516 42.6668C26.4516 43.0205 26.591 43.3596 26.839 43.6096C27.087 43.8597 27.4234 44.0002 27.7742 44.0002H31.7419V48.0002C31.7419 48.3538 31.8813 48.6929 32.1293 48.943C32.3773 49.193 32.7138 49.3335 33.0645 49.3335C33.4153 49.3335 33.7517 49.193 33.9997 48.943C34.2478 48.6929 34.3871 48.3538 34.3871 48.0002V44.0002H47.6129V57.3335H34.3871V53.3335C34.3871 52.9799 34.2478 52.6407 33.9997 52.3907C33.7517 52.1406 33.4153 52.0002 33.0645 52.0002C32.7138 52.0002 32.3773 52.1406 32.1293 52.3907C31.8813 52.6407 31.7419 52.9799 31.7419 53.3335V57.3335H18.5161V44.0002Z" fill="#0E121D"/>
<path d="M38.3549 20.0002H60.8387C61.1895 20.0002 61.5259 19.8597 61.7739 19.6096C62.022 19.3596 62.1613 19.0205 62.1613 18.6668C62.1613 18.3132 62.022 17.9741 61.7739 17.724C61.5259 17.474 61.1895 17.3335 60.8387 17.3335H38.3549C38.0041 17.3335 37.6677 17.474 37.4197 17.724C37.1716 17.9741 37.0323 18.3132 37.0323 18.6668C37.0323 19.0205 37.1716 19.3596 37.4197 19.6096C37.6677 19.8597 38.0041 20.0002 38.3549 20.0002Z" fill="#0E121D"/>
<path d="M38.3549 24.0002H60.8387C61.1895 24.0002 61.5259 23.8597 61.7739 23.6096C62.022 23.3596 62.1613 23.0205 62.1613 22.6668C62.1613 22.3132 62.022 21.9741 61.7739 21.724C61.5259 21.474 61.1895 21.3335 60.8387 21.3335H38.3549C38.0041 21.3335 37.6677 21.474 37.4197 21.724C37.1716 21.9741 37.0323 22.3132 37.0323 22.6668C37.0323 23.0205 37.1716 23.3596 37.4197 23.6096C37.6677 23.8597 38.0041 24.0002 38.3549 24.0002Z" fill="#0E121D"/>
<path d="M38.3549 28.0002H50.2581C50.6089 28.0002 50.9453 27.8597 51.1933 27.6096C51.4413 27.3596 51.5807 27.0205 51.5807 26.6668C51.5807 26.3132 51.4413 25.9741 51.1933 25.724C50.9453 25.474 50.6089 25.3335 50.2581 25.3335H38.3549C38.0041 25.3335 37.6677 25.474 37.4197 25.724C37.1716 25.9741 37.0323 26.3132 37.0323 26.6668C37.0323 27.0205 37.1716 27.3596 37.4197 27.6096C37.6677 27.8597 38.0041 28.0002 38.3549 28.0002Z" fill="#0E121D"/>
<path d="M38.3549 33.3332H60.8387C61.1895 33.3332 61.5259 33.1927 61.7739 32.9426C62.022 32.6926 62.1613 32.3535 62.1613 31.9998C62.1613 31.6462 62.022 31.3071 61.7739 31.057C61.5259 30.807 61.1895 30.6665 60.8387 30.6665H38.3549C38.0041 30.6665 37.6677 30.807 37.4197 31.057C37.1716 31.3071 37.0323 31.6462 37.0323 31.9998C37.0323 32.3535 37.1716 32.6926 37.4197 32.9426C37.6677 33.1927 38.0041 33.3332 38.3549 33.3332Z" fill="#0E121D"/>
<path d="M38.3549 37.3332H50.2581C50.6089 37.3332 50.9453 37.1927 51.1933 36.9426C51.4413 36.6926 51.5807 36.3535 51.5807 35.9998C51.5807 35.6462 51.4413 35.3071 51.1933 35.057C50.9453 34.807 50.6089 34.6665 50.2581 34.6665H38.3549C38.0041 34.6665 37.6677 34.807 37.4197 35.057C37.1716 35.3071 37.0323 35.6462 37.0323 35.9998C37.0323 36.3535 37.1716 36.6926 37.4197 36.9426C37.6677 37.1927 38.0041 37.3332 38.3549 37.3332Z" fill="#0E121D"/>
</svg>
