<svg width="80" height="80" viewBox="0 0 80 80" fill="none" xmlns="http://www.w3.org/2000/svg">
<g clip-path="url(#clip0_7754_8904)">
<path d="M52.9756 64.343C53.7941 64.343 54.46 63.6771 54.46 62.8586V57.8018C54.46 56.9833 53.7941 56.3174 52.9756 56.3174H47.9188C47.1003 56.3174 46.4344 56.9833 46.4344 57.8018V62.8586C46.4344 63.6771 47.1003 64.343 47.9188 64.343H52.9756ZM48.7781 58.6613H52.1163V61.9994H48.7781V58.6613Z" fill="#0E121D"/>
<path d="M65.2212 64.343C66.0397 64.343 66.7056 63.6771 66.7056 62.8586V57.8018C66.7056 56.9833 66.0397 56.3174 65.2212 56.3174H60.1644C59.3459 56.3174 58.68 56.9833 58.68 57.8018V62.8586C58.68 63.6771 59.3459 64.343 60.1644 64.343H65.2212ZM61.0237 58.6613H64.3619V61.9994H61.0237V58.6613Z" fill="#0E121D"/>
<path d="M73.5461 77.656H71.9908V52.9138C71.9908 52.0926 71.4534 51.3953 70.7122 51.1526V39.4451C70.7122 38.7979 70.1877 38.2732 69.5403 38.2732C68.893 38.2732 68.3684 38.7979 68.3684 39.4451V41.7388H57.7419V31.3188C57.7419 30.6717 57.2173 30.147 56.57 30.147C55.9227 30.147 55.3981 30.6717 55.3981 31.3188V32.4176H44.7717V31.3188C44.7717 30.6717 44.2472 30.147 43.5998 30.147C42.9525 30.147 42.428 30.6717 42.428 31.3188V47.556C41.702 47.8074 41.1788 48.4963 41.1788 49.3067V59.1374C41.1788 59.7846 41.7033 60.3093 42.3506 60.3093C42.998 60.3093 43.5225 59.7846 43.5225 59.1374V49.7967H58.68V51.7206C58.68 52.6487 59.4352 53.404 60.3634 53.404H69.647V77.656H61.5706V69.3346C61.5706 68.5162 60.9047 67.8503 60.0863 67.8503H53.0541C52.2356 67.8503 51.5697 68.5162 51.5697 69.3346V77.656H43.5227V64.606C43.5227 63.9589 42.9981 63.4342 42.3508 63.4342C41.7034 63.4342 41.1789 63.9589 41.1789 64.606V77.656H39.6236C38.9763 77.656 38.4517 78.1807 38.4517 78.8279C38.4517 79.4751 38.9763 79.9998 39.6236 79.9998H73.5463C74.1936 79.9998 74.7181 79.4751 74.7181 78.8279C74.718 78.1807 74.1934 77.656 73.5461 77.656ZM55.3981 34.7612V41.7387H44.7717V34.7612H55.3981ZM44.7717 44.0824H55.3981V47.4526H44.7717V44.0824ZM59.17 47.4526H57.7419V44.0824H68.3684V51.0599H61.0239V49.3065C61.0238 48.2843 60.1922 47.4526 59.17 47.4526ZM53.9133 70.194H59.2267V77.656H53.9133V70.194Z" fill="#0E121D"/>
<path d="M33.0839 73.105C32.8895 72.4622 32.3077 72.0302 31.636 72.0302H29.8086V21.2495H30.8838C31.4319 21.2495 31.9488 21.0091 32.3017 20.5899C32.6549 20.1705 32.8038 19.6202 32.7105 19.0799L32.5669 18.2494H43.7172C44.3645 18.2494 44.8891 17.7247 44.8891 17.0775C44.8891 16.4303 44.3645 15.9056 43.7172 15.9056H32.1616L31.6472 12.9306H68.0736C68.8939 12.9306 69.5613 13.598 69.5613 14.4181C69.5613 15.2383 68.8939 15.9056 68.0736 15.9056H49.1861C48.5388 15.9056 48.0142 16.4303 48.0142 17.0775C48.0142 17.7247 48.5388 18.2494 49.1861 18.2494H63.8641V26.253C62.2839 26.7517 61.1349 28.2314 61.1349 29.9744C61.1349 32.1255 62.8849 33.8755 65.036 33.8755C67.187 33.8755 68.937 32.1255 68.937 29.9744C68.937 29.3272 68.4125 28.8025 67.7652 28.8025C67.1178 28.8025 66.5933 29.3272 66.5933 29.9744C66.5933 30.8331 65.8947 31.5316 65.036 31.5316C64.1772 31.5316 63.4786 30.833 63.4786 29.9744C63.4786 29.1158 64.1772 28.4171 65.036 28.4171C65.6833 28.4171 66.2078 27.8924 66.2078 27.2452V18.2495H68.0739C70.1866 18.2495 71.9053 16.5308 71.9053 14.4183C71.9053 12.3058 70.1866 10.5871 68.0739 10.5871H59.5291L24.9839 0.0500196C24.9822 0.0495508 24.9806 0.0492383 24.9789 0.0487696C24.8352 0.00564459 24.7139 -0.00388666 24.592 0.00126959C24.3699 0.0104883 24.178 0.0768946 24.0086 0.185957C23.9195 0.243145 25.2949 -0.684825 8.6422 10.5867H6.96532C6.03736 10.5867 5.28236 11.3417 5.28236 12.2696V16.5664C5.28236 17.4944 6.03736 18.2492 6.96532 18.2492H9.25564V22.4224H7.13579C6.11361 22.4224 5.28204 23.2539 5.28204 24.2761V28.3706C5.28204 29.3928 6.11361 30.2244 7.13579 30.2244H13.7189C14.7411 30.2244 15.5727 29.3928 15.5727 28.3706V24.2761C15.5727 23.2539 14.7411 22.4224 13.7189 22.4224H11.5994V18.2492H16.7886L16.645 19.0799C16.5517 19.62 16.7006 20.1703 17.0538 20.5897C17.4067 21.0089 17.9236 21.2494 18.4717 21.2494H19.4755V72.03H17.6483C16.9772 72.03 16.3953 72.4614 16.2003 73.1042L14.7022 78.0483C14.5639 78.5044 14.6509 79.0055 14.935 79.3883C15.2189 79.7713 15.6733 79.9999 16.1499 79.9999H33.1341C33.6109 79.9999 34.0652 79.7713 34.3492 79.3883C34.6331 79.0055 34.7202 78.5044 34.5819 78.0483L33.0839 73.105ZM13.2291 27.8808H7.62579V24.7663H13.2291V27.8808ZM27.4647 61.3299L23.288 56.7138H27.4647V61.3299ZM27.4647 52.5L23.288 47.8839H27.4647V52.5ZM27.4647 43.6702L23.288 39.0539H27.4647V43.6702ZM27.4647 34.8403L23.288 30.2241H27.4647V34.8403ZM25.9959 36.7102H21.8192V32.0939L25.9959 36.7102ZM25.9959 45.5402H21.8192V40.9239L25.9959 45.5402ZM25.9958 54.37H21.8192V49.7539L25.9958 54.37ZM21.8192 58.5838L25.9959 63.1999H21.8192V58.5838ZM21.8192 27.8803V23.2633L25.9961 27.8803H21.8192ZM27.4647 65.5436V70.16L23.2878 65.5436H27.4647ZM27.4647 26.0102L23.1578 21.2495H27.4647V26.0102ZM31.2422 10.5867L30.9892 9.12361C30.835 8.23268 30.0669 7.58596 29.1625 7.58596H25.8139V2.75361L51.495 10.5866L31.2422 10.5867ZM23.4702 3.37939V7.5858H20.193C19.2884 7.5858 18.5203 8.23268 18.3663 9.12377L18.1133 10.5866H12.8233L23.4702 3.37939ZM10.432 15.9055H7.62611V12.9305H17.7081L17.1938 15.9055H10.432ZM19.3283 17.3169C19.3295 17.3111 19.3302 17.3052 19.3314 17.2992L20.6056 9.92955H28.75L30.3019 18.9056H19.0536L19.3283 17.3169ZM21.8192 67.4138L25.9961 72.0302H21.8192V67.4138ZM17.2702 77.6563L18.2645 74.3739H31.0195L32.0141 77.6563H17.2702Z" fill="#0E121D"/>
</g>
<defs>
<clipPath id="clip0_7754_8904">
<rect width="80" height="80" fill="white"/>
</clipPath>
</defs>
</svg>
