<svg width="84" height="80" viewBox="0 0 84 80" fill="none" xmlns="http://www.w3.org/2000/svg">
<path d="M82.7695 77.5195H79.5726V25.1518C79.5726 23.5039 78.2422 22.1633 76.6067 22.1633H66.1062C65.4267 22.1633 64.8757 22.7184 64.8757 23.4032C64.8757 24.0879 65.4267 24.6431 66.1062 24.6431H76.6067C76.8851 24.6431 77.1117 24.8712 77.1117 25.1518V77.5197H61.5907V71.3307H70.9774C72.2318 71.3307 73.2526 70.3022 73.2526 69.038V66.1052C73.2526 64.8412 72.232 63.8125 70.9774 63.8125H61.5907V60.1748H70.9774C72.2318 60.1748 73.2526 59.1463 73.2526 57.8821V54.9493C73.2526 53.6853 72.232 52.6567 70.9774 52.6567H61.5907V49.0189H70.9774C72.2318 49.0189 73.2526 47.9905 73.2526 46.7262V43.7936C73.2526 42.5294 72.232 41.5009 70.9774 41.5009H61.5907V37.8632H70.9774C72.2318 37.8632 73.2526 36.8347 73.2526 35.5705V32.6377C73.2526 31.3737 72.232 30.345 70.9774 30.345H61.5907V13.7506C61.5907 12.5402 60.8741 11.4575 59.7655 10.9925L34.1194 0.221962C33.2379 -0.148358 32.2375 -0.0511492 31.4432 0.482509C30.6487 1.01617 30.1744 1.90956 30.1744 2.8724V8.68246H23.6435V3.60179C23.6435 2.91703 23.0926 2.36188 22.4131 2.36188C21.7335 2.36188 21.1826 2.91703 21.1826 3.60179V8.68262H13.7998C12.1644 8.68262 10.8339 10.0232 10.8339 11.6713V15.5593H6.68555C5.05001 15.5593 3.7193 16.8994 3.7193 18.5467V69.474H2.96625C1.33071 69.474 0 70.8149 0 72.463V77.011C0 78.6591 1.33071 80 2.96625 80L82.7695 79.9995C83.4491 79.9995 84 79.4444 84 78.7596C84 78.0748 83.4491 77.5195 82.7695 77.5195ZM70.7917 66.2925V68.8511H61.5907V66.2925H70.7917ZM70.7917 55.1366V57.695H61.5907V55.1366H70.7917ZM70.7917 43.9807V46.5393H61.5907V43.9807H70.7917ZM70.7917 32.825V35.3835H61.5907V32.825H70.7917ZM32.6353 2.8724C32.6353 2.68939 32.7436 2.58937 32.8081 2.54589C32.8727 2.50274 33.0056 2.44041 33.1726 2.51084L47.6707 8.59963V64.4608C47.6707 65.1455 48.2216 65.7007 48.9011 65.7007C49.5807 65.7007 50.1316 65.1455 50.1316 64.4608V9.63305L58.8194 13.2817C59.008 13.3609 59.1299 13.5449 59.1299 13.7506L59.1294 77.52H50.1316V70.275C50.1316 69.5902 49.5807 69.035 48.9011 69.035C48.2216 69.035 47.6707 69.5902 47.6707 70.275V77.52H41.6259V37.1832C41.6259 35.3356 40.1343 33.8323 38.3006 33.8323H32.6353V2.8724ZM38.3006 36.3121C38.7772 36.3121 39.165 36.7028 39.165 37.1832V77.5197H23.6435V37.1832C23.6435 36.703 24.0312 36.3121 24.508 36.3121H38.3006ZM21.1826 37.1832V45.9287H6.18023V36.3121H21.3006C21.2259 36.5905 21.1826 36.8815 21.1826 37.1832ZM6.18023 48.4086H21.1826V58.027H6.18023V48.4086ZM13.295 11.6711C13.295 11.3906 13.5215 11.1623 13.8 11.1623H30.1739V15.5587H13.295V11.6711ZM6.68555 18.039H30.1744V22.3967H14.9407C14.2611 22.3967 13.7102 22.9518 13.7102 23.6366C13.7102 24.3214 14.2611 24.8765 14.9407 24.8765H30.1744V33.8323H6.18023V24.8765H9.21014C9.88969 24.8765 10.4406 24.3214 10.4406 23.6366C10.4406 22.9518 9.88969 22.3967 9.21014 22.3967H6.18023V18.5465C6.18023 18.2668 6.40697 18.039 6.68555 18.039ZM6.18023 60.5069H21.1826V69.474H6.18023V60.5069ZM2.96625 77.52C2.68767 77.52 2.46094 77.2917 2.46094 77.0108V72.4628C2.46094 72.1821 2.68767 71.9536 2.96625 71.9536H21.1826V77.52H2.96625Z" fill="#0E121D"/>
<path d="M28.5533 44.4768C29.2329 44.4768 29.7838 43.9216 29.7838 43.2369V40.5856C29.7838 39.9009 29.2329 39.3457 28.5533 39.3457C27.8738 39.3457 27.3229 39.9009 27.3229 40.5856V43.2369C27.3229 43.9216 27.8736 44.4768 28.5533 44.4768Z" fill="#0E121D"/>
<path d="M34.2096 44.4768C34.8891 44.4768 35.4401 43.9216 35.4401 43.2369V40.5856C35.4401 39.9009 34.8891 39.3457 34.2096 39.3457C33.53 39.3457 32.9791 39.9009 32.9791 40.5856V43.2369C32.9791 43.9216 33.53 44.4768 34.2096 44.4768Z" fill="#0E121D"/>
<path d="M28.5533 53.7405C29.2329 53.7405 29.7838 53.1853 29.7838 52.5005V49.8493C29.7838 49.1645 29.2329 48.6094 28.5533 48.6094C27.8738 48.6094 27.3229 49.1645 27.3229 49.8493V52.5005C27.3229 53.1853 27.8736 53.7405 28.5533 53.7405Z" fill="#0E121D"/>
<path d="M34.2096 53.7405C34.8891 53.7405 35.4401 53.1853 35.4401 52.5005V49.8493C35.4401 49.1645 34.8891 48.6094 34.2096 48.6094C33.53 48.6094 32.9791 49.1645 32.9791 49.8493V52.5005C32.9791 53.1853 33.53 53.7405 34.2096 53.7405Z" fill="#0E121D"/>
<path d="M28.5533 63.0036C29.2329 63.0036 29.7838 62.4485 29.7838 61.7637V59.1125C29.7838 58.4277 29.2329 57.8726 28.5533 57.8726C27.8738 57.8726 27.3229 58.4277 27.3229 59.1125V61.7637C27.3229 62.4485 27.8736 63.0036 28.5533 63.0036Z" fill="#0E121D"/>
<path d="M34.2096 63.0036C34.8891 63.0036 35.4401 62.4485 35.4401 61.7637V59.1125C35.4401 58.4277 34.8891 57.8726 34.2096 57.8726C33.53 57.8726 32.9791 58.4277 32.9791 59.1125V61.7637C32.9791 62.4485 33.53 63.0036 34.2096 63.0036Z" fill="#0E121D"/>
<path d="M28.5533 72.2673C29.2329 72.2673 29.7838 71.7122 29.7838 71.0274V68.3761C29.7838 67.6914 29.2329 67.1362 28.5533 67.1362C27.8738 67.1362 27.3229 67.6914 27.3229 68.3761V71.0274C27.3229 71.7122 27.8736 72.2673 28.5533 72.2673Z" fill="#0E121D"/>
<path d="M34.2096 72.2673C34.8891 72.2673 35.4401 71.7122 35.4401 71.0274V68.3761C35.4401 67.6914 34.8891 67.1362 34.2096 67.1362C33.53 67.1362 32.9791 67.6914 32.9791 68.3761V71.0274C32.9791 71.7122 33.53 72.2673 34.2096 72.2673Z" fill="#0E121D"/>
</svg>
