<svg width="202" height="56" viewBox="0 0 202 56" fill="none" xmlns="http://www.w3.org/2000/svg">
<path fill-rule="evenodd" clip-rule="evenodd" d="M17.0026 24.5025L34.0053 14.5976L17.0026 4.69265V24.5025ZM33.9974 19.2902L17.0026 29.1951V56H0V9.90493L17.0026 0L34.0053 9.90493V14.5976L51 24.5025V56H33.9974V19.2902Z" fill="#FF5E14"/>
<path d="M67 42.7987V13H78.6909C81.637 13 83.7797 13.6846 85.1188 15.0537C86.4848 16.396 87.1677 18.3154 87.1677 20.8121C87.1677 21.9933 86.9936 23.0403 86.6455 23.953C86.3241 24.8389 85.8553 25.5772 85.2393 26.1678C84.6233 26.7315 83.8868 27.1208 83.0297 27.3356C83.6725 27.4966 84.2885 27.7517 84.8778 28.1007C85.4938 28.4497 86.0428 28.9195 86.5249 29.5101C87.0338 30.1007 87.4222 30.8255 87.69 31.6846C87.9846 32.5168 88.1319 33.4832 88.1319 34.5839C88.1319 36.5973 87.7837 38.2081 87.0874 39.4161C86.4178 40.6242 85.4134 41.4966 84.0743 42.0336C82.7619 42.5436 81.1415 42.7987 79.2131 42.7987H67ZM72.9459 37.443H79.0524C79.7488 37.443 80.3514 37.3087 80.8603 37.0403C81.3692 36.7718 81.7575 36.3557 82.0254 35.7919C82.32 35.2282 82.4673 34.4765 82.4673 33.5369C82.4673 32.7584 82.32 32.1007 82.0254 31.5638C81.7307 31.0268 81.329 30.6107 80.8201 30.3154C80.3112 30.0201 79.722 29.8725 79.0524 29.8725H72.9459V37.443ZM72.9459 25.2819H78.731C79.5881 25.2819 80.2577 24.9732 80.7398 24.3557C81.2486 23.7114 81.5031 22.8792 81.5031 21.8591C81.5299 20.5436 81.262 19.6309 80.6996 19.1208C80.1371 18.6107 79.4542 18.3557 78.6507 18.3557H72.9459V25.2819Z" fill="#0E121D"/>
<path d="M103.396 43C101.763 43 100.236 42.8658 98.8165 42.5973C97.397 42.302 96.1516 41.8054 95.0803 41.1074C94.0357 40.3826 93.2188 39.3893 92.6296 38.1275C92.0672 36.8389 91.7859 35.2013 91.7859 33.2148V13H97.7318V33.1745C97.7318 34.2752 97.9461 35.1476 98.3746 35.7919C98.8299 36.4362 99.4727 36.906 100.303 37.2013C101.16 37.4966 102.191 37.6443 103.396 37.6443C104.575 37.6443 105.579 37.4966 106.41 37.2013C107.267 36.906 107.909 36.4362 108.338 35.7919C108.793 35.1476 109.021 34.2752 109.021 33.1745V13H115.007V33.2148C115.007 35.2013 114.712 36.8389 114.123 38.1275C113.534 39.3893 112.717 40.3826 111.672 41.1074C110.628 41.8054 109.396 42.302 107.976 42.5973C106.584 42.8658 105.057 43 103.396 43Z" fill="#0E121D"/>
<path d="M126.76 42.7987C125.233 42.7987 123.934 42.5705 122.863 42.1141C121.818 41.6309 121.028 40.8792 120.493 39.8591C119.984 38.8121 119.729 37.443 119.729 35.7517V13H125.675V34.7852C125.675 35.4295 125.782 35.953 125.997 36.3557C126.238 36.7584 126.559 37.0403 126.961 37.2013C127.363 37.3356 127.818 37.4027 128.327 37.4027H137.728V42.7987H126.76Z" fill="#0E121D"/>
<path d="M141.229 42.7987V13H147.175V42.7987H141.229Z" fill="#0E121D"/>
<path d="M152.332 42.7987V13H164.907C166.916 13 168.589 13.3624 169.929 14.0872C171.268 14.7852 172.326 15.8054 173.102 17.1477C173.906 18.4631 174.468 20.0336 174.79 21.8591C175.111 23.6846 175.272 25.698 175.272 27.8993C175.272 31.255 174.884 34.0336 174.107 36.2349C173.357 38.4362 172.219 40.0872 170.692 41.1879C169.165 42.2617 167.237 42.7987 164.907 42.7987H152.332ZM158.278 37.443H164.304C165.536 37.443 166.514 37.094 167.237 36.396C167.96 35.6711 168.482 34.5973 168.804 33.1745C169.152 31.7517 169.326 29.9933 169.326 27.8993C169.326 25.9664 169.219 24.3825 169.005 23.1476C168.79 21.8859 168.469 20.906 168.04 20.2081C167.639 19.5101 167.116 19.0268 166.474 18.7584C165.858 18.4899 165.134 18.3557 164.304 18.3557H158.278V37.443Z" fill="#0E121D"/>
<path d="M195.291 42.7987L176.73 13H183.319L201.879 42.7987H195.291ZM176.851 42.7987L186.814 26.5302L189.867 31.5638L183.439 42.7987H176.851ZM191.876 29.6309L188.863 24.5973L195.452 13H202L191.876 29.6309Z" fill="#0E121D"/>
</svg>
