<svg width="60" height="60" viewBox="0 0 60 60" fill="none" xmlns="http://www.w3.org/2000/svg">
<path d="M0.566406 16H32.2645V17.1429H0.566406V16Z" fill="white"/>
<path d="M16.415 13.7144H29.9999V14.8572H16.415V13.7144Z" fill="white"/>
<path d="M16.415 11.4286H29.9999V12.5714H16.415V11.4286Z" fill="white"/>
<path d="M7.35849 14.8571C11.4158 14.8571 14.717 11.5246 14.717 7.42857C14.717 3.33257 11.4158 0 7.35849 0C3.30113 0 0 3.33257 0 7.42857C0 11.5246 3.30113 14.8571 7.35849 14.8571ZM7.35849 1.14286C10.7921 1.14286 13.5849 3.96229 13.5849 7.42857C13.5849 10.8949 10.7921 13.7143 7.35849 13.7143C3.92491 13.7143 1.13208 10.8949 1.13208 7.42857C1.13208 3.96229 3.92491 1.14286 7.35849 1.14286Z" fill="white"/>
<path d="M7.35863 10.2858C8.91863 10.2858 10.1888 9.00353 10.1888 7.42868C10.1888 5.85382 8.91863 4.57153 7.35863 4.57153C5.79863 4.57153 4.52844 5.85382 4.52844 7.42868C4.52844 9.00353 5.79863 10.2858 7.35863 10.2858ZM7.35863 5.71439C8.29486 5.71439 9.05674 6.48353 9.05674 7.42868C9.05674 8.37382 8.29486 9.14296 7.35863 9.14296C6.4224 9.14296 5.66052 8.37382 5.66052 7.42868C5.66052 6.48353 6.4224 5.71439 7.35863 5.71439Z" fill="white"/>
<path d="M50.9436 0H40.755V20.5714H31.6984V26.2857H60.0003V20.5714H50.9436V0ZM58.8682 21.7143V25.1429H32.8304V21.7143H41.887V1.14286H49.8116V21.7143H58.8682Z" fill="white"/>
<path d="M31.6984 58.2857H33.9625V60H35.0946V58.2857H56.604V60H57.7361V58.2857H60.0003V38.8572H31.6984V58.2857ZM32.8304 40H58.8682V57.1429H32.8304V40Z" fill="white"/>
<path d="M36.2266 53.7142H55.4718V43.4285H36.2266V53.7142ZM37.3586 44.5713H54.3398V52.5713H37.3586V44.5713Z" fill="white"/>
<path d="M7.35852 48H9.62267V49.1429H7.35852V48Z" fill="white"/>
<path d="M18.6797 48H20.9438V49.1429H18.6797V48Z" fill="white"/>
<path d="M16.8159 37.5474L16.0155 36.7394L14.717 38.0491V28H13.5849V38.0491L12.2875 36.7394L11.4872 37.5474L12.7845 38.8571H0V58.2857H2.26415V60H3.39623V58.2857H24.9057V60H26.0377V58.2857H28.3019V38.8571H15.5174L16.8159 37.5474ZM1.13208 40H13.5849V57.1429H1.13208V40ZM27.1698 57.1429H14.717V40H27.1698V57.1429Z" fill="white"/>
</svg>
