<svg width="63" height="60" viewBox="0 0 63 60" fill="none" xmlns="http://www.w3.org/2000/svg">
<path d="M62.0771 58.1396H59.6795V18.8638C59.6795 17.6279 58.6817 16.6224 57.455 16.6224H49.5796C49.07 16.6224 48.6568 17.0388 48.6568 17.5524C48.6568 18.066 49.07 18.4823 49.5796 18.4823H57.455C57.6638 18.4823 57.8338 18.6534 57.8338 18.8638V58.1398H46.193V53.498H53.233C54.1738 53.498 54.9394 52.7267 54.9394 51.7785V49.5789C54.9394 48.6309 54.174 47.8594 53.233 47.8594H46.193V45.1311H53.233C54.1738 45.1311 54.9394 44.3598 54.9394 43.4116V41.212C54.9394 40.264 54.174 39.4925 53.233 39.4925H46.193V36.7642H53.233C54.1738 36.7642 54.9394 35.9928 54.9394 35.0447V32.8452C54.9394 31.897 54.174 31.1257 53.233 31.1257H46.193V28.3974H53.233C54.1738 28.3974 54.9394 27.626 54.9394 26.6779V24.4783C54.9394 23.5302 54.174 22.7588 53.233 22.7588H46.193V10.3129C46.193 9.40517 45.6556 8.59316 44.8241 8.24437L25.5896 0.166472C24.9284 -0.111269 24.1781 -0.0383619 23.5824 0.361881C22.9865 0.762125 22.6308 1.43217 22.6308 2.1543V6.51184H17.7327V2.70135C17.7327 2.18777 17.3195 1.77141 16.8098 1.77141C16.3001 1.77141 15.887 2.18777 15.887 2.70135V6.51197H10.3498C9.12331 6.51197 8.1254 7.51741 8.1254 8.75348V11.6695H5.01416C3.78751 11.6695 2.78947 12.6746 2.78947 13.91V52.1055H2.22469C0.998033 52.1055 0 53.1112 0 54.3472V57.7582C0 58.9943 0.998033 60 2.22469 60L62.0771 59.9996C62.5868 59.9996 63 59.5833 63 59.0697C63 58.5561 62.5868 58.1396 62.0771 58.1396ZM53.0937 49.7194V51.6383H46.193V49.7194H53.0937ZM53.0937 41.3525V43.2712H46.193V41.3525H53.0937ZM53.0937 32.9856V34.9044H46.193V32.9856H53.0937ZM53.0937 24.6188V26.5376H46.193V24.6188H53.0937ZM24.4765 2.1543C24.4765 2.01704 24.5577 1.94202 24.6061 1.90941C24.6545 1.87705 24.7542 1.83031 24.8795 1.88313L35.753 6.44972V48.3456C35.753 48.8591 36.1662 49.2755 36.6758 49.2755C37.1855 49.2755 37.5987 48.8591 37.5987 48.3456V7.22479L44.1145 9.96127C44.256 10.0207 44.3475 10.1587 44.3475 10.3129L44.3471 58.14H37.5987V52.7062C37.5987 52.1926 37.1855 51.7763 36.6758 51.7763C36.1662 51.7763 35.753 52.1926 35.753 52.7062V58.14H31.2195V27.8874C31.2195 26.5017 30.1007 25.3742 28.7254 25.3742H24.4765V2.1543ZM28.7254 27.2341C29.0829 27.2341 29.3738 27.5271 29.3738 27.8874V58.1398H17.7327V27.8874C17.7327 27.5272 18.0234 27.2341 18.381 27.2341H28.7254ZM15.887 27.8874V34.4465H4.63518V27.2341H15.9754C15.9194 27.4429 15.887 27.6611 15.887 27.8874ZM4.63518 36.3064H15.887V43.5202H4.63518V36.3064ZM9.97123 8.75335C9.97123 8.54294 10.1412 8.37171 10.35 8.37171H22.6304V11.669H9.97123V8.75335ZM5.01416 13.5292H22.6308V16.7975H11.2055C10.6958 16.7975 10.2827 17.2139 10.2827 17.7275C10.2827 18.241 10.6958 18.6574 11.2055 18.6574H22.6308V25.3742H4.63518V18.6574H6.90761C7.41727 18.6574 7.83046 18.241 7.83046 17.7275C7.83046 17.2139 7.41727 16.7975 6.90761 16.7975H4.63518V13.9099C4.63518 13.7001 4.80523 13.5292 5.01416 13.5292ZM4.63518 45.3802H15.887V52.1055H4.63518V45.3802ZM2.22469 58.14C2.01575 58.14 1.8457 57.9688 1.8457 57.7581V54.3471C1.8457 54.1366 2.01575 53.9652 2.22469 53.9652H15.887V58.14H2.22469Z" fill="white"/>
<path d="M21.415 33.3576C21.9247 33.3576 22.3379 32.9412 22.3379 32.4277V30.4392C22.3379 29.9256 21.9247 29.5093 21.415 29.5093C20.9054 29.5093 20.4922 29.9256 20.4922 30.4392V32.4277C20.4922 32.9412 20.9053 33.3576 21.415 33.3576Z" fill="white"/>
<path d="M25.6572 33.3576C26.1669 33.3576 26.5801 32.9412 26.5801 32.4277V30.4392C26.5801 29.9256 26.1669 29.5093 25.6572 29.5093C25.1476 29.5093 24.7344 29.9256 24.7344 30.4392V32.4277C24.7344 32.9412 25.1476 33.3576 25.6572 33.3576Z" fill="white"/>
<path d="M21.415 40.3051C21.9247 40.3051 22.3379 39.8887 22.3379 39.3752V37.3867C22.3379 36.8731 21.9247 36.4568 21.415 36.4568C20.9054 36.4568 20.4922 36.8731 20.4922 37.3867V39.3752C20.4922 39.8887 20.9053 40.3051 21.415 40.3051Z" fill="white"/>
<path d="M25.6572 40.3051C26.1669 40.3051 26.5801 39.8887 26.5801 39.3752V37.3867C26.5801 36.8731 26.1669 36.4568 25.6572 36.4568C25.1476 36.4568 24.7344 36.8731 24.7344 37.3867V39.3752C24.7344 39.8887 25.1476 40.3051 25.6572 40.3051Z" fill="white"/>
<path d="M21.415 47.2527C21.9247 47.2527 22.3379 46.8364 22.3379 46.3228V44.3344C22.3379 43.8208 21.9247 43.4044 21.415 43.4044C20.9054 43.4044 20.4922 43.8208 20.4922 44.3344V46.3228C20.4922 46.8364 20.9053 47.2527 21.415 47.2527Z" fill="white"/>
<path d="M25.6572 47.2527C26.1669 47.2527 26.5801 46.8364 26.5801 46.3228V44.3344C26.5801 43.8208 26.1669 43.4044 25.6572 43.4044C25.1476 43.4044 24.7344 43.8208 24.7344 44.3344V46.3228C24.7344 46.8364 25.1476 47.2527 25.6572 47.2527Z" fill="white"/>
<path d="M21.415 54.2004C21.9247 54.2004 22.3379 53.784 22.3379 53.2704V51.282C22.3379 50.7684 21.9247 50.3521 21.415 50.3521C20.9054 50.3521 20.4922 50.7684 20.4922 51.282V53.2704C20.4922 53.784 20.9053 54.2004 21.415 54.2004Z" fill="white"/>
<path d="M25.6572 54.2004C26.1669 54.2004 26.5801 53.784 26.5801 53.2704V51.282C26.5801 50.7684 26.1669 50.3521 25.6572 50.3521C25.1476 50.3521 24.7344 50.7684 24.7344 51.282V53.2704C24.7344 53.784 25.1476 54.2004 25.6572 54.2004Z" fill="white"/>
</svg>
