<svg width="41" height="42" viewBox="0 0 41 42" fill="none" xmlns="http://www.w3.org/2000/svg">
<path d="M27.5895 21.0321H33.7256C34.0908 21.0321 34.3869 20.7361 34.3869 20.3709V17.2436C34.3869 16.8785 34.0908 16.5824 33.7256 16.5824H27.5895C27.2243 16.5824 26.9282 16.8785 26.9282 17.2436V20.3709C26.9282 20.7361 27.2243 21.0321 27.5895 21.0321ZM28.2508 17.9049H33.0643V19.7096H28.2508V17.9049ZM17.1626 16.1106H22.9559C23.3211 16.1106 23.6172 15.8146 23.6172 15.4494V9.65605C23.6172 9.29087 23.3211 8.99478 22.9559 8.99478H17.1626C16.7974 8.99478 16.5013 9.29087 16.5013 9.65605V15.4494C16.5013 15.8146 16.7974 16.1106 17.1626 16.1106ZM17.8239 10.3173H22.2946V14.7881H17.8239V10.3173ZM23.617 18.0072C23.617 18.3724 23.3209 18.6685 22.9557 18.6685H17.1626C16.7974 18.6685 16.5013 18.3724 16.5013 18.0072C16.5013 17.6421 16.7974 17.346 17.1626 17.346H22.9557C23.3209 17.346 23.617 17.6421 23.617 18.0072ZM37.811 22.0064H36.4131V13.592C36.4131 13.2268 36.117 12.9307 35.7518 12.9307H32.8216V5.23521H33.0028C33.368 5.23521 33.6641 4.93913 33.6641 4.57394C33.6641 4.20875 33.368 3.91267 33.0028 3.91267H28.3122C27.947 3.91267 27.6509 4.20875 27.6509 4.57394C27.6509 4.93913 27.947 5.23521 28.3122 5.23521H28.4935V12.9307H26.2246V7.04866C26.2246 6.68348 25.9285 6.38739 25.5633 6.38739H23.9569V4.57394C23.9569 4.20875 23.6608 3.91267 23.2956 3.91267H16.8226C16.4574 3.91267 16.1613 4.20875 16.1613 4.57394V6.38731H14.555C14.1898 6.38731 13.8937 6.68339 13.8937 7.04858V11.5328L8.92754 9.36559C8.72288 9.27632 8.48738 9.29624 8.30082 9.41841C8.11418 9.54066 8.00176 9.74863 8.00176 9.97165V12.9307H4.36642C4.00124 12.9307 3.70515 13.2268 3.70515 13.592V22.0064H2.30731C1.94212 22.0064 1.64604 22.3024 1.64604 22.6676V25.07C1.64604 25.3436 1.8145 25.5889 2.06975 25.6872L4.69012 26.6958C5.05629 28.0958 5.61135 29.4349 6.34395 30.6853L5.20351 33.2528C5.0925 33.5028 5.14681 33.7953 5.34023 33.9888L8.73784 37.3864C8.93134 37.5799 9.22387 37.6341 9.47383 37.5232L12.0424 36.3824C13.2932 37.115 14.6319 37.67 16.0307 38.0359L17.0396 40.6569C17.1378 40.9122 17.3831 41.0806 17.6567 41.0806H22.4616C22.7352 41.0806 22.9805 40.9122 23.0787 40.6569L24.0873 38.0366C25.4872 37.6706 26.8262 37.1155 28.0769 36.3827L30.6445 37.5232C30.8945 37.6342 31.1869 37.5799 31.3805 37.3864L34.778 33.9888C34.9714 33.7953 35.0258 33.5028 34.9147 33.2528L33.774 30.6843C34.5066 29.4336 35.0615 28.0949 35.4275 26.6959L38.0485 25.6871C38.3038 25.5889 38.4722 25.3435 38.4722 25.0699V22.6676C38.4723 22.3024 38.1762 22.0064 37.811 22.0064ZM29.8161 8.70234H31.499V9.46379H29.8161V8.70234ZM31.499 5.23521V7.37979H29.8161V5.23521H31.499ZM29.8161 10.7863H31.499V12.9307H29.8161V10.7863ZM35.0906 14.2533V22.0064H26.2246V14.2533H35.0906ZM26.6235 23.3289C26.2907 26.6574 23.4739 29.265 20.0592 29.265C16.6446 29.265 13.8278 26.6574 13.495 23.3289H26.6235ZM17.484 5.23521H22.6344V6.38731H17.484V5.23521ZM24.902 7.70993V22.0064H15.2164V7.70993H24.902ZM13.8938 12.9759V22.0064H9.32447V10.9817L13.8938 12.9759ZM5.02778 14.2533H8.00184V22.0064H5.02778V14.2533ZM37.1498 24.6159L34.6317 25.5852C34.4282 25.6634 34.2764 25.8371 34.226 26.0491C33.8693 27.5483 33.2774 28.9757 32.4671 30.2918C32.3528 30.4775 32.3374 30.7076 32.4259 30.9069L33.5219 33.3747L30.7665 36.1301L28.2996 35.0345C28.1004 34.946 27.8702 34.9614 27.6844 35.0758C26.3686 35.8863 24.9408 36.4781 23.4407 36.835C23.2286 36.8855 23.0549 37.0372 22.9767 37.2407L22.0076 39.758H18.1109L17.1416 37.24C17.0633 37.0365 16.8897 36.8847 16.6776 36.8343C15.1786 36.4775 13.7512 35.8857 12.4349 35.0754C12.2491 34.961 12.019 34.9456 11.8199 35.0341L9.35208 36.1301L6.59656 33.3747L7.69229 30.9078C7.78073 30.7085 7.76536 30.4784 7.65096 30.2927C6.84073 28.9771 6.24881 27.5494 5.89173 26.0489C5.84131 25.8369 5.68946 25.6632 5.48604 25.5849L2.96866 24.6159V23.3288H12.1672C12.5044 27.3877 15.9149 30.5875 20.0593 30.5875C24.2037 30.5875 27.6143 27.3876 27.9515 23.3288H37.1499V24.6159H37.1498ZM40.7994 3.91102L38.7237 1.27461C38.5463 1.0492 38.2799 0.919922 37.993 0.919922C37.706 0.919922 37.4397 1.0492 37.2623 1.27461L35.1864 3.91118C34.9642 4.19363 34.9235 4.56981 35.0805 4.89284C35.2373 5.21579 35.5579 5.4164 35.9174 5.4164H36.118V9.76277C36.118 10.128 36.4141 10.424 36.7793 10.424H39.2067C39.5719 10.424 39.868 10.128 39.868 9.76277V5.41648H40.0687C40.4281 5.41648 40.7488 5.21579 40.9056 4.89275C41.0624 4.56972 41.0217 4.19354 40.7994 3.91102ZM39.2067 4.09394C38.8415 4.09394 38.5454 4.39002 38.5454 4.75521V9.10158H37.4405V4.75513C37.4405 4.57973 37.3709 4.41151 37.2468 4.28753C37.1228 4.16354 36.9546 4.09386 36.7792 4.09386H36.7259L37.993 2.48449L39.2601 4.09394H39.2067ZM4.22078 10.4241C4.58597 10.4241 4.88205 10.128 4.88205 9.76285V5.41648H5.08275C5.44223 5.41648 5.76294 5.2157 5.91975 4.89259C6.07655 4.56956 6.0358 4.19338 5.81345 3.91102L3.73772 1.27461C3.56033 1.0492 3.29392 0.919922 3.00702 0.919922C2.72011 0.919922 2.45378 1.0492 2.27631 1.27461L0.2005 3.91126C-0.0217696 4.19371 -0.0624378 4.56989 0.0945313 4.89292C0.251335 5.21587 0.571969 5.41648 0.931452 5.41648H1.13215V9.76285C1.13215 10.128 1.42823 10.4241 1.79342 10.4241H4.22078ZM1.73994 4.09386L3.00702 2.48449L4.27418 4.09394H4.22078C3.85559 4.09394 3.55951 4.39002 3.55951 4.75521V9.10158H2.45469V4.75513C2.45469 4.57973 2.38501 4.41151 2.26094 4.28753C2.13695 4.16354 1.96874 4.09386 1.79334 4.09386H1.73994Z" fill="#0E121D"/>
</svg>
