<svg width="62" height="60" viewBox="0 0 62 60" fill="none" xmlns="http://www.w3.org/2000/svg">
<path d="M50 9.00003H9.9C9.65326 7.78488 8.9638 6.70475 7.96548 5.96934C6.96715 5.23393 5.73118 4.89571 4.49751 5.02032C3.26383 5.14493 2.12047 5.7235 1.28938 6.6437C0.458283 7.5639 -0.00124362 8.76008 2.52787e-06 10V44C0.00132622 45.3257 0.528535 46.5967 1.46593 47.5341C2.40333 48.4715 3.67433 48.9987 5 49H50C50.2652 49 50.5196 48.8947 50.7071 48.7071C50.8946 48.5196 51 48.2652 51 48V10C51 9.73482 50.8946 9.48046 50.7071 9.29292C50.5196 9.10539 50.2652 9.00003 50 9.00003ZM2 10C2 9.20438 2.31607 8.44132 2.87868 7.87871C3.44129 7.3161 4.20435 7.00003 5 7.00003C5.79565 7.00003 6.55871 7.3161 7.12132 7.87871C7.68393 8.44132 8 9.20438 8 10V39.0025C7.13518 38.3519 6.08226 38 5 38C3.91775 38 2.86483 38.3519 2 39.0025V10ZM49 47H5C4.20468 46.999 3.44223 46.6826 2.87985 46.1202C2.31747 45.5578 2.00106 44.7954 2 44V43C2 42.2044 2.31607 41.4413 2.87868 40.8787C3.44129 40.3161 4.20435 40 5 40C5.79565 40 6.55871 40.3161 7.12132 40.8787C7.68393 41.4413 8 42.2044 8 43C8 43.2652 8.10536 43.5196 8.2929 43.7071C8.48043 43.8947 8.73479 44 9 44C9.26522 44 9.51957 43.8947 9.70711 43.7071C9.89465 43.5196 10 43.2652 10 43V11H49V47Z" fill="white"/>
<path d="M61 28H55C54.7348 28 54.4804 28.1054 54.2929 28.2929C54.1054 28.4804 54 28.7348 54 29V52H27C26.7348 52 26.4804 52.1054 26.2929 52.2929C26.1054 52.4804 26 52.7348 26 53V59C26 59.2652 26.1054 59.5196 26.2929 59.7071C26.4804 59.8946 26.7348 60 27 60H61C61.2652 60 61.5196 59.8946 61.7071 59.7071C61.8946 59.5196 62 59.2652 62 59V29C62 28.7348 61.8946 28.4804 61.7071 28.2929C61.5196 28.1054 61.2652 28 61 28ZM60 58H28V54H30V55C30 55.2652 30.1054 55.5196 30.2929 55.7071C30.4804 55.8946 30.7348 56 31 56C31.2652 56 31.5196 55.8946 31.7071 55.7071C31.8946 55.5196 32 55.2652 32 55V54H33V55C33 55.2652 33.1054 55.5196 33.2929 55.7071C33.4804 55.8946 33.7348 56 34 56C34.2652 56 34.5196 55.8946 34.7071 55.7071C34.8946 55.5196 35 55.2652 35 55V54H36V55C36 55.2652 36.1054 55.5196 36.2929 55.7071C36.4804 55.8946 36.7348 56 37 56C37.2652 56 37.5196 55.8946 37.7071 55.7071C37.8946 55.5196 38 55.2652 38 55V54H39V55C39 55.2652 39.1054 55.5196 39.2929 55.7071C39.4804 55.8946 39.7348 56 40 56C40.2652 56 40.5196 55.8946 40.7071 55.7071C40.8946 55.5196 41 55.2652 41 55V54H42V55C42 55.2652 42.1054 55.5196 42.2929 55.7071C42.4804 55.8946 42.7348 56 43 56C43.2652 56 43.5196 55.8946 43.7071 55.7071C43.8946 55.5196 44 55.2652 44 55V54H45V55C45 55.2652 45.1054 55.5196 45.2929 55.7071C45.4804 55.8946 45.7348 56 46 56C46.2652 56 46.5196 55.8946 46.7071 55.7071C46.8946 55.5196 47 55.2652 47 55V54H48V55C48 55.2652 48.1054 55.5196 48.2929 55.7071C48.4804 55.8946 48.7348 56 49 56C49.2652 56 49.5196 55.8946 49.7071 55.7071C49.8946 55.5196 50 55.2652 50 55V54H51V55C51 55.2652 51.1054 55.5196 51.2929 55.7071C51.4804 55.8946 51.7348 56 52 56C52.2652 56 52.5196 55.8946 52.7071 55.7071C52.8946 55.5196 53 55.2652 53 55V54H60V58ZM60 52H56V30H60V52Z" fill="white"/>
<path d="M58 57C58.5523 57 59 56.5523 59 56C59 55.4477 58.5523 55 58 55C57.4477 55 57 55.4477 57 56C57 56.5523 57.4477 57 58 57Z" fill="white"/>
<path d="M12.684 3.94875L18.684 5.94875C18.786 5.98265 18.8927 5.99995 19.0002 6H48.5002C49.163 5.99924 49.7985 5.7356 50.2671 5.26693C50.7358 4.79825 50.9995 4.16281 51.0002 3.5V2.5C50.9995 1.83719 50.7358 1.20175 50.2671 0.733073C49.7985 0.264397 49.163 0.000760917 48.5002 0H19.0002C18.8927 4.55908e-05 18.786 0.0173492 18.684 0.05125L12.684 2.05125C12.4848 2.11759 12.3116 2.24492 12.1888 2.4152C12.0661 2.58549 12 2.79008 12 3C12 3.20992 12.0661 3.41451 12.1888 3.5848C12.3116 3.75508 12.4848 3.88241 12.684 3.94875ZM47.0002 2H48.5002C48.6328 2 48.76 2.05268 48.8538 2.14645C48.9475 2.24021 49.0002 2.36739 49.0002 2.5V3.5C49.0002 3.63261 48.9475 3.75979 48.8538 3.85355C48.76 3.94732 48.6328 4 48.5002 4H47.0002V2ZM44.0002 2H45.0002V4H44.0002V2ZM22.0002 2H42.0002V4H22.0002V2ZM19.1627 2H20.0002V4H19.1627L16.1627 3L19.1627 2Z" fill="white"/>
<path d="M13 45H37C37.2652 45 37.5196 44.8946 37.7071 44.7071C37.8946 44.5196 38 44.2652 38 44V32C38 31.7348 37.8946 31.4804 37.7071 31.2929C37.5196 31.1054 37.2652 31 37 31H26V20C26 19.7348 25.8946 19.4804 25.7071 19.2929C25.5196 19.1054 25.2652 19 25 19H13C12.7348 19 12.4804 19.1054 12.2929 19.2929C12.1054 19.4804 12 19.7348 12 20V44C12 44.2652 12.1054 44.5196 12.2929 44.7071C12.4804 44.8946 12.7348 45 13 45ZM14 33H17C17.2652 33 17.5196 32.8946 17.7071 32.7071C17.8946 32.5196 18 32.2652 18 32C18 31.7348 17.8946 31.4804 17.7071 31.2929C17.5196 31.1054 17.2652 31 17 31H14V21H24V31H21C20.7348 31 20.4804 31.1054 20.2929 31.2929C20.1054 31.4804 20 31.7348 20 32C20 32.2652 20.1054 32.5196 20.2929 32.7071C20.4804 32.8946 20.7348 33 21 33H24V36C24 36.2652 24.1054 36.5196 24.2929 36.7071C24.4804 36.8946 24.7348 37 25 37C25.2652 37 25.5196 36.8946 25.7071 36.7071C25.8946 36.5196 26 36.2652 26 36V33H36V43H26V40C26 39.7348 25.8946 39.4804 25.7071 39.2929C25.5196 39.1054 25.2652 39 25 39C24.7348 39 24.4804 39.1054 24.2929 39.2929C24.1054 39.4804 24 39.7348 24 40V43H14V33Z" fill="white"/>
<path d="M29 15H46C46.2652 15 46.5196 14.8946 46.7071 14.7071C46.8946 14.5196 47 14.2652 47 14C47 13.7348 46.8946 13.4804 46.7071 13.2929C46.5196 13.1054 46.2652 13 46 13H29C28.7348 13 28.4804 13.1054 28.2929 13.2929C28.1054 13.4804 28 13.7348 28 14C28 14.2652 28.1054 14.5196 28.2929 14.7071C28.4804 14.8946 28.7348 15 29 15Z" fill="white"/>
<path d="M29 18H46C46.2652 18 46.5196 17.8946 46.7071 17.7071C46.8946 17.5196 47 17.2652 47 17C47 16.7348 46.8946 16.4804 46.7071 16.2929C46.5196 16.1054 46.2652 16 46 16H29C28.7348 16 28.4804 16.1054 28.2929 16.2929C28.1054 16.4804 28 16.7348 28 17C28 17.2652 28.1054 17.5196 28.2929 17.7071C28.4804 17.8946 28.7348 18 29 18Z" fill="white"/>
<path d="M29 21H38C38.2652 21 38.5196 20.8946 38.7071 20.7071C38.8946 20.5196 39 20.2652 39 20C39 19.7348 38.8946 19.4804 38.7071 19.2929C38.5196 19.1054 38.2652 19 38 19H29C28.7348 19 28.4804 19.1054 28.2929 19.2929C28.1054 19.4804 28 19.7348 28 20C28 20.2652 28.1054 20.5196 28.2929 20.7071C28.4804 20.8946 28.7348 21 29 21Z" fill="white"/>
<path d="M29 25H46C46.2652 25 46.5196 24.8946 46.7071 24.7071C46.8946 24.5196 47 24.2652 47 24C47 23.7348 46.8946 23.4804 46.7071 23.2929C46.5196 23.1054 46.2652 23 46 23H29C28.7348 23 28.4804 23.1054 28.2929 23.2929C28.1054 23.4804 28 23.7348 28 24C28 24.2652 28.1054 24.5196 28.2929 24.7071C28.4804 24.8946 28.7348 25 29 25Z" fill="white"/>
<path d="M29 28H38C38.2652 28 38.5196 27.8946 38.7071 27.7071C38.8946 27.5196 39 27.2652 39 27C39 26.7348 38.8946 26.4804 38.7071 26.2929C38.5196 26.1054 38.2652 26 38 26H29C28.7348 26 28.4804 26.1054 28.2929 26.2929C28.1054 26.4804 28 26.7348 28 27C28 27.2652 28.1054 27.5196 28.2929 27.7071C28.4804 27.8946 28.7348 28 29 28Z" fill="white"/>
</svg>
