<svg width="40" height="40" viewBox="0 0 40 40" fill="none" xmlns="http://www.w3.org/2000/svg">
<path d="M37.9994 8.00047H37.3268C37.3255 7.25248 36.9095 6.53382 36.1895 6.19316L23.523 0.193247C22.979 -0.064749 22.355 -0.0640823 21.811 0.193247L9.14387 6.19316C8.42454 6.53449 8.00855 7.25314 8.00722 8.00047H5.99991V4.00052C5.99991 3.2652 5.40192 2.66721 4.6666 2.66721H3.33328C1.49531 2.66721 0 4.16252 0 6.0005V36.6667V36.6747C0.0126665 38.5714 1.51864 40 3.33328 40H37.9994C39.1021 40 39.9994 39.1027 39.9994 38V10.0004C39.9994 8.89779 39.1021 8.00047 37.9994 8.00047ZM9.71452 7.39781L22.381 1.3979C22.5617 1.3119 22.7703 1.3119 22.9523 1.3979L35.6181 7.39781C35.9508 7.55514 36.0928 7.95314 35.9361 8.2858C35.7835 8.60713 35.3728 8.75712 35.0475 8.60313L22.9523 2.87321C22.8623 2.83054 22.765 2.80921 22.667 2.80921C22.569 2.80921 22.4717 2.83054 22.3817 2.87321L10.2865 8.60246C9.95519 8.76046 9.55519 8.61779 9.39786 8.28513C9.2412 7.95313 9.38319 7.55447 9.71519 7.39714L9.71452 7.39781ZM25.3336 24.0002H20.0004V16.0004C20.0004 15.633 20.299 15.3337 20.667 15.3337H24.667C25.035 15.3337 25.3336 15.633 25.3336 16.0004V24.0002ZM24.667 14.0004H20.667C19.5644 14.0004 18.6671 14.8977 18.6671 16.0004V24.0002H11.6672C11.4865 24.0002 11.3338 23.8076 11.3338 23.5802V9.58178L22.667 4.21319L34.0002 9.58178V23.5802C34.0002 23.8076 33.8475 24.0002 33.6668 24.0002H26.6669V16.0004C26.6669 14.8977 25.7696 14.0004 24.667 14.0004ZM1.33331 6.0005C1.33331 4.89785 2.23063 4.00052 3.33328 4.00052H4.6666V33.3334H3.33328C2.5833 33.3334 1.89064 33.5828 1.33331 34.0014V6.0005ZM38.6661 38C38.6661 38.3674 38.3674 38.6667 37.9994 38.6667H3.33328C2.2593 38.6667 1.33331 37.8274 1.33331 36.6634C1.33531 35.5621 2.23197 34.6667 3.33328 34.6667H4.6666C5.40192 34.6667 5.99991 34.0688 5.99991 33.3334V9.33378H8.52254C8.9032 9.75444 9.44053 9.99177 10.0005 9.9931V23.5802C10.0005 24.5469 10.7478 25.3335 11.6672 25.3335H33.6668C34.5862 25.3335 35.3335 24.5469 35.3335 23.5802V10.0004C35.9081 10.0004 36.4481 9.74977 36.8221 9.33378H37.9994C38.3674 9.33378 38.6661 9.63311 38.6661 10.0004V38Z" fill="#0E121D"/>
<path d="M33.9995 28.667H12.6052C12.0772 28.667 11.5659 28.8217 11.1725 29.0863L7.92724 30.891C7.55525 31.139 7.33325 31.5536 7.33325 32.0003C7.33325 32.4469 7.55525 32.8616 7.97324 33.1383L11.1259 34.8862C11.5659 35.1789 12.0772 35.3342 12.6052 35.3342H33.9995C35.8375 35.3342 37.3328 33.8389 37.3328 32.0009C37.3328 30.163 35.8375 28.667 33.9995 28.667ZM8.62057 32.0283L11.3332 30.5203V33.4863L8.62057 32.0283ZM33.9995 34.0002H12.6665V30.0003H33.9995C35.1022 30.0003 35.9995 30.8976 35.9995 32.0003C35.9995 33.1029 35.1022 34.0002 33.9995 34.0002Z" fill="#0E121D"/>
</svg>
