<svg width="40" height="40" viewBox="0 0 40 40" fill="none" xmlns="http://www.w3.org/2000/svg">
<path d="M39.4141 38.7598H37.8917V12.5759C37.8917 11.7519 37.2582 11.0816 36.4794 11.0816H31.4791C31.1555 11.0816 30.8932 11.3592 30.8932 11.7016C30.8932 12.044 31.1555 12.3215 31.4791 12.3215H36.4794C36.612 12.3215 36.7198 12.4356 36.7198 12.5759V38.7598H29.3289V35.6654H33.7987C34.3961 35.6654 34.8822 35.1511 34.8822 34.519V33.0526C34.8822 32.4206 34.3962 31.9063 33.7987 31.9063H29.3289V30.0874H33.7987C34.3961 30.0874 34.8822 29.5732 34.8822 28.9411V27.4747C34.8822 26.8426 34.3962 26.3283 33.7987 26.3283H29.3289V24.5095H33.7987C34.3961 24.5095 34.8822 23.9952 34.8822 23.3631V21.8968C34.8822 21.2647 34.3962 20.7505 33.7987 20.7505H29.3289V18.9316H33.7987C34.3961 18.9316 34.8822 18.4174 34.8822 17.7853V16.3189C34.8822 15.6868 34.3962 15.1725 33.7987 15.1725H29.3289V6.87528C29.3289 6.27012 28.9877 5.72877 28.4598 5.49625L16.2473 0.110981C15.8276 -0.0741791 15.3512 -0.0255746 14.973 0.241254C14.5946 0.508083 14.3687 0.954782 14.3687 1.4362V4.34123H11.2588V1.8009C11.2588 1.45852 10.9965 1.18094 10.6729 1.18094C10.3493 1.18094 10.087 1.45852 10.087 1.8009V4.34131H6.57133C5.79258 4.34131 5.15898 5.01161 5.15898 5.83565V7.77967H3.18359C2.40477 7.77967 1.77109 8.44971 1.77109 9.27335V34.737H1.4125C0.633672 34.737 0 35.4075 0 36.2315V38.5055C0 39.3295 0.633672 40 1.4125 40L39.4141 39.9998C39.7377 39.9998 40 39.7222 40 39.3798C40 39.0374 39.7377 38.7598 39.4141 38.7598ZM33.7103 33.1463V34.4255H29.3289V33.1463H33.7103ZM33.7103 27.5683V28.8475H29.3289V27.5683H33.7103ZM33.7103 21.9904V23.2696H29.3289V21.9904H33.7103ZM33.7103 16.4125V17.6918H29.3289V16.4125H33.7103ZM15.5406 1.4362C15.5406 1.34469 15.5922 1.29468 15.6229 1.27294C15.6537 1.25137 15.717 1.22021 15.7965 1.25542L22.7003 4.29981V32.2304C22.7003 32.5728 22.9627 32.8503 23.2862 32.8503C23.6098 32.8503 23.8722 32.5728 23.8722 32.2304V4.81653L28.0092 6.64085C28.0991 6.68044 28.1571 6.77245 28.1571 6.87528L28.1569 38.76H23.8722V35.1375C23.8722 34.7951 23.6098 34.5175 23.2862 34.5175C22.9627 34.5175 22.7003 34.7951 22.7003 35.1375V38.76H19.8219V18.5916C19.8219 17.6678 19.1116 16.9162 18.2384 16.9162H15.5406V1.4362ZM18.2384 18.1561C18.4653 18.1561 18.65 18.3514 18.65 18.5916V38.7598H11.2588V18.5916C11.2588 18.3515 11.4434 18.1561 11.6705 18.1561H18.2384ZM10.087 18.5916V22.9644H2.94297V18.1561H10.1431C10.1076 18.2953 10.087 18.4408 10.087 18.5916ZM2.94297 24.2043H10.087V29.0135H2.94297V24.2043ZM6.33094 5.83557C6.33094 5.69529 6.43883 5.58114 6.57141 5.58114H14.3685V7.77934H6.33094V5.83557ZM3.18359 9.0195H14.3687V11.1983H7.11461C6.79102 11.1983 6.52867 11.4759 6.52867 11.8183C6.52867 12.1607 6.79102 12.4383 7.11461 12.4383H14.3687V16.9162H2.94297V12.4383H4.38578C4.70937 12.4383 4.97172 12.1607 4.97172 11.8183C4.97172 11.4759 4.70937 11.1983 4.38578 11.1983H2.94297V9.27326C2.94297 9.1334 3.05094 9.0195 3.18359 9.0195ZM2.94297 30.2535H10.087V34.737H2.94297V30.2535ZM1.4125 38.76C1.27984 38.76 1.17188 38.6459 1.17188 38.5054V36.2314C1.17188 36.0911 1.27984 35.9768 1.4125 35.9768H10.087V38.76H1.4125Z" fill="#0E121D"/>
<path d="M13.597 22.2384C13.9206 22.2384 14.183 21.9608 14.183 21.6184V20.2928C14.183 19.9504 13.9206 19.6729 13.597 19.6729C13.2735 19.6729 13.0111 19.9504 13.0111 20.2928V21.6184C13.0111 21.9608 13.2734 22.2384 13.597 22.2384Z" fill="#0E121D"/>
<path d="M16.2899 22.2384C16.6135 22.2384 16.8759 21.9608 16.8759 21.6184V20.2928C16.8759 19.9504 16.6135 19.6729 16.2899 19.6729C15.9663 19.6729 15.704 19.9504 15.704 20.2928V21.6184C15.704 21.9608 15.9663 22.2384 16.2899 22.2384Z" fill="#0E121D"/>
<path d="M13.597 26.8702C13.9206 26.8702 14.183 26.5927 14.183 26.2503V24.9246C14.183 24.5823 13.9206 24.3047 13.597 24.3047C13.2735 24.3047 13.0111 24.5823 13.0111 24.9246V26.2503C13.0111 26.5927 13.2734 26.8702 13.597 26.8702Z" fill="#0E121D"/>
<path d="M16.2899 26.8702C16.6135 26.8702 16.8759 26.5927 16.8759 26.2503V24.9246C16.8759 24.5823 16.6135 24.3047 16.2899 24.3047C15.9663 24.3047 15.704 24.5823 15.704 24.9246V26.2503C15.704 26.5927 15.9663 26.8702 16.2899 26.8702Z" fill="#0E121D"/>
<path d="M13.597 31.5021C13.9206 31.5021 14.183 31.2245 14.183 30.8821V29.5565C14.183 29.2141 13.9206 28.9365 13.597 28.9365C13.2735 28.9365 13.0111 29.2141 13.0111 29.5565V30.8821C13.0111 31.2245 13.2734 31.5021 13.597 31.5021Z" fill="#0E121D"/>
<path d="M16.2899 31.5021C16.6135 31.5021 16.8759 31.2245 16.8759 30.8821V29.5565C16.8759 29.2141 16.6135 28.9365 16.2899 28.9365C15.9663 28.9365 15.704 29.2141 15.704 29.5565V30.8821C15.704 31.2245 15.9663 31.5021 16.2899 31.5021Z" fill="#0E121D"/>
<path d="M13.597 36.1339C13.9206 36.1339 14.183 35.8563 14.183 35.5139V34.1883C14.183 33.8459 13.9206 33.5684 13.597 33.5684C13.2735 33.5684 13.0111 33.8459 13.0111 34.1883V35.5139C13.0111 35.8563 13.2734 36.1339 13.597 36.1339Z" fill="#0E121D"/>
<path d="M16.2899 36.1339C16.6135 36.1339 16.8759 35.8563 16.8759 35.5139V34.1883C16.8759 33.8459 16.6135 33.5684 16.2899 33.5684C15.9663 33.5684 15.704 33.8459 15.704 34.1883V35.5139C15.704 35.8563 15.9663 36.1339 16.2899 36.1339Z" fill="#0E121D"/>
</svg>
