<svg width="40" height="42" viewBox="0 0 40 42" fill="none" xmlns="http://www.w3.org/2000/svg">
<path d="M39.5001 4.27506H35.9195V3.08153C35.9195 2.95634 35.8727 2.83615 35.7884 2.7435L34.241 1.04835C34.1459 0.944025 34.0115 0.884766 33.8713 0.884766H32.8839C32.7428 0.884766 32.6093 0.944025 32.5141 1.04835L30.9667 2.7435C30.8824 2.83615 30.8357 2.95634 30.8357 3.0807V4.27506H20.9636C20.8476 4.27506 20.7357 4.31513 20.6456 4.38857L16.5141 7.77887C16.3505 7.91325 16.2888 8.13526 16.3606 8.33474C16.4315 8.53422 16.6201 8.66693 16.8321 8.66693H18.7084V11.7401C18.4405 11.6883 18.1509 11.6616 17.8362 11.6616C17.0867 11.6616 16.2963 11.9896 15.667 12.5613C15.4625 12.7475 15.4475 13.0638 15.6328 13.2691C15.8189 13.4736 16.1352 13.4886 16.3405 13.3033C16.7812 12.9035 17.3396 12.664 17.8362 12.664C18.8845 12.664 19.4738 12.9837 19.8702 13.7674C19.9553 13.936 20.1281 14.042 20.3167 14.042H23.4183L24.2738 14.976C24.3689 15.0794 24.5025 15.1387 24.6427 15.1387C24.7829 15.1387 24.9173 15.0794 25.0116 14.976L25.6467 14.2824L26.2819 14.976C26.377 15.0794 26.5106 15.1387 26.6508 15.1387C26.791 15.1387 26.9254 15.0794 27.0197 14.976L27.6949 14.2381L28.507 14.9417L27.4679 15.8415H20.3142C20.1256 15.8415 19.9528 15.9475 19.8677 16.1161C19.4713 16.8998 18.882 17.2195 17.8337 17.2195C17.1376 17.2195 16.3197 16.7454 15.8773 16.0293L16.409 16.2271C16.6685 16.3239 16.9565 16.1912 17.0525 15.9324C17.1485 15.6729 17.0166 15.3849 16.7579 15.2889L15.2421 14.7256C14.9826 14.6287 14.6946 14.7614 14.5986 15.0202L14.0353 16.5359C13.9393 16.7955 14.0712 17.0834 14.3299 17.1794C14.3875 17.2011 14.4467 17.2111 14.5043 17.2111C14.708 17.2111 14.8991 17.0867 14.9734 16.8848L15.0694 16.6269C15.6753 17.5642 16.737 18.2219 17.8329 18.2219C19.1382 18.2219 20.028 17.782 20.6072 16.8439H27.654C27.7742 16.8439 27.8911 16.8005 27.9821 16.722L29.6004 15.3215C29.7106 15.2263 29.7732 15.0886 29.7732 14.9426C29.7732 14.7965 29.7098 14.6588 29.6004 14.5636L27.9821 13.1631C27.7767 12.9853 27.4679 13.0037 27.2851 13.2032L26.65 13.8968L26.0148 13.2032C25.9197 13.0997 25.7861 13.0404 25.6459 13.0404C25.5057 13.0404 25.3713 13.0997 25.277 13.2032L24.6418 13.8968L24.0067 13.2032C23.9115 13.0997 23.778 13.0404 23.6378 13.0404H20.6089C20.366 12.6473 20.068 12.3427 19.7083 12.1198V8.66693H30.8348V28.0046H28.6281V24.9916L30.3741 21.9677C30.4634 21.8125 30.4634 21.6222 30.3741 21.4669C30.2848 21.3117 30.1196 21.2165 29.9401 21.2165H12.9452V14.8341C12.9452 14.6204 12.81 14.4309 12.608 14.3608L0.664371 10.2252C0.511633 10.1718 0.342201 10.1968 0.210329 10.2903C0.0784558 10.3846 0 10.5365 0 10.6984V34.9363V40.6143C0 40.8906 0.224517 41.1151 0.500782 41.1151H17.9697H21.8425H39.3114C39.5877 41.1151 39.8122 40.8906 39.8122 40.6143V34.9363V28.5054C39.8122 28.2292 39.5877 28.0046 39.3114 28.0046H35.9186V8.66693H39.4992C39.7755 8.66693 40 8.44241 40 8.16614V4.77585C40.0008 4.49958 39.7763 4.27506 39.5001 4.27506ZM38.1129 5.27663L35.9186 7.09864V5.27663H38.1129ZM34.9179 24.6152H32.7236L34.9179 22.7932V24.6152ZM31.8372 12.6231L34.0315 14.4451H31.8372V12.6231ZM31.8372 15.4467H34.0315L31.8372 17.2687V15.4467ZM31.8372 19.4029L34.0315 21.2249H31.8372V19.4029ZM34.9179 20.659L32.7236 18.837H34.9179V20.659ZM31.8372 22.2264H34.0315L31.8372 24.0485V22.2264ZM34.9179 17.8354H32.7236L34.9179 16.0134V17.8354ZM32.7236 12.0572H34.9179V13.8792L32.7236 12.0572ZM34.9179 11.0557H32.7236L34.9179 9.23364V11.0557ZM25.8679 7.66536H23.6737V5.84335L25.8679 7.66536ZM24.56 5.27663H26.7543V7.09864L24.56 5.27663ZM27.7559 5.27663H29.9501L27.7559 7.09864V5.27663ZM34.0315 7.66536H31.8372V5.84335L34.0315 7.66536ZM32.7236 5.27663H34.9179V7.09864L32.7236 5.27663ZM31.8372 3.27517L33.1051 1.88717H33.6501L34.9179 3.27517V4.27506H31.8381V3.27517H31.8372ZM21.143 5.27663H22.6729V7.66536H18.2318L21.143 5.27663ZM28.6414 7.66536L30.8357 5.84335V7.66536H28.6414ZM34.0315 8.66693L31.8372 10.4889V8.66693H34.0315ZM30.9592 34.4355V33.2829H32.8914V34.4355H30.9592ZM32.8906 32.2813H30.9592V31.1612H32.8914V32.2813H32.8906ZM32.8906 30.1597H30.9592V29.007H32.8914V30.1597H32.8906ZM29.9576 29.0062V34.4355H28.6297V29.0062H29.9576ZM29.0738 22.2181L27.8435 24.3489H12.9452V22.2181H29.0738ZM11.9437 15.1905V34.4355H1.00156V11.4012L11.9437 15.1905ZM17.469 40.1136H1.00156V35.4371H17.469V40.1136ZM18.4705 37.078H21.3417V40.1136H18.4705V37.078ZM21.3417 34.9363V36.0764H18.4705V34.9363C18.4705 34.66 18.246 34.4355 17.9697 34.4355H12.9452V25.3505H27.6273V34.4355H21.8425C21.5662 34.4355 21.3417 34.66 21.3417 34.9363ZM38.8115 40.1136H22.3441V35.4371H38.8115V40.1136ZM38.8115 34.4355H33.893V29.0062H38.8115V34.4355ZM31.8372 28.0046V25.6159H34.9171V28.0046H31.8372ZM36.805 7.66536L38.9993 5.84335V7.66536H36.805ZM21.0162 15.4425C20.7399 15.4425 20.5154 15.218 20.5154 14.9417C20.5154 14.6655 20.7399 14.4409 21.0162 14.4409H22.8599C23.1362 14.4409 23.3607 14.6655 23.3607 14.9417C23.3607 15.218 23.1362 15.4425 22.8599 15.4425H21.0162ZM15.2188 26.665V27.2668C15.2188 27.5431 14.9943 27.7676 14.718 27.7676C14.4417 27.7676 14.2172 27.5431 14.2172 27.2668V26.665C14.2172 26.3888 14.4417 26.1643 14.718 26.1643C14.9943 26.1643 15.2188 26.3879 15.2188 26.665ZM18.0031 26.665V27.2668C18.0031 27.5431 17.7786 27.7676 17.5023 27.7676C17.2261 27.7676 17.0016 27.5431 17.0016 27.2668V26.665C17.0016 26.3888 17.2261 26.1643 17.5023 26.1643C17.7786 26.1643 18.0031 26.3879 18.0031 26.665ZM20.7875 26.665V27.2668C20.7875 27.5431 20.563 27.7676 20.2867 27.7676C20.0104 27.7676 19.7859 27.5431 19.7859 27.2668V26.665C19.7859 26.3888 20.0104 26.1643 20.2867 26.1643C20.563 26.1643 20.7875 26.3879 20.7875 26.665ZM23.571 26.665V27.2668C23.571 27.5431 23.3465 27.7676 23.0702 27.7676C22.7939 27.7676 22.5694 27.5431 22.5694 27.2668V26.665C22.5694 26.3888 22.7939 26.1643 23.0702 26.1643C23.3465 26.1643 23.571 26.3879 23.571 26.665ZM26.3553 26.665V27.2668C26.3553 27.5431 26.1308 27.7676 25.8546 27.7676C25.5783 27.7676 25.3538 27.5431 25.3538 27.2668V26.665C25.3538 26.3888 25.5783 26.1643 25.8546 26.1643C26.1308 26.1643 26.3553 26.3879 26.3553 26.665ZM15.2188 29.5779V30.1797C15.2188 30.456 14.9943 30.6805 14.718 30.6805C14.4417 30.6805 14.2172 30.456 14.2172 30.1797V29.5779C14.2172 29.3017 14.4417 29.0772 14.718 29.0772C14.9943 29.0772 15.2188 29.3017 15.2188 29.5779ZM18.0031 29.5779V30.1797C18.0031 30.456 17.7786 30.6805 17.5023 30.6805C17.2261 30.6805 17.0016 30.456 17.0016 30.1797V29.5779C17.0016 29.3017 17.2261 29.0772 17.5023 29.0772C17.7786 29.0772 18.0031 29.3017 18.0031 29.5779ZM20.7875 29.5779V30.1797C20.7875 30.456 20.563 30.6805 20.2867 30.6805C20.0104 30.6805 19.7859 30.456 19.7859 30.1797V29.5779C19.7859 29.3017 20.0104 29.0772 20.2867 29.0772C20.563 29.0772 20.7875 29.3017 20.7875 29.5779ZM23.571 29.5779V30.1797C23.571 30.456 23.3465 30.6805 23.0702 30.6805C22.7939 30.6805 22.5694 30.456 22.5694 30.1797V29.5779C22.5694 29.3017 22.7939 29.0772 23.0702 29.0772C23.3465 29.0772 23.571 29.3017 23.571 29.5779ZM26.3553 29.5779V30.1797C26.3553 30.456 26.1308 30.6805 25.8546 30.6805C25.5783 30.6805 25.3538 30.456 25.3538 30.1797V29.5779C25.3538 29.3017 25.5783 29.0772 25.8546 29.0772C26.1308 29.0772 26.3553 29.3017 26.3553 29.5779ZM15.2188 32.4917V33.0934C15.2188 33.3697 14.9943 33.5942 14.718 33.5942C14.4417 33.5942 14.2172 33.3697 14.2172 33.0934V32.4917C14.2172 32.2154 14.4417 31.9909 14.718 31.9909C14.9943 31.9909 15.2188 32.2154 15.2188 32.4917ZM18.0031 32.4917V33.0934C18.0031 33.3697 17.7786 33.5942 17.5023 33.5942C17.2261 33.5942 17.0016 33.3697 17.0016 33.0934V32.4917C17.0016 32.2154 17.2261 31.9909 17.5023 31.9909C17.7786 31.9909 18.0031 32.2154 18.0031 32.4917ZM20.7875 32.4917V33.0934C20.7875 33.3697 20.563 33.5942 20.2867 33.5942C20.0104 33.5942 19.7859 33.3697 19.7859 33.0934V32.4917C19.7859 32.2154 20.0104 31.9909 20.2867 31.9909C20.563 31.9909 20.7875 32.2154 20.7875 32.4917ZM23.571 32.4917V33.0934C23.571 33.3697 23.3465 33.5942 23.0702 33.5942C22.7939 33.5942 22.5694 33.3697 22.5694 33.0934V32.4917C22.5694 32.2154 22.7939 31.9909 23.0702 31.9909C23.3465 31.9909 23.571 32.2154 23.571 32.4917ZM26.3553 32.4917V33.0934C26.3553 33.3697 26.1308 33.5942 25.8546 33.5942C25.5783 33.5942 25.3538 33.3697 25.3538 33.0934V32.4917C25.3538 32.2154 25.5783 31.9909 25.8546 31.9909C26.1308 31.9909 26.3553 32.2154 26.3553 32.4917ZM2.0023 17.9022V17.3004C2.0023 17.0242 2.22681 16.7996 2.50308 16.7996C2.77934 16.7996 3.00386 17.0242 3.00386 17.3004V17.9022C3.00386 18.1785 2.77934 18.403 2.50308 18.403C2.22681 18.403 2.0023 18.1785 2.0023 17.9022ZM4.64893 17.9022V17.3004C4.64893 17.0242 4.87345 16.7996 5.14971 16.7996C5.42598 16.7996 5.6505 17.0242 5.6505 17.3004V17.9022C5.6505 18.1785 5.42598 18.403 5.14971 18.403C4.87345 18.403 4.64893 18.1785 4.64893 17.9022ZM7.29473 17.9022V17.3004C7.29473 17.0242 7.51925 16.7996 7.79551 16.7996C8.07178 16.7996 8.2963 17.0242 8.2963 17.3004V17.9022C8.2963 18.1785 8.07178 18.403 7.79551 18.403C7.51925 18.403 7.29473 18.1785 7.29473 17.9022ZM9.94137 17.9022V17.3004C9.94137 17.0242 10.1659 16.7996 10.4421 16.7996C10.7184 16.7996 10.9429 17.0242 10.9429 17.3004V17.9022C10.9429 18.1785 10.7184 18.403 10.4421 18.403C10.1659 18.403 9.94137 18.1785 9.94137 17.9022ZM2.0023 20.8159V20.2141C2.0023 19.9379 2.22681 19.7134 2.50308 19.7134C2.77934 19.7134 3.00386 19.9379 3.00386 20.2141V20.8159C3.00386 21.0922 2.77934 21.3167 2.50308 21.3167C2.22681 21.3167 2.0023 21.0922 2.0023 20.8159ZM4.64893 20.8159V20.2141C4.64893 19.9379 4.87345 19.7134 5.14971 19.7134C5.42598 19.7134 5.6505 19.9379 5.6505 20.2141V20.8159C5.6505 21.0922 5.42598 21.3167 5.14971 21.3167C4.87345 21.3167 4.64893 21.0922 4.64893 20.8159ZM7.29473 20.8159V20.2141C7.29473 19.9379 7.51925 19.7134 7.79551 19.7134C8.07178 19.7134 8.2963 19.9379 8.2963 20.2141V20.8159C8.2963 21.0922 8.07178 21.3167 7.79551 21.3167C7.51925 21.3167 7.29473 21.0922 7.29473 20.8159ZM9.94137 20.8159V20.2141C9.94137 19.9379 10.1659 19.7134 10.4421 19.7134C10.7184 19.7134 10.9429 19.9379 10.9429 20.2141V20.8159C10.9429 21.0922 10.7184 21.3167 10.4421 21.3167C10.1659 21.3167 9.94137 21.0922 9.94137 20.8159ZM2.0023 23.7288V23.127C2.0023 22.8508 2.22681 22.6262 2.50308 22.6262C2.77934 22.6262 3.00386 22.8508 3.00386 23.127V23.7288C3.00386 24.0051 2.77934 24.2296 2.50308 24.2296C2.22681 24.2296 2.0023 24.0059 2.0023 23.7288ZM4.64893 23.7288V23.127C4.64893 22.8508 4.87345 22.6262 5.14971 22.6262C5.42598 22.6262 5.6505 22.8508 5.6505 23.127V23.7288C5.6505 24.0051 5.42598 24.2296 5.14971 24.2296C4.87345 24.2296 4.64893 24.0059 4.64893 23.7288ZM7.29473 23.7288V23.127C7.29473 22.8508 7.51925 22.6262 7.79551 22.6262C8.07178 22.6262 8.2963 22.8508 8.2963 23.127V23.7288C8.2963 24.0051 8.07178 24.2296 7.79551 24.2296C7.51925 24.2296 7.29473 24.0059 7.29473 23.7288ZM9.94137 23.7288V23.127C9.94137 22.8508 10.1659 22.6262 10.4421 22.6262C10.7184 22.6262 10.9429 22.8508 10.9429 23.127V23.7288C10.9429 24.0051 10.7184 24.2296 10.4421 24.2296C10.1659 24.2296 9.94137 24.0059 9.94137 23.7288ZM2.0023 29.5562V28.9545C2.0023 28.6782 2.22681 28.4537 2.50308 28.4537C2.77934 28.4537 3.00386 28.6782 3.00386 28.9545V29.5562C3.00386 29.8325 2.77934 30.057 2.50308 30.057C2.22681 30.057 2.0023 29.8325 2.0023 29.5562ZM4.64893 29.5562V28.9545C4.64893 28.6782 4.87345 28.4537 5.14971 28.4537C5.42598 28.4537 5.6505 28.6782 5.6505 28.9545V29.5562C5.6505 29.8325 5.42598 30.057 5.14971 30.057C4.87345 30.057 4.64893 29.8325 4.64893 29.5562ZM7.29473 29.5562V28.9545C7.29473 28.6782 7.51925 28.4537 7.79551 28.4537C8.07178 28.4537 8.2963 28.6782 8.2963 28.9545V29.5562C8.2963 29.8325 8.07178 30.057 7.79551 30.057C7.51925 30.057 7.29473 29.8325 7.29473 29.5562ZM9.94137 29.5562V28.9545C9.94137 28.6782 10.1659 28.4537 10.4421 28.4537C10.7184 28.4537 10.9429 28.6782 10.9429 28.9545V29.5562C10.9429 29.8325 10.7184 30.057 10.4421 30.057C10.1659 30.057 9.94137 29.8325 9.94137 29.5562ZM2.0023 26.6425V26.0407C2.0023 25.7645 2.22681 25.54 2.50308 25.54C2.77934 25.54 3.00386 25.7645 3.00386 26.0407V26.6425C3.00386 26.9188 2.77934 27.1433 2.50308 27.1433C2.22681 27.1433 2.0023 26.9196 2.0023 26.6425ZM4.64893 26.6425V26.0407C4.64893 25.7645 4.87345 25.54 5.14971 25.54C5.42598 25.54 5.6505 25.7645 5.6505 26.0407V26.6425C5.6505 26.9188 5.42598 27.1433 5.14971 27.1433C4.87345 27.1433 4.64893 26.9196 4.64893 26.6425ZM7.29473 26.6425V26.0407C7.29473 25.7645 7.51925 25.54 7.79551 25.54C8.07178 25.54 8.2963 25.7645 8.2963 26.0407V26.6425C8.2963 26.9188 8.07178 27.1433 7.79551 27.1433C7.51925 27.1433 7.29473 26.9196 7.29473 26.6425ZM9.94137 26.6425V26.0407C9.94137 25.7645 10.1659 25.54 10.4421 25.54C10.7184 25.54 10.9429 25.7645 10.9429 26.0407V26.6425C10.9429 26.9188 10.7184 27.1433 10.4421 27.1433C10.1659 27.1433 9.94137 26.9196 9.94137 26.6425ZM2.0023 32.47V31.8682C2.0023 31.5919 2.22681 31.3674 2.50308 31.3674C2.77934 31.3674 3.00386 31.5919 3.00386 31.8682V32.47C3.00386 32.7462 2.77934 32.9707 2.50308 32.9707C2.22681 32.9707 2.0023 32.7462 2.0023 32.47ZM4.64893 32.47V31.8682C4.64893 31.5919 4.87345 31.3674 5.14971 31.3674C5.42598 31.3674 5.6505 31.5919 5.6505 31.8682V32.47C5.6505 32.7462 5.42598 32.9707 5.14971 32.9707C4.87345 32.9707 4.64893 32.7462 4.64893 32.47ZM7.29473 32.47V31.8682C7.29473 31.5919 7.51925 31.3674 7.79551 31.3674C8.07178 31.3674 8.2963 31.5919 8.2963 31.8682V32.47C8.2963 32.7462 8.07178 32.9707 7.79551 32.9707C7.51925 32.9707 7.29473 32.7462 7.29473 32.47ZM9.94137 32.47V31.8682C9.94137 31.5919 10.1659 31.3674 10.4421 31.3674C10.7184 31.3674 10.9429 31.5919 10.9429 31.8682V32.47C10.9429 32.7462 10.7184 32.9707 10.4421 32.9707C10.1659 32.9707 9.94137 32.7462 9.94137 32.47Z" fill="#0E121D"/>
</svg>
