<svg width="60" height="60" viewBox="0 0 60 60" fill="none" xmlns="http://www.w3.org/2000/svg">
<path fill-rule="evenodd" clip-rule="evenodd" d="M55.5314 0.166441C55.2903 0.252626 54.9475 0.41842 54.7696 0.534899C54.0306 1.01854 46.459 6.73551 46.2704 6.95215C45.9153 7.3603 46.0088 7.94621 46.5421 8.65377C46.8044 9.00168 47.0021 9.33233 46.9817 9.38858C46.9612 9.44482 46.3655 9.93116 45.658 10.4693C44.5493 11.3125 44.3226 11.5439 44.017 12.1451C43.6705 12.8266 43.6624 12.8813 43.6624 14.5522C43.6624 15.7234 43.6153 16.3443 43.5129 16.524C43.4306 16.6683 42.8423 17.1815 42.2054 17.6646L41.0477 18.5428L38.6352 15.3214C35.9528 11.7395 35.7947 11.5933 34.6211 11.6073C33.8857 11.6161 33.411 11.8353 32.9945 12.3583C32.8276 12.5678 30.8495 16.1737 28.5985 20.3714L24.5059 28.0036L12.5752 28.0623C6.01346 28.0946 0.559465 28.1635 0.455379 28.2155C0.0266077 28.4297 0 28.7776 0 34.1789V39.4625L0.287762 39.7507L0.575406 40.0389H4.27306H7.97059V44.0899V48.1408H4.27306H0.575406L0.287762 48.429L0 48.7172V54.0493C0 59.2657 0.00527464 59.3879 0.242986 59.6906L0.485854 60H25.0157H49.5454L49.7687 59.753C49.9792 59.5201 49.9939 59.2375 50.0252 54.8261L50.0583 50.1464L53.7571 50.1122L57.4556 50.0782L57.7385 49.7487L58.0212 49.4192V44.0899V38.7605L57.7385 38.431L57.4556 38.1015L53.7571 38.0675L50.0583 38.0333L50.0252 33.3311L49.992 28.6288L49.6631 28.3456C49.3685 28.0918 49.225 28.0623 48.2858 28.0623H47.2375V27.6688C47.2375 27.4524 47.1775 27.0958 47.1042 26.8762C47.0308 26.6568 45.9231 25.0719 44.6427 23.3544C43.3621 21.6369 42.3145 20.1991 42.3145 20.1593C42.3145 20.1196 42.7233 19.7878 43.2229 19.422C44.4718 18.5075 44.9773 18.0059 45.3428 17.3185C45.6411 16.7577 45.6551 16.6525 45.6551 14.9702C45.6551 13.5384 45.6905 13.1589 45.8441 12.9414C46.0251 12.6856 48.1432 11.0338 48.2834 11.0392C48.3205 11.0408 48.5356 11.3073 48.7613 11.6317C49.1846 12.2404 49.6285 12.5631 50.0424 12.5631C50.3432 12.5631 59.0697 6.02185 59.4127 5.53926C60.2164 4.40852 60.1945 3.08369 59.3516 1.84423C58.2896 0.282685 56.906 -0.324954 55.5314 0.166441ZM56.8812 2.13014C57.1678 2.28372 57.4435 2.58854 57.799 3.14463C57.9855 3.4363 58.0269 3.63063 57.9689 3.94026C57.8987 4.31517 57.5731 4.58982 54.1273 7.18123C52.0566 8.73855 50.2966 10.0185 50.2161 10.0256C50.0288 10.0422 48.3771 7.84887 48.4962 7.74155C49.2216 7.08706 56.2169 1.99546 56.3907 1.99546C56.5224 1.99546 56.7431 2.05605 56.8812 2.13014ZM37.1536 16.6661C38.3827 18.3093 39.3744 19.6935 39.357 19.7423C39.3397 19.791 38.4024 20.5222 37.2742 21.3671C36.146 22.2122 35.1571 22.9911 35.0765 23.0983C34.8212 23.4375 34.9029 23.9435 35.2726 24.3139C35.6355 24.6775 36.006 24.7406 36.4011 24.5063C36.5868 24.396 39.7874 22.0295 40.5192 21.4613C40.6903 21.3285 45.2944 27.4114 45.2031 27.6497C45.1322 27.8346 45.798 27.683 34.3639 30.1176C29.3141 31.1928 25.1076 32.0437 25.016 32.0085C24.9244 31.9732 24.8495 31.8659 24.8495 31.7699C24.8495 31.6738 27.0202 27.5481 29.6732 22.6018C33.5506 15.3726 34.5382 13.6152 34.7078 13.6433C34.8254 13.6631 35.9069 14.9996 37.1536 16.6661ZM16.0584 34.0506V38.0428H9.02552H1.99265V36.0467V34.0506H3.15823C4.21562 34.0506 4.35382 34.0248 4.64685 33.7723C5.09954 33.3823 5.09954 32.7228 4.64685 32.3328C4.35382 32.0803 4.21562 32.0545 3.15823 32.0545H1.99265V31.0564V30.0584H9.02552H16.0584V34.0506ZM23.3257 30.1043C23.3257 30.1295 23.2214 30.3805 23.0938 30.662C22.3795 32.2391 23.4565 34.0499 25.1095 34.0508C25.429 34.0511 31.3842 32.8567 31.8531 32.6984C31.9675 32.6598 31.9996 33.2402 31.9996 35.3458V38.0428H25.0253H18.051V34.0506V30.0584H20.6884C22.1389 30.0584 23.3257 30.0791 23.3257 30.1043ZM48.058 34.0506V38.0428H41.0231H33.9881L34.0195 35.1375L34.0508 32.2323L39.0324 31.1586L44.0141 30.0849L46.036 30.0717L48.058 30.0584V34.0506ZM7.56034 32.1901C6.95422 32.5222 6.83877 33.2798 7.32064 33.7623C7.60746 34.0498 7.61543 34.0506 9.98727 34.0468C12.477 34.043 12.5983 34.0201 12.8745 33.5006C13.0943 33.0871 13.0339 32.7641 12.6682 32.3977L12.3256 32.0545L10.0602 32.058C8.64809 32.0602 7.70651 32.11 7.56034 32.1901ZM24.0012 44.0605L23.9704 48.0821H16.9961H10.0218L9.9909 44.2082C9.9739 42.0775 9.98539 40.2678 10.0166 40.1866C10.0611 40.0703 11.5545 40.0389 17.0526 40.0389H24.032L24.0012 44.0605ZM39.9702 44.0899V48.1408H32.9959H26.0216V44.0899V40.0389H32.9959H39.9702V44.0899ZM56.0286 44.0908V48.1427L49.025 48.1124L42.0214 48.0821L41.9905 44.2082C41.9735 42.0775 41.985 40.2678 42.0161 40.1866C42.0607 40.0703 43.5539 40.0389 49.0507 40.0389H56.0286V44.0908ZM16.0306 54.0997L15.9998 58.0626L8.99622 58.0929L1.99265 58.1232V54.13V50.1369H9.02704H16.0616L16.0306 54.0997ZM31.9996 54.1291V58.1213H25.0253H18.051V54.1291V50.1369H25.0253H31.9996V54.1291ZM48.058 54.1291V58.1213H41.0251H33.9922V54.1291V50.1369H41.0251H48.058V54.1291Z" fill="#FF5E14"/>
</svg>
