<svg width="50" height="60" viewBox="0 0 50 60" fill="none" xmlns="http://www.w3.org/2000/svg">
<path fill-rule="evenodd" clip-rule="evenodd" d="M21.5116 0.222863C20.4934 0.613705 19.5632 1.61044 19.2758 2.61878C19.1289 3.13443 19.1257 3.13666 18.0798 3.50406C14.7214 4.68397 11.8033 7.47682 10.443 10.8133C10.04 11.8017 9.60835 13.4599 9.60704 14.0244C9.60609 14.4387 9.56146 14.4896 8.74511 15.0074C6.93091 16.1578 6.59642 18.6156 8.02673 20.2851L8.32733 20.6358L8.08759 20.9544C6.79666 22.6693 6.83055 25.0319 8.17005 26.6962C8.98019 27.7026 10.1309 28.2837 11.6432 28.4499L12.3888 28.5318L12.6561 29.3106C13.2716 31.1038 14.513 33.0367 15.9184 34.3896L16.6468 35.0909V36.6456V38.2003L14.4093 38.2007C11.8715 38.2012 10.7067 38.3506 8.98055 38.8974C5.24738 40.0796 1.88138 43.4789 0.619451 47.3414C0.0372317 49.1236 0 49.5585 0 54.5754V59.2897L0.330907 59.6148L0.661694 59.9398L24.9402 59.9699L49.2186 60L49.6093 59.6572L50 59.3143V54.5876C50 49.5575 49.9629 49.1242 49.3805 47.3414C48.1186 43.4789 44.7526 40.0796 41.0195 38.8974C39.2933 38.3506 38.1285 38.2012 35.5907 38.2007L33.3532 38.2003V36.663V35.1257L34.2008 34.2899C35.5734 32.9363 36.9685 30.6751 37.4593 29.0084L37.5998 28.5318L38.3511 28.4499C39.8678 28.2844 41.0184 27.7044 41.83 26.6962C43.1681 25.0335 43.2032 22.6691 41.9153 20.9581L41.6783 20.6433L42.1107 20.087C42.5784 19.4857 42.8998 18.6052 42.8998 17.9257C42.8998 16.8 42.2138 15.5782 41.2541 14.9943C40.4493 14.5048 40.3939 14.4425 40.393 14.0244C40.3916 13.4599 39.96 11.8017 39.557 10.8133C38.1967 7.47682 35.2786 4.68397 31.9202 3.50406C30.8743 3.13666 30.8711 3.13443 30.7242 2.61878C30.432 1.5938 29.5 0.606556 28.4575 0.217472C27.9298 0.0205858 27.5292 -0.00437648 24.9689 0.000545664C22.4461 0.00535062 22.0042 0.0337116 21.5116 0.222863ZM27.922 2.59299C28.5508 3.07876 28.58 3.29264 28.58 7.43123V11.2419L28.9081 11.5995C29.1143 11.824 29.3965 11.982 29.6674 12.0242C30.0311 12.081 30.1616 12.0361 30.5027 11.7369L30.9069 11.3824L30.9426 8.50895L30.9784 5.63535L31.7674 5.98307C33.9158 6.92964 35.918 8.79982 36.9627 10.8355C37.328 11.5476 37.8339 13.0944 37.9494 13.8532L38.0342 14.4099H25H11.9658L12.0506 13.8532C12.1661 13.0944 12.672 11.5476 13.0374 10.8355C14.0832 8.79748 16.0841 6.92976 18.2384 5.98049L19.0334 5.63019V8.43605V11.2419L19.3616 11.5995C19.5678 11.824 19.85 11.982 20.1209 12.0242C20.4846 12.081 20.615 12.0361 20.9562 11.7369L21.3604 11.3824L21.42 7.35881C21.4834 3.0838 21.4884 3.04841 22.0918 2.58245C22.3889 2.35286 22.5554 2.33892 25 2.33892C27.4794 2.33892 27.6075 2.35005 27.922 2.59299ZM40.0964 17.1117C40.2641 17.2762 40.4332 17.6045 40.4723 17.841C40.5352 18.2216 40.4947 18.3188 40.1211 18.6857L39.6989 19.1004L24.9536 19.0698L10.2082 19.0391L9.90358 18.7397C9.73592 18.5752 9.56683 18.2469 9.52769 18.0105C9.4648 17.6298 9.50525 17.5326 9.87888 17.1657L10.3011 16.7511L25.0464 16.7817L39.7918 16.8124L40.0964 17.1117ZM11.8735 23.7984V26.1554L11.426 26.0754C10.0947 25.8373 9.23222 24.4464 9.59499 23.123C9.8216 22.2968 10.8146 21.4951 11.6647 21.4521C11.857 21.4424 11.8735 21.6279 11.8735 23.7984ZM35.7399 23.5943C35.7399 24.9767 35.6761 26.1059 35.5618 26.7498C34.8274 30.8857 31.8141 34.2684 27.8043 35.4581C26.8655 35.7366 26.52 35.7778 25.0597 35.7849C23.6622 35.7917 23.2329 35.7493 22.4344 35.5257C18.5724 34.4443 15.7315 31.5632 14.6104 27.5915C14.3859 26.7964 14.3382 26.2671 14.2903 24.0491L14.2342 21.4415H24.987H35.7399V23.5943ZM39.4112 21.8309C39.6257 21.9713 39.9478 22.2926 40.1272 22.5449C40.4033 22.9332 40.4535 23.1236 40.4535 23.7854C40.4535 24.4472 40.4033 24.6377 40.1272 25.0259C39.7258 25.5904 39.1644 25.9698 38.574 26.0754L38.1265 26.1554V23.7854V21.4154L38.574 21.4954C38.8202 21.5395 39.1969 21.6905 39.4112 21.8309ZM19.9881 37.1445C21.3291 37.7969 23.0231 38.13 25 38.13C26.9768 38.13 28.6709 37.7969 30.0119 37.1445C30.9938 36.6667 30.9666 36.6468 30.9666 37.8464V38.9146L28.0131 41.9558C26.3887 43.6285 25.0328 44.9971 25 44.9971C24.9672 44.9971 23.6113 43.6285 21.9869 41.9558L19.0334 38.9146V37.8464C19.0334 36.6468 19.0062 36.6667 19.9881 37.1445ZM20.5659 43.8776L23.8067 47.2112V52.4328V57.6545H19.0426H14.2786L14.2395 56.0624L14.2005 54.4704L13.7963 54.116C13.4553 53.817 13.3247 53.7722 12.961 53.8289C12.6901 53.8711 12.4079 54.0291 12.2017 54.2536C11.8792 54.605 11.8735 54.6376 11.8735 56.1328V57.6545H10.6802H9.48687V49.4078V41.1611L10.173 40.9739C10.5504 40.871 11.0874 40.7519 11.3663 40.7092L11.8735 40.6314V44.4533V48.2752L12.2017 48.6328C12.4079 48.8573 12.6901 49.0153 12.961 49.0575C13.3247 49.1143 13.4551 49.0694 13.7963 48.7702L14.2005 48.4156L14.2348 44.4799L14.2693 40.5442H15.7973H17.3251L20.5659 43.8776ZM35.7399 44.4097V48.2752L36.068 48.6328C36.2742 48.8573 36.5564 49.0153 36.8273 49.0575C37.1911 49.1143 37.3215 49.0694 37.6627 48.7702L38.0668 48.4156L38.1013 44.5243L38.1359 40.6329L38.6383 40.7099C38.9147 40.7522 39.4495 40.871 39.827 40.9739L40.5131 41.1611V49.4078V57.6545H39.329H38.145L38.1058 56.0624L38.0668 54.4704L37.6627 54.116C37.3216 53.817 37.1911 53.7722 36.8273 53.8289C36.5564 53.8711 36.2742 54.0291 36.068 54.2536C35.7456 54.605 35.7399 54.6376 35.7399 56.1328V57.6545H30.9666H26.1933V52.4328V47.2112L29.4341 43.8776L32.6749 40.5442H34.2074H35.7399V44.4097ZM7.10024 50.0955V57.6545H4.7136H2.32697L2.32745 54.2266C2.32804 49.7781 2.5068 48.6257 3.50167 46.6565C4.12864 45.4154 4.71921 44.6244 5.81205 43.5619C6.39224 42.998 6.91933 42.5365 6.98353 42.5365C7.05835 42.5365 7.10024 45.2475 7.10024 50.0955ZM44.1879 43.5619C45.2808 44.6244 45.8714 45.4154 46.4983 46.6565C47.4932 48.6257 47.672 49.7781 47.6726 54.2266L47.673 57.6545H45.2864H42.8998V50.0955C42.8998 45.2475 42.9416 42.5365 43.0165 42.5365C43.0807 42.5365 43.6078 42.998 44.1879 43.5619ZM12.6358 50.3861C12.2601 50.5352 11.8735 51.0784 11.8735 51.4571C11.8735 51.9263 12.422 52.4893 12.961 52.5733C13.3243 52.63 13.4551 52.5853 13.7936 52.2883C14.1288 51.9941 14.1951 51.8547 14.1951 51.4432C14.1951 51.0354 14.1283 50.8919 13.808 50.6109C13.416 50.2668 13.0927 50.2048 12.6358 50.3861ZM36.5021 50.3861C36.1265 50.5352 35.7399 51.0784 35.7399 51.4571C35.7399 51.9263 36.2883 52.4893 36.8273 52.5733C37.1907 52.63 37.3215 52.5853 37.6599 52.2883C37.9951 51.9941 38.0615 51.8547 38.0615 51.4432C38.0615 51.0354 37.9946 50.8919 37.6743 50.6109C37.2823 50.2668 36.9591 50.2048 36.5021 50.3861Z" fill="#FF5E14"/>
</svg>
