<svg width="50" height="60" viewBox="0 0 50 60" fill="none" xmlns="http://www.w3.org/2000/svg">
<path fill-rule="evenodd" clip-rule="evenodd" d="M24.2858 0.234528C23.9209 0.459785 22.7647 3.07122 19.7613 10.454L19.5348 11.0107H12.3803C5.45542 11.0107 5.21624 11.018 4.93077 11.2421C4.52436 11.5611 4.41656 11.9866 4.65321 12.3374C4.7628 12.4997 7.37189 14.068 10.4513 15.8228C13.5307 17.5775 16.0792 19.0328 16.1147 19.057C16.1501 19.0811 15.4156 20.9329 14.4825 23.1719C11.8945 29.3817 11.8038 29.6304 11.9818 30.0311C12.1708 30.4566 12.9533 30.7497 13.4807 30.5923C13.6765 30.5338 16.341 29.055 19.4015 27.3059L24.9662 24.126L25.7754 24.5635C26.4189 24.9113 26.5455 25.0296 26.3937 25.1406C26.2887 25.2175 22.474 27.3491 17.9165 29.8774C13.359 32.4059 9.44527 34.611 9.21953 34.7775L8.80894 35.0804V44.0758V53.0713L4.76459 53.1075L0.720242 53.1438L0.360122 53.4727C0.00223993 53.7996 0 53.8177 0 56.4851C0 59.3338 0.0637525 59.644 0.695309 59.8699C0.957188 59.9636 7.79412 60 25.0817 60H49.1043L49.5233 59.7173L49.9422 59.4347L49.99 56.8752C50.0212 55.2026 49.9791 54.1604 49.8685 53.8672C49.5924 53.1352 49.2778 53.0852 44.9453 53.0852H41.2079L41.2031 35.769C41.1996 22.3418 41.1576 18.4111 41.0165 18.2668C40.7779 18.0229 40.2542 17.8082 39.8975 17.8082C39.7409 17.8082 38.4804 18.4378 37.0964 19.2074C35.7125 19.9769 34.5378 20.586 34.4858 20.5608C34.2905 20.466 33.8444 19.0882 33.9789 18.9949C34.0543 18.9426 36.4675 17.5648 39.3416 15.9332C42.2157 14.3014 44.7521 12.8329 44.9778 12.6697C45.5152 12.2816 45.5452 11.6359 45.0429 11.2655C44.6981 11.0112 44.6819 11.0107 37.5836 11.0107H30.4698L28.588 6.46918C27.5529 3.97131 26.5709 1.59873 26.4056 1.1965C25.9461 0.0788872 25.1344 -0.28947 24.2858 0.234528ZM26.7186 8.31507C27.7613 10.8377 28.5074 12.4571 28.7019 12.6207C29.0129 12.8823 29.0293 12.8832 34.6709 12.9137L40.3281 12.9444L35.8297 15.5092C32.7805 17.2478 31.2823 18.1727 31.1796 18.3806C31.0527 18.6373 31.2286 19.1744 32.2591 21.6758C34.3026 26.636 34.4692 27.0711 34.2939 26.986C34.2011 26.941 32.2419 25.8271 29.9401 24.5107C27.6383 23.1942 25.6088 22.0639 25.4301 21.9988C25.2513 21.9338 24.949 21.9122 24.7582 21.951C24.5674 21.9899 22.4292 23.1518 20.0067 24.5331C17.5843 25.9144 15.5881 27.0342 15.5709 27.0214C15.5536 27.0086 16.2706 25.2257 17.164 23.0592C18.0576 20.8929 18.8075 19.023 18.8307 18.9038C18.9513 18.2844 18.7194 18.1161 14.1628 15.5169L9.6534 12.9444L15.3659 12.8858L21.0784 12.8273L21.3617 12.5525C21.5176 12.4015 21.8177 11.8477 22.0289 11.3219C23.0717 8.72574 24.9719 4.20442 25.0072 4.23595C25.0292 4.25564 25.7993 6.09122 26.7186 8.31507ZM38.6698 36.9117V53.0852H24.9338H11.1978V44.5486V36.0119L19.2976 31.5139C23.7525 29.0399 27.7014 26.8463 28.0732 26.639L28.7489 26.2622L32.3284 28.316C34.2969 29.4455 36.1228 30.4437 36.3857 30.5341C37.2108 30.8179 38.0581 30.4094 38.0678 29.7229C38.0704 29.54 37.4596 27.9051 36.7104 26.0898C35.9612 24.2745 35.3397 22.7523 35.3294 22.7072C35.3146 22.6435 38.4716 20.7669 38.6324 20.7436C38.6529 20.7407 38.6698 28.0163 38.6698 36.9117ZM47.4787 56.5426V58.0076H25.0084H2.53817V56.5426V55.0776H25.0084H47.4787V56.5426Z" fill="#FF5E14"/>
</svg>
