<svg width="20" height="22" viewBox="0 0 20 22" fill="none" xmlns="http://www.w3.org/2000/svg">
<path d="M17.7501 2.42651L11.2374 0.172345C10.5624 -0.0574484 9.46117 -0.0574484 8.78622 0.172345L2.27352 2.42651C1.01835 2.86421 0 4.22109 0 5.4576V14.3211C0 15.2074 0.627587 16.3783 1.39727 16.9035L7.90996 21.4009C9.05857 22.1997 10.9413 22.1997 12.0899 21.4009L18.6026 16.9035C19.3723 16.3673 19.9999 15.2074 19.9999 14.3211V5.4576C20.0117 4.22109 18.9934 2.86421 17.7501 2.42651ZM10.894 11.9465V14.8244C10.894 15.2731 10.4914 15.6451 10.0059 15.6451C9.52038 15.6451 9.11777 15.2731 9.11777 14.8244V11.9465C7.92181 11.5964 7.04555 10.5678 7.04555 9.35315C7.04555 7.84307 8.37177 6.61751 10.0059 6.61751C11.64 6.61751 12.9662 7.84307 12.9662 9.35315C12.9662 10.5787 12.0899 11.5964 10.894 11.9465Z" fill="#FF5E14"/>
</svg>
