<svg width="11" height="22" viewBox="0 0 11 22" fill="none" xmlns="http://www.w3.org/2000/svg">
<path d="M10 4.33333H4.375C3.47989 4.33333 2.62145 4.68452 1.98851 5.30964C1.35558 5.93476 1 6.78261 1 7.66667C1 8.55072 1.35558 9.39857 1.98851 10.0237C2.62145 10.6488 3.47989 11 4.375 11H6.625C7.52011 11 8.37855 11.3512 9.01149 11.9763C9.64442 12.6014 10 13.4493 10 14.3333C10 15.2174 9.64442 16.0652 9.01149 16.6904C8.37855 17.3155 7.52011 17.6667 6.625 17.6667H1M5.5 17.6667V21M5.5 1V4.33333" stroke="#FF5E14" stroke-width="2" stroke-linecap="round" stroke-linejoin="round"/>
</svg>
