<svg width="22" height="20" viewBox="0 0 22 20" fill="none" xmlns="http://www.w3.org/2000/svg">
<path d="M8.58648 12.8281C8.18406 12.8281 7.85034 13.1645 7.85034 13.5701V15.0539C7.85034 15.4595 8.18406 15.7959 8.58648 15.7959C8.98891 15.7959 9.32262 15.4595 9.32262 15.0539V13.5701C9.32262 13.1645 8.98891 12.8281 8.58648 12.8281Z" fill="#FF5E14"/>
<path d="M20.3665 18.5161H19.385V7.36738C19.385 6.75405 19.1102 6.18029 18.6293 5.80438L11.7586 0.422901C11.0519 -0.140967 10.0508 -0.140967 9.34407 0.422901L2.47343 5.80438C1.99249 6.18029 1.71766 6.75405 1.71766 7.35749L1.66858 18.5161H0.73614C0.333717 18.5161 0 18.8426 0 19.2581C0 19.6637 0.333717 20 0.73614 20H20.3665C20.769 20 21.1027 19.6637 21.1027 19.2581C21.1027 18.8426 20.769 18.5161 20.3665 18.5161ZM9.07906 4.17213H12.0236C12.426 4.17213 12.7598 4.50847 12.7598 4.91406C12.7598 5.31965 12.426 5.65599 12.0236 5.65599H9.07906C8.67664 5.65599 8.34292 5.31965 8.34292 4.91406C8.34292 4.50847 8.67664 4.17213 9.07906 4.17213ZM15.4589 18.5161H5.64374V9.86027C5.64374 9.0392 6.30136 8.37641 7.11602 8.37641H13.9867C14.8013 8.37641 15.4589 9.0392 15.4589 9.86027V18.5161Z" fill="#FF5E14"/>
</svg>
